<svg width="70" height="70" viewBox="0 0 70 70" fill="none" xmlns="http://www.w3.org/2000/svg">
<circle cx="35" cy="35" r="35" fill="#D5E1DB" fill-opacity="0.4"/>
<path d="M43.2231 36.2472C42.6059 35.63 41.6083 35.63 40.9911 36.2472L38.475 38.7632C37.3085 38.4159 35.1318 37.6267 33.7522 36.2472C32.3726 34.8676 31.5833 32.691 31.2361 31.5245L33.7522 29.0085C34.3694 28.3913 34.3694 27.3938 33.7522 26.7766L27.4382 20.4629C26.821 19.8457 25.8234 19.8457 25.2062 20.4629L20.9253 24.7436C20.3255 25.3434 19.9877 26.1673 20.0003 27.0086C20.0366 29.2563 20.6317 37.0632 26.7847 43.2159C32.9377 49.3686 40.7449 49.9621 42.9943 50C43.0021 50 43.0306 50 43.0385 50C43.8719 50 44.6596 49.6717 45.2562 49.075L49.5371 44.7943C50.1543 44.1772 50.1543 43.1796 49.5371 42.5624L43.2231 36.2472ZM43.0227 46.8416C41.0527 46.8084 34.3125 46.2796 29.0167 40.9824C23.7035 35.6695 23.1889 28.9059 23.1573 26.9755L26.3222 23.8107L30.4042 27.8925L28.3632 29.9334C27.9859 30.3091 27.8249 30.8521 27.9338 31.373C27.9717 31.5545 28.8983 35.8589 31.5186 38.4791C34.1389 41.0992 38.4435 42.0258 38.625 42.0637C39.1506 42.1757 39.6889 42.0132 40.0646 41.6359L42.1071 39.595L46.1891 43.6768L43.0227 46.8416Z" fill="#EE4248"/>
</svg>
