<svg width="100" height="100" viewBox="0 0 100 100" fill="none" xmlns="http://www.w3.org/2000/svg">
<path d="M88.425 23.2694C88.425 42.4833 98.3778 55.6778 98.3778 64.9361C98.3778 74.1944 93.0556 93.6389 50.4639 93.6389C7.87225 93.6389 1.61948 67.4805 1.61948 57.2972C1.61948 9.6111 88.425 -10.7584 88.425 23.2694Z" fill="#EFEFEF"/>
<path d="M9.71388 16.6667C8.79444 16.6667 7.90277 16.3639 7.16388 15.7889C6.2861 15.1056 5.72499 14.1195 5.58888 13.0167C5.44999 11.9139 5.74999 10.8222 6.43333 9.94168C7.11666 9.0639 8.10277 8.50279 9.20555 8.36668C10.3028 8.22224 11.4 8.52779 12.2805 9.21113C13.1611 9.89446 13.7194 10.8806 13.8555 11.9833C13.9944 13.0861 13.6917 14.1806 13.0111 15.0583C12.3278 15.9361 11.3417 16.4972 10.2389 16.6333C10.0639 16.6556 9.88888 16.6667 9.71388 16.6667ZM9.72222 11.1111C9.66388 11.1111 9.60833 11.1139 9.54999 11.1222C8.79166 11.2167 8.24999 11.9139 8.34444 12.6722C8.43888 13.4306 9.13055 13.9695 9.89444 13.8778C10.6528 13.7833 11.1944 13.0861 11.1 12.3278C11.0111 11.6278 10.4139 11.1111 9.72222 11.1111Z" fill="#A4AFC1"/>
<path d="M75.6944 75.6944H24.3056C21.2361 75.6944 18.75 73.2083 18.75 70.1388V28.4722H81.25V70.1388C81.25 73.2083 78.7639 75.6944 75.6944 75.6944Z" fill="#F3F3F1"/>
<path d="M81.25 28.4722H18.75V24.3056C18.75 21.2361 21.2361 18.75 24.3056 18.75H75.6944C78.7639 18.75 81.25 21.2361 81.25 24.3056V28.4722Z" fill="#EE4248"/>
<path d="M65.2778 81.25C74.099 81.25 81.25 74.099 81.25 65.2778C81.25 56.4566 74.099 49.3055 65.2778 49.3055C56.4566 49.3055 49.3055 56.4566 49.3055 65.2778C49.3055 74.099 56.4566 81.25 65.2778 81.25Z" fill="#EE4248"/>
<path d="M70.1389 38.1945H29.8611V50.6945H70.1667L70.1389 38.1945Z" fill="#EE4248"/>
<path d="M30.5556 18.75H24.3056C21.2361 18.75 18.75 21.2361 18.75 24.3056V28.4722H25V24.3056C25 21.2361 27.4861 18.75 30.5556 18.75Z" fill="#EE4248"/>
<path d="M55.5555 65.2778C55.5555 57.5278 61.0778 51.0694 68.4028 49.6167C67.3917 49.4167 66.3472 49.3055 65.2778 49.3055C56.4555 49.3055 49.3055 56.4555 49.3055 65.2778C49.3055 74.1 56.4555 81.25 65.2778 81.25C66.3472 81.25 67.3917 81.1417 68.4028 80.9389C61.0778 79.4861 55.5555 73.0278 55.5555 65.2778Z" fill="#EE4248"/>
<path d="M29.8611 38.1945H36.1111V50.6945H29.8611V38.1945Z" fill="#EE4248"/>
<path d="M25 70.1388V28.4722H18.75V70.1388C18.75 73.2083 21.2361 75.6944 24.3056 75.6944H30.5556C27.4861 75.6944 25 73.2083 25 70.1388Z" fill="#D5DBE1"/>
<path d="M65.2777 83.3333C55.3222 83.3333 47.2222 75.2333 47.2222 65.2777C47.2222 55.3222 55.3222 47.2222 65.2777 47.2222C75.2333 47.2222 83.3333 55.3222 83.3333 65.2777C83.3333 75.2333 75.2333 83.3333 65.2777 83.3333ZM65.2777 51.3888C57.6194 51.3888 51.3888 57.6194 51.3888 65.2777C51.3888 72.9361 57.6194 79.1666 65.2777 79.1666C72.9361 79.1666 79.1666 72.9361 79.1666 65.2777C79.1666 57.6194 72.9361 51.3888 65.2777 51.3888Z" fill="black"/>
<path d="M62.5 72.9166C61.9472 72.9166 61.4166 72.6972 61.0277 72.3055L55.4722 66.75L58.4194 63.8028L62.4 67.7833L70.6555 58.35L73.7916 61.0944L64.0694 72.2055C63.6888 72.6389 63.1472 72.8972 62.5694 72.9166C62.5472 72.9166 62.5222 72.9166 62.5 72.9166Z" fill="black"/>
<path d="M45.8612 52.7777H29.8612C28.7112 52.7777 27.7778 51.8444 27.7778 50.6944V38.1944C27.7778 37.0444 28.7112 36.1111 29.8612 36.1111H70.139C71.289 36.1111 72.2223 37.0444 72.2223 38.1944V41.4722H68.0556V40.2778H31.9445V48.6111H45.8612V52.7777Z" fill="black"/>
<path d="M27.9167 56.9166H43.8889V61.0833H27.9167V56.9166Z" fill="black"/>
<path d="M27.9167 65.25H43.1667V69.4167H27.9167V65.25Z" fill="black"/>
<path d="M43.3055 77.7778H24.3055C20.0916 77.7778 16.6666 74.3528 16.6666 70.1389V24.3056C16.6666 20.0917 20.0916 16.6667 24.3055 16.6667H75.6944C79.9083 16.6667 83.3333 20.0917 83.3333 24.3056V47H79.1666V24.3056C79.1666 22.3917 77.6083 20.8334 75.6944 20.8334H24.3055C22.3916 20.8334 20.8333 22.3917 20.8333 24.3056V70.1389C20.8333 72.0528 22.3916 73.6111 24.3055 73.6111H43.3055V77.7778Z" fill="black"/>
<path d="M18.75 26.3889H81.25V30.5556H18.75V26.3889Z" fill="black"/>
</svg>
