<svg width="98" height="104" viewBox="0 0 98 104" fill="none" xmlns="http://www.w3.org/2000/svg">
<g opacity="0.3">
<mask id="mask0" mask-type="alpha" maskUnits="userSpaceOnUse" x="-4" y="0" width="11" height="11">
<path d="M1.50964 10.425C4.3972 10.425 6.73803 8.09121 6.73803 5.21245C6.73803 2.33368 4.3972 0 1.50964 0C-1.37792 0 -3.71875 2.33368 -3.71875 5.21245C-3.71875 8.09121 -1.37792 10.425 1.50964 10.425Z" fill="url(#paint0_linear)"/>
</mask>
<g mask="url(#mask0)">
<path d="M1.50964 10.425C4.3972 10.425 6.73803 8.09121 6.73803 5.21245C6.73803 2.33368 4.3972 0 1.50964 0C-1.37792 0 -3.71875 2.33368 -3.71875 5.21245C-3.71875 8.09121 -1.37792 10.425 1.50964 10.425Z" fill="url(#paint1_linear)"/>
</g>
<mask id="mask1" mask-type="alpha" maskUnits="userSpaceOnUse" x="26" y="0" width="12" height="11">
<path d="M31.7909 10.425C34.6784 10.425 37.0193 8.09121 37.0193 5.21245C37.0193 2.33368 34.6784 0 31.7909 0C28.9033 0 26.5625 2.33368 26.5625 5.21245C26.5625 8.09121 28.9033 10.425 31.7909 10.425Z" fill="url(#paint2_linear)"/>
</mask>
<g mask="url(#mask1)">
<path d="M31.7909 10.425C34.6784 10.425 37.0193 8.09121 37.0193 5.21245C37.0193 2.33368 34.6784 0 31.7909 0C28.9033 0 26.5625 2.33368 26.5625 5.21245C26.5625 8.09121 28.9033 10.425 31.7909 10.425Z" fill="url(#paint3_linear)"/>
</g>
<mask id="mask2" mask-type="alpha" maskUnits="userSpaceOnUse" x="56" y="0" width="12" height="11">
<path d="M62.0712 10.425C64.9587 10.425 67.2996 8.09121 67.2996 5.21245C67.2996 2.33368 64.9587 0 62.0712 0C59.1836 0 56.8428 2.33368 56.8428 5.21245C56.8428 8.09121 59.1836 10.425 62.0712 10.425Z" fill="url(#paint4_linear)"/>
</mask>
<g mask="url(#mask2)">
<path d="M62.0712 10.425C64.9587 10.425 67.2996 8.09121 67.2996 5.21245C67.2996 2.33368 64.9587 0 62.0712 0C59.1836 0 56.8428 2.33368 56.8428 5.21245C56.8428 8.09121 59.1836 10.425 62.0712 10.425Z" fill="url(#paint5_linear)"/>
</g>
<mask id="mask3" mask-type="alpha" maskUnits="userSpaceOnUse" x="87" y="0" width="11" height="11">
<path d="M92.3524 10.425C95.24 10.425 97.5808 8.09121 97.5808 5.21245C97.5808 2.33368 95.24 0 92.3524 0C89.4648 0 87.124 2.33368 87.124 5.21245C87.124 8.09121 89.4648 10.425 92.3524 10.425Z" fill="url(#paint6_linear)"/>
</mask>
<g mask="url(#mask3)">
<path d="M92.3524 10.425C95.24 10.425 97.5808 8.09121 97.5808 5.21245C97.5808 2.33368 95.24 0 92.3524 0C89.4648 0 87.124 2.33368 87.124 5.21245C87.124 8.09121 89.4648 10.425 92.3524 10.425Z" fill="url(#paint7_linear)"/>
</g>
<mask id="mask4" mask-type="alpha" maskUnits="userSpaceOnUse" x="-4" y="26" width="11" height="11">
<path d="M1.50964 36.5958C4.3972 36.5958 6.73803 34.2621 6.73803 31.3834C6.73803 28.5046 4.3972 26.171 1.50964 26.171C-1.37792 26.171 -3.71875 28.5046 -3.71875 31.3834C-3.71875 34.2621 -1.37792 36.5958 1.50964 36.5958Z" fill="url(#paint8_linear)"/>
</mask>
<g mask="url(#mask4)">
<path d="M1.50964 36.5958C4.3972 36.5958 6.73803 34.2621 6.73803 31.3834C6.73803 28.5046 4.3972 26.171 1.50964 26.171C-1.37792 26.171 -3.71875 28.5046 -3.71875 31.3834C-3.71875 34.2621 -1.37792 36.5958 1.50964 36.5958Z" fill="url(#paint9_linear)"/>
</g>
<mask id="mask5" mask-type="alpha" maskUnits="userSpaceOnUse" x="26" y="26" width="12" height="11">
<path d="M31.7909 36.5958C34.6784 36.5958 37.0193 34.2621 37.0193 31.3834C37.0193 28.5046 34.6784 26.171 31.7909 26.171C28.9033 26.171 26.5625 28.5046 26.5625 31.3834C26.5625 34.2621 28.9033 36.5958 31.7909 36.5958Z" fill="url(#paint10_linear)"/>
</mask>
<g mask="url(#mask5)">
<path d="M31.7909 36.5958C34.6784 36.5958 37.0193 34.2621 37.0193 31.3834C37.0193 28.5046 34.6784 26.171 31.7909 26.171C28.9033 26.171 26.5625 28.5046 26.5625 31.3834C26.5625 34.2621 28.9033 36.5958 31.7909 36.5958Z" fill="url(#paint11_linear)"/>
</g>
<mask id="mask6" mask-type="alpha" maskUnits="userSpaceOnUse" x="56" y="26" width="12" height="11">
<path d="M62.0712 36.5958C64.9587 36.5958 67.2996 34.2621 67.2996 31.3834C67.2996 28.5046 64.9587 26.171 62.0712 26.171C59.1836 26.171 56.8428 28.5046 56.8428 31.3834C56.8428 34.2621 59.1836 36.5958 62.0712 36.5958Z" fill="url(#paint12_linear)"/>
</mask>
<g mask="url(#mask6)">
<path d="M62.0712 36.5958C64.9587 36.5958 67.2996 34.2621 67.2996 31.3834C67.2996 28.5046 64.9587 26.171 62.0712 26.171C59.1836 26.171 56.8428 28.5046 56.8428 31.3834C56.8428 34.2621 59.1836 36.5958 62.0712 36.5958Z" fill="url(#paint13_linear)"/>
</g>
<mask id="mask7" mask-type="alpha" maskUnits="userSpaceOnUse" x="87" y="26" width="11" height="11">
<path d="M92.3524 36.5958C95.24 36.5958 97.5808 34.2621 97.5808 31.3834C97.5808 28.5046 95.24 26.171 92.3524 26.171C89.4648 26.171 87.124 28.5046 87.124 31.3834C87.124 34.2621 89.4648 36.5958 92.3524 36.5958Z" fill="url(#paint14_linear)"/>
</mask>
<g mask="url(#mask7)">
<path d="M92.3524 36.5958C95.24 36.5958 97.5808 34.2621 97.5808 31.3834C97.5808 28.5046 95.24 26.171 92.3524 26.171C89.4648 26.171 87.124 28.5046 87.124 31.3834C87.124 34.2621 89.4648 36.5958 92.3524 36.5958Z" fill="url(#paint15_linear)"/>
</g>
<mask id="mask8" mask-type="alpha" maskUnits="userSpaceOnUse" x="-4" y="52" width="11" height="11">
<path d="M1.50964 62.7125C4.3972 62.7125 6.73803 60.3788 6.73803 57.5C6.73803 54.6212 4.3972 52.2875 1.50964 52.2875C-1.37792 52.2875 -3.71875 54.6212 -3.71875 57.5C-3.71875 60.3788 -1.37792 62.7125 1.50964 62.7125Z" fill="url(#paint16_linear)"/>
</mask>
<g mask="url(#mask8)">
<path d="M1.50964 62.7125C4.3972 62.7125 6.73803 60.3788 6.73803 57.5C6.73803 54.6212 4.3972 52.2875 1.50964 52.2875C-1.37792 52.2875 -3.71875 54.6212 -3.71875 57.5C-3.71875 60.3788 -1.37792 62.7125 1.50964 62.7125Z" fill="url(#paint17_linear)"/>
</g>
<mask id="mask9" mask-type="alpha" maskUnits="userSpaceOnUse" x="26" y="52" width="12" height="11">
<path d="M31.7909 62.7125C34.6784 62.7125 37.0193 60.3788 37.0193 57.5C37.0193 54.6212 34.6784 52.2875 31.7909 52.2875C28.9033 52.2875 26.5625 54.6212 26.5625 57.5C26.5625 60.3788 28.9033 62.7125 31.7909 62.7125Z" fill="url(#paint18_linear)"/>
</mask>
<g mask="url(#mask9)">
<path d="M31.7909 62.7125C34.6784 62.7125 37.0193 60.3788 37.0193 57.5C37.0193 54.6212 34.6784 52.2875 31.7909 52.2875C28.9033 52.2875 26.5625 54.6212 26.5625 57.5C26.5625 60.3788 28.9033 62.7125 31.7909 62.7125Z" fill="url(#paint19_linear)"/>
</g>
<mask id="mask10" mask-type="alpha" maskUnits="userSpaceOnUse" x="56" y="52" width="12" height="11">
<path d="M62.0712 62.7125C64.9587 62.7125 67.2996 60.3788 67.2996 57.5C67.2996 54.6212 64.9587 52.2875 62.0712 52.2875C59.1836 52.2875 56.8428 54.6212 56.8428 57.5C56.8428 60.3788 59.1836 62.7125 62.0712 62.7125Z" fill="url(#paint20_linear)"/>
</mask>
<g mask="url(#mask10)">
<path d="M62.0712 62.7125C64.9587 62.7125 67.2996 60.3788 67.2996 57.5C67.2996 54.6212 64.9587 52.2875 62.0712 52.2875C59.1836 52.2875 56.8428 54.6212 56.8428 57.5C56.8428 60.3788 59.1836 62.7125 62.0712 62.7125Z" fill="url(#paint21_linear)"/>
</g>
<mask id="mask11" mask-type="alpha" maskUnits="userSpaceOnUse" x="87" y="52" width="11" height="11">
<path d="M92.3524 62.7125C95.24 62.7125 97.5808 60.3788 97.5808 57.5C97.5808 54.6212 95.24 52.2875 92.3524 52.2875C89.4648 52.2875 87.124 54.6212 87.124 57.5C87.124 60.3788 89.4648 62.7125 92.3524 62.7125Z" fill="url(#paint22_linear)"/>
</mask>
<g mask="url(#mask11)">
<path d="M92.3524 62.7125C95.24 62.7125 97.5808 60.3788 97.5808 57.5C97.5808 54.6212 95.24 52.2875 92.3524 52.2875C89.4648 52.2875 87.124 54.6212 87.124 57.5C87.124 60.3788 89.4648 62.7125 92.3524 62.7125Z" fill="url(#paint23_linear)"/>
</g>
<mask id="mask12" mask-type="alpha" maskUnits="userSpaceOnUse" x="-4" y="78" width="11" height="11">
<path d="M1.50964 88.8834C4.3972 88.8834 6.73803 86.5496 6.73803 83.6709C6.73803 80.7921 4.3972 78.4584 1.50964 78.4584C-1.37792 78.4584 -3.71875 80.7921 -3.71875 83.6709C-3.71875 86.5496 -1.37792 88.8834 1.50964 88.8834Z" fill="url(#paint24_linear)"/>
</mask>
<g mask="url(#mask12)">
<path d="M1.50964 88.8834C4.3972 88.8834 6.73803 86.5496 6.73803 83.6709C6.73803 80.7921 4.3972 78.4584 1.50964 78.4584C-1.37792 78.4584 -3.71875 80.7921 -3.71875 83.6709C-3.71875 86.5496 -1.37792 88.8834 1.50964 88.8834Z" fill="url(#paint25_linear)"/>
</g>
<mask id="mask13" mask-type="alpha" maskUnits="userSpaceOnUse" x="26" y="78" width="12" height="11">
<path d="M31.7909 88.8834C34.6784 88.8834 37.0193 86.5496 37.0193 83.6709C37.0193 80.7921 34.6784 78.4584 31.7909 78.4584C28.9033 78.4584 26.5625 80.7921 26.5625 83.6709C26.5625 86.5496 28.9033 88.8834 31.7909 88.8834Z" fill="url(#paint26_linear)"/>
</mask>
<g mask="url(#mask13)">
<path d="M31.7909 88.8834C34.6784 88.8834 37.0193 86.5496 37.0193 83.6709C37.0193 80.7921 34.6784 78.4584 31.7909 78.4584C28.9033 78.4584 26.5625 80.7921 26.5625 83.6709C26.5625 86.5496 28.9033 88.8834 31.7909 88.8834Z" fill="url(#paint27_linear)"/>
</g>
<mask id="mask14" mask-type="alpha" maskUnits="userSpaceOnUse" x="56" y="78" width="12" height="11">
<path d="M62.0712 88.8834C64.9587 88.8834 67.2996 86.5496 67.2996 83.6709C67.2996 80.7921 64.9587 78.4584 62.0712 78.4584C59.1836 78.4584 56.8428 80.7921 56.8428 83.6709C56.8428 86.5496 59.1836 88.8834 62.0712 88.8834Z" fill="url(#paint28_linear)"/>
</mask>
<g mask="url(#mask14)">
<path d="M62.0712 88.8834C64.9587 88.8834 67.2996 86.5496 67.2996 83.6709C67.2996 80.7921 64.9587 78.4584 62.0712 78.4584C59.1836 78.4584 56.8428 80.7921 56.8428 83.6709C56.8428 86.5496 59.1836 88.8834 62.0712 88.8834Z" fill="url(#paint29_linear)"/>
</g>
<mask id="mask15" mask-type="alpha" maskUnits="userSpaceOnUse" x="87" y="78" width="11" height="11">
<path d="M92.3524 88.8834C95.24 88.8834 97.5808 86.5496 97.5808 83.6709C97.5808 80.7921 95.24 78.4584 92.3524 78.4584C89.4648 78.4584 87.124 80.7921 87.124 83.6709C87.124 86.5496 89.4648 88.8834 92.3524 88.8834Z" fill="url(#paint30_linear)"/>
</mask>
<g mask="url(#mask15)">
<path d="M92.3524 88.8834C95.24 88.8834 97.5808 86.5496 97.5808 83.6709C97.5808 80.7921 95.24 78.4584 92.3524 78.4584C89.4648 78.4584 87.124 80.7921 87.124 83.6709C87.124 86.5496 89.4648 88.8834 92.3524 88.8834Z" fill="url(#paint31_linear)"/>
</g>
</g>
<defs>
<linearGradient id="paint0_linear" x1="47.2007" y1="120.843" x2="-24.2009" y2="-60.9613" gradientUnits="userSpaceOnUse">
<stop/>
<stop offset="1" stop-color="white"/>
</linearGradient>
<linearGradient id="paint1_linear" x1="47.2007" y1="120.843" x2="-24.2009" y2="-60.9613" gradientUnits="userSpaceOnUse">
<stop stop-color="#97C3F9"/>
<stop offset="1" stop-color="#93C1F9"/>
</linearGradient>
<linearGradient id="paint2_linear" x1="73.4053" y1="110.551" x2="2.00371" y2="-71.2526" gradientUnits="userSpaceOnUse">
<stop/>
<stop offset="1" stop-color="white"/>
</linearGradient>
<linearGradient id="paint3_linear" x1="73.4053" y1="110.551" x2="2.00371" y2="-71.2526" gradientUnits="userSpaceOnUse">
<stop stop-color="#97C3F9"/>
<stop offset="1" stop-color="#93C1F9"/>
</linearGradient>
<linearGradient id="paint4_linear" x1="99.6087" y1="100.259" x2="28.2071" y2="-81.5444" gradientUnits="userSpaceOnUse">
<stop/>
<stop offset="1" stop-color="white"/>
</linearGradient>
<linearGradient id="paint5_linear" x1="99.6087" y1="100.259" x2="28.2071" y2="-81.5444" gradientUnits="userSpaceOnUse">
<stop stop-color="#97C3F9"/>
<stop offset="1" stop-color="#93C1F9"/>
</linearGradient>
<linearGradient id="paint6_linear" x1="125.813" y1="89.9679" x2="54.4116" y2="-91.8359" gradientUnits="userSpaceOnUse">
<stop/>
<stop offset="1" stop-color="white"/>
</linearGradient>
<linearGradient id="paint7_linear" x1="125.813" y1="89.9679" x2="54.4116" y2="-91.8359" gradientUnits="userSpaceOnUse">
<stop stop-color="#97C3F9"/>
<stop offset="1" stop-color="#93C1F9"/>
</linearGradient>
<linearGradient id="paint8_linear" x1="38.2583" y1="124.354" x2="-33.1421" y2="-57.449" gradientUnits="userSpaceOnUse">
<stop/>
<stop offset="1" stop-color="white"/>
</linearGradient>
<linearGradient id="paint9_linear" x1="38.2583" y1="124.354" x2="-33.1421" y2="-57.449" gradientUnits="userSpaceOnUse">
<stop stop-color="#97C3F9"/>
<stop offset="1" stop-color="#93C1F9"/>
</linearGradient>
<linearGradient id="paint10_linear" x1="64.4628" y1="114.062" x2="-6.93758" y2="-67.7403" gradientUnits="userSpaceOnUse">
<stop/>
<stop offset="1" stop-color="white"/>
</linearGradient>
<linearGradient id="paint11_linear" x1="64.4628" y1="114.062" x2="-6.93758" y2="-67.7403" gradientUnits="userSpaceOnUse">
<stop stop-color="#97C3F9"/>
<stop offset="1" stop-color="#93C1F9"/>
</linearGradient>
<linearGradient id="paint12_linear" x1="90.6663" y1="103.771" x2="19.2659" y2="-78.0318" gradientUnits="userSpaceOnUse">
<stop/>
<stop offset="1" stop-color="white"/>
</linearGradient>
<linearGradient id="paint13_linear" x1="90.6663" y1="103.771" x2="19.2659" y2="-78.0318" gradientUnits="userSpaceOnUse">
<stop stop-color="#97C3F9"/>
<stop offset="1" stop-color="#93C1F9"/>
</linearGradient>
<linearGradient id="paint14_linear" x1="116.871" y1="93.4794" x2="45.4705" y2="-88.3231" gradientUnits="userSpaceOnUse">
<stop/>
<stop offset="1" stop-color="white"/>
</linearGradient>
<linearGradient id="paint15_linear" x1="116.871" y1="93.4794" x2="45.4705" y2="-88.3231" gradientUnits="userSpaceOnUse">
<stop stop-color="#97C3F9"/>
<stop offset="1" stop-color="#93C1F9"/>
</linearGradient>
<linearGradient id="paint16_linear" x1="29.3159" y1="127.866" x2="-42.0857" y2="-53.9374" gradientUnits="userSpaceOnUse">
<stop/>
<stop offset="1" stop-color="white"/>
</linearGradient>
<linearGradient id="paint17_linear" x1="29.3159" y1="127.866" x2="-42.0857" y2="-53.9374" gradientUnits="userSpaceOnUse">
<stop stop-color="#97C3F9"/>
<stop offset="1" stop-color="#93C1F9"/>
</linearGradient>
<linearGradient id="paint18_linear" x1="55.5204" y1="117.575" x2="-15.8811" y2="-64.2288" gradientUnits="userSpaceOnUse">
<stop/>
<stop offset="1" stop-color="white"/>
</linearGradient>
<linearGradient id="paint19_linear" x1="55.5204" y1="117.575" x2="-15.8811" y2="-64.2288" gradientUnits="userSpaceOnUse">
<stop stop-color="#97C3F9"/>
<stop offset="1" stop-color="#93C1F9"/>
</linearGradient>
<linearGradient id="paint20_linear" x1="81.7239" y1="107.283" x2="10.3223" y2="-74.5205" gradientUnits="userSpaceOnUse">
<stop/>
<stop offset="1" stop-color="white"/>
</linearGradient>
<linearGradient id="paint21_linear" x1="81.7239" y1="107.283" x2="10.3223" y2="-74.5205" gradientUnits="userSpaceOnUse">
<stop stop-color="#97C3F9"/>
<stop offset="1" stop-color="#93C1F9"/>
</linearGradient>
<linearGradient id="paint22_linear" x1="107.928" y1="96.9919" x2="36.5268" y2="-84.8119" gradientUnits="userSpaceOnUse">
<stop/>
<stop offset="1" stop-color="white"/>
</linearGradient>
<linearGradient id="paint23_linear" x1="107.928" y1="96.9919" x2="36.5268" y2="-84.8119" gradientUnits="userSpaceOnUse">
<stop stop-color="#97C3F9"/>
<stop offset="1" stop-color="#93C1F9"/>
</linearGradient>
<linearGradient id="paint24_linear" x1="20.3736" y1="131.378" x2="-51.0281" y2="-50.4254" gradientUnits="userSpaceOnUse">
<stop/>
<stop offset="1" stop-color="white"/>
</linearGradient>
<linearGradient id="paint25_linear" x1="20.3736" y1="131.378" x2="-51.0281" y2="-50.4254" gradientUnits="userSpaceOnUse">
<stop stop-color="#97C3F9"/>
<stop offset="1" stop-color="#93C1F9"/>
</linearGradient>
<linearGradient id="paint26_linear" x1="46.578" y1="121.087" x2="-24.8235" y2="-60.7168" gradientUnits="userSpaceOnUse">
<stop/>
<stop offset="1" stop-color="white"/>
</linearGradient>
<linearGradient id="paint27_linear" x1="46.578" y1="121.087" x2="-24.8235" y2="-60.7168" gradientUnits="userSpaceOnUse">
<stop stop-color="#97C3F9"/>
<stop offset="1" stop-color="#93C1F9"/>
</linearGradient>
<linearGradient id="paint28_linear" x1="72.7816" y1="110.795" x2="1.37995" y2="-71.0084" gradientUnits="userSpaceOnUse">
<stop/>
<stop offset="1" stop-color="white"/>
</linearGradient>
<linearGradient id="paint29_linear" x1="72.7816" y1="110.795" x2="1.37995" y2="-71.0084" gradientUnits="userSpaceOnUse">
<stop stop-color="#97C3F9"/>
<stop offset="1" stop-color="#93C1F9"/>
</linearGradient>
<linearGradient id="paint30_linear" x1="98.9861" y1="100.504" x2="27.5845" y2="-81.3" gradientUnits="userSpaceOnUse">
<stop/>
<stop offset="1" stop-color="white"/>
</linearGradient>
<linearGradient id="paint31_linear" x1="98.9861" y1="100.504" x2="27.5845" y2="-81.3" gradientUnits="userSpaceOnUse">
<stop stop-color="#97C3F9"/>
<stop offset="1" stop-color="#93C1F9"/>
</linearGradient>
</defs>
</svg>
