<svg width="83" height="86" viewBox="0 0 83 86" fill="none" xmlns="http://www.w3.org/2000/svg">
<g opacity="0.3">
<mask id="mask0" mask-type="alpha" maskUnits="userSpaceOnUse" x="0" y="-3" width="11" height="11">
<path d="M5.22838 7.59581C8.11594 7.59581 10.4568 5.26214 10.4568 2.38339C10.4568 -0.495364 8.11594 -2.82904 5.22838 -2.82904C2.34082 -2.82904 0 -0.495364 0 2.38339C0 5.26214 2.34082 7.59581 5.22838 7.59581Z" fill="url(#paint0_linear)"/>
</mask>
<g mask="url(#mask0)">
<path d="M5.22838 7.59581C8.11594 7.59581 10.4568 5.26214 10.4568 2.38339C10.4568 -0.495364 8.11594 -2.82904 5.22838 -2.82904C2.34082 -2.82904 0 -0.495364 0 2.38339C0 5.26214 2.34082 7.59581 5.22838 7.59581Z" fill="url(#paint1_linear)"/>
</g>
<mask id="mask1" mask-type="alpha" maskUnits="userSpaceOnUse" x="30" y="-3" width="11" height="11">
<path d="M35.5096 7.59581C38.3972 7.59581 40.738 5.26214 40.738 2.38339C40.738 -0.495364 38.3972 -2.82904 35.5096 -2.82904C32.6221 -2.82904 30.2812 -0.495364 30.2812 2.38339C30.2812 5.26214 32.6221 7.59581 35.5096 7.59581Z" fill="url(#paint2_linear)"/>
</mask>
<g mask="url(#mask1)">
<path d="M35.5096 7.59581C38.3972 7.59581 40.738 5.26214 40.738 2.38339C40.738 -0.495364 38.3972 -2.82904 35.5096 -2.82904C32.6221 -2.82904 30.2812 -0.495364 30.2812 2.38339C30.2812 5.26214 32.6221 7.59581 35.5096 7.59581Z" fill="url(#paint3_linear)"/>
</g>
<mask id="mask2" mask-type="alpha" maskUnits="userSpaceOnUse" x="60" y="-3" width="12" height="11">
<path d="M65.7909 7.59581C68.6784 7.59581 71.0193 5.26214 71.0193 2.38339C71.0193 -0.495364 68.6784 -2.82904 65.7909 -2.82904C62.9033 -2.82904 60.5625 -0.495364 60.5625 2.38339C60.5625 5.26214 62.9033 7.59581 65.7909 7.59581Z" fill="url(#paint4_linear)"/>
</mask>
<g mask="url(#mask2)">
<path d="M65.7909 7.59581C68.6784 7.59581 71.0193 5.26214 71.0193 2.38339C71.0193 -0.495364 68.6784 -2.82904 65.7909 -2.82904C62.9033 -2.82904 60.5625 -0.495364 60.5625 2.38339C60.5625 5.26214 62.9033 7.59581 65.7909 7.59581Z" fill="url(#paint5_linear)"/>
</g>
<mask id="mask3" mask-type="alpha" maskUnits="userSpaceOnUse" x="0" y="23" width="11" height="11">
<path d="M5.22838 33.7125C8.11594 33.7125 10.4568 31.3788 10.4568 28.5C10.4568 25.6212 8.11594 23.2875 5.22838 23.2875C2.34082 23.2875 0 25.6212 0 28.5C0 31.3788 2.34082 33.7125 5.22838 33.7125Z" fill="url(#paint6_linear)"/>
</mask>
<g mask="url(#mask3)">
<path d="M5.22838 33.7125C8.11594 33.7125 10.4568 31.3788 10.4568 28.5C10.4568 25.6212 8.11594 23.2875 5.22838 23.2875C2.34082 23.2875 0 25.6212 0 28.5C0 31.3788 2.34082 33.7125 5.22838 33.7125Z" fill="url(#paint7_linear)"/>
</g>
<mask id="mask4" mask-type="alpha" maskUnits="userSpaceOnUse" x="30" y="23" width="11" height="11">
<path d="M35.5096 33.7125C38.3972 33.7125 40.738 31.3788 40.738 28.5C40.738 25.6212 38.3972 23.2875 35.5096 23.2875C32.6221 23.2875 30.2812 25.6212 30.2812 28.5C30.2812 31.3788 32.6221 33.7125 35.5096 33.7125Z" fill="url(#paint8_linear)"/>
</mask>
<g mask="url(#mask4)">
<path d="M35.5096 33.7125C38.3972 33.7125 40.738 31.3788 40.738 28.5C40.738 25.6212 38.3972 23.2875 35.5096 23.2875C32.6221 23.2875 30.2812 25.6212 30.2812 28.5C30.2812 31.3788 32.6221 33.7125 35.5096 33.7125Z" fill="url(#paint9_linear)"/>
</g>
<mask id="mask5" mask-type="alpha" maskUnits="userSpaceOnUse" x="60" y="23" width="12" height="11">
<path d="M65.7909 33.7125C68.6784 33.7125 71.0193 31.3788 71.0193 28.5C71.0193 25.6212 68.6784 23.2875 65.7909 23.2875C62.9033 23.2875 60.5625 25.6212 60.5625 28.5C60.5625 31.3788 62.9033 33.7125 65.7909 33.7125Z" fill="url(#paint10_linear)"/>
</mask>
<g mask="url(#mask5)">
<path d="M65.7909 33.7125C68.6784 33.7125 71.0193 31.3788 71.0193 28.5C71.0193 25.6212 68.6784 23.2875 65.7909 23.2875C62.9033 23.2875 60.5625 25.6212 60.5625 28.5C60.5625 31.3788 62.9033 33.7125 65.7909 33.7125Z" fill="url(#paint11_linear)"/>
</g>
<mask id="mask6" mask-type="alpha" maskUnits="userSpaceOnUse" x="0" y="49" width="11" height="11">
<path d="M5.22838 59.8834C8.11594 59.8834 10.4568 57.5496 10.4568 54.6709C10.4568 51.7921 8.11594 49.4584 5.22838 49.4584C2.34082 49.4584 0 51.7921 0 54.6709C0 57.5496 2.34082 59.8834 5.22838 59.8834Z" fill="url(#paint12_linear)"/>
</mask>
<g mask="url(#mask6)">
<path d="M5.22838 59.8834C8.11594 59.8834 10.4568 57.5496 10.4568 54.6709C10.4568 51.7921 8.11594 49.4584 5.22838 49.4584C2.34082 49.4584 0 51.7921 0 54.6709C0 57.5496 2.34082 59.8834 5.22838 59.8834Z" fill="url(#paint13_linear)"/>
</g>
<mask id="mask7" mask-type="alpha" maskUnits="userSpaceOnUse" x="30" y="49" width="11" height="11">
<path d="M35.5096 59.8834C38.3972 59.8834 40.738 57.5496 40.738 54.6709C40.738 51.7921 38.3972 49.4584 35.5096 49.4584C32.6221 49.4584 30.2812 51.7921 30.2812 54.6709C30.2812 57.5496 32.6221 59.8834 35.5096 59.8834Z" fill="url(#paint14_linear)"/>
</mask>
<g mask="url(#mask7)">
<path d="M35.5096 59.8834C38.3972 59.8834 40.738 57.5496 40.738 54.6709C40.738 51.7921 38.3972 49.4584 35.5096 49.4584C32.6221 49.4584 30.2812 51.7921 30.2812 54.6709C30.2812 57.5496 32.6221 59.8834 35.5096 59.8834Z" fill="url(#paint15_linear)"/>
</g>
<mask id="mask8" mask-type="alpha" maskUnits="userSpaceOnUse" x="60" y="49" width="12" height="11">
<path d="M65.7909 59.8834C68.6784 59.8834 71.0193 57.5496 71.0193 54.6709C71.0193 51.7921 68.6784 49.4584 65.7909 49.4584C62.9033 49.4584 60.5625 51.7921 60.5625 54.6709C60.5625 57.5496 62.9033 59.8834 65.7909 59.8834Z" fill="url(#paint16_linear)"/>
</mask>
<g mask="url(#mask8)">
<path d="M65.7909 59.8834C68.6784 59.8834 71.0193 57.5496 71.0193 54.6709C71.0193 51.7921 68.6784 49.4584 65.7909 49.4584C62.9033 49.4584 60.5625 51.7921 60.5625 54.6709C60.5625 57.5496 62.9033 59.8834 65.7909 59.8834Z" fill="url(#paint17_linear)"/>
</g>
<mask id="mask9" mask-type="alpha" maskUnits="userSpaceOnUse" x="0" y="75" width="11" height="11">
<path d="M5.22838 86C8.11594 86 10.4568 83.6663 10.4568 80.7876C10.4568 77.9088 8.11594 75.575 5.22838 75.575C2.34082 75.575 0 77.9088 0 80.7876C0 83.6663 2.34082 86 5.22838 86Z" fill="url(#paint18_linear)"/>
</mask>
<g mask="url(#mask9)">
<path d="M5.22838 86C8.11594 86 10.4568 83.6663 10.4568 80.7876C10.4568 77.9088 8.11594 75.575 5.22838 75.575C2.34082 75.575 0 77.9088 0 80.7876C0 83.6663 2.34082 86 5.22838 86Z" fill="url(#paint19_linear)"/>
</g>
<mask id="mask10" mask-type="alpha" maskUnits="userSpaceOnUse" x="30" y="75" width="11" height="11">
<path d="M35.5096 86C38.3972 86 40.738 83.6663 40.738 80.7876C40.738 77.9088 38.3972 75.575 35.5096 75.575C32.6221 75.575 30.2812 77.9088 30.2812 80.7876C30.2812 83.6663 32.6221 86 35.5096 86Z" fill="url(#paint20_linear)"/>
</mask>
<g mask="url(#mask10)">
<path d="M35.5096 86C38.3972 86 40.738 83.6663 40.738 80.7876C40.738 77.9088 38.3972 75.575 35.5096 75.575C32.6221 75.575 30.2812 77.9088 30.2812 80.7876C30.2812 83.6663 32.6221 86 35.5096 86Z" fill="url(#paint21_linear)"/>
</g>
<mask id="mask11" mask-type="alpha" maskUnits="userSpaceOnUse" x="60" y="75" width="12" height="11">
<path d="M65.7909 86C68.6784 86 71.0193 83.6663 71.0193 80.7876C71.0193 77.9088 68.6784 75.575 65.7909 75.575C62.9033 75.575 60.5625 77.9088 60.5625 80.7876C60.5625 83.6663 62.9033 86 65.7909 86Z" fill="url(#paint22_linear)"/>
</mask>
<g mask="url(#mask11)">
<path d="M65.7909 86C68.6784 86 71.0193 83.6663 71.0193 80.7876C71.0193 77.9088 68.6784 75.575 65.7909 75.575C62.9033 75.575 60.5625 77.9088 60.5625 80.7876C60.5625 83.6663 62.9033 86 65.7909 86Z" fill="url(#paint23_linear)"/>
</g>
</g>
<defs>
<linearGradient id="paint0_linear" x1="46.0538" y1="105.645" x2="-25.3466" y2="-76.1571" gradientUnits="userSpaceOnUse">
<stop/>
<stop offset="1" stop-color="white"/>
</linearGradient>
<linearGradient id="paint1_linear" x1="46.0538" y1="105.645" x2="-25.3466" y2="-76.1571" gradientUnits="userSpaceOnUse">
<stop stop-color="#97C3F9"/>
<stop offset="1" stop-color="#93C1F9"/>
</linearGradient>
<linearGradient id="paint2_linear" x1="72.2583" y1="95.3536" x2="0.857901" y2="-86.449" gradientUnits="userSpaceOnUse">
<stop/>
<stop offset="1" stop-color="white"/>
</linearGradient>
<linearGradient id="paint3_linear" x1="72.2583" y1="95.3536" x2="0.857901" y2="-86.449" gradientUnits="userSpaceOnUse">
<stop stop-color="#97C3F9"/>
<stop offset="1" stop-color="#93C1F9"/>
</linearGradient>
<linearGradient id="paint4_linear" x1="98.4628" y1="85.062" x2="27.0624" y2="-96.7403" gradientUnits="userSpaceOnUse">
<stop/>
<stop offset="1" stop-color="white"/>
</linearGradient>
<linearGradient id="paint5_linear" x1="98.4628" y1="85.062" x2="27.0624" y2="-96.7403" gradientUnits="userSpaceOnUse">
<stop stop-color="#97C3F9"/>
<stop offset="1" stop-color="#93C1F9"/>
</linearGradient>
<linearGradient id="paint6_linear" x1="37.1113" y1="109.158" x2="-34.2903" y2="-72.6458" gradientUnits="userSpaceOnUse">
<stop/>
<stop offset="1" stop-color="white"/>
</linearGradient>
<linearGradient id="paint7_linear" x1="37.1113" y1="109.158" x2="-34.2903" y2="-72.6458" gradientUnits="userSpaceOnUse">
<stop stop-color="#97C3F9"/>
<stop offset="1" stop-color="#93C1F9"/>
</linearGradient>
<linearGradient id="paint8_linear" x1="63.3159" y1="98.8664" x2="-8.08572" y2="-82.9374" gradientUnits="userSpaceOnUse">
<stop/>
<stop offset="1" stop-color="white"/>
</linearGradient>
<linearGradient id="paint9_linear" x1="63.3159" y1="98.8664" x2="-8.08572" y2="-82.9374" gradientUnits="userSpaceOnUse">
<stop stop-color="#97C3F9"/>
<stop offset="1" stop-color="#93C1F9"/>
</linearGradient>
<linearGradient id="paint10_linear" x1="89.5204" y1="88.5749" x2="18.1189" y2="-93.2288" gradientUnits="userSpaceOnUse">
<stop/>
<stop offset="1" stop-color="white"/>
</linearGradient>
<linearGradient id="paint11_linear" x1="89.5204" y1="88.5749" x2="18.1189" y2="-93.2288" gradientUnits="userSpaceOnUse">
<stop stop-color="#97C3F9"/>
<stop offset="1" stop-color="#93C1F9"/>
</linearGradient>
<linearGradient id="paint12_linear" x1="28.169" y1="112.67" x2="-43.2327" y2="-69.1338" gradientUnits="userSpaceOnUse">
<stop/>
<stop offset="1" stop-color="white"/>
</linearGradient>
<linearGradient id="paint13_linear" x1="28.169" y1="112.67" x2="-43.2327" y2="-69.1338" gradientUnits="userSpaceOnUse">
<stop stop-color="#97C3F9"/>
<stop offset="1" stop-color="#93C1F9"/>
</linearGradient>
<linearGradient id="paint14_linear" x1="54.3736" y1="102.379" x2="-17.0281" y2="-79.4253" gradientUnits="userSpaceOnUse">
<stop/>
<stop offset="1" stop-color="white"/>
</linearGradient>
<linearGradient id="paint15_linear" x1="54.3736" y1="102.379" x2="-17.0281" y2="-79.4253" gradientUnits="userSpaceOnUse">
<stop stop-color="#97C3F9"/>
<stop offset="1" stop-color="#93C1F9"/>
</linearGradient>
<linearGradient id="paint16_linear" x1="80.578" y1="92.0868" x2="9.17646" y2="-89.7168" gradientUnits="userSpaceOnUse">
<stop/>
<stop offset="1" stop-color="white"/>
</linearGradient>
<linearGradient id="paint17_linear" x1="80.578" y1="92.0868" x2="9.17646" y2="-89.7168" gradientUnits="userSpaceOnUse">
<stop stop-color="#97C3F9"/>
<stop offset="1" stop-color="#93C1F9"/>
</linearGradient>
<linearGradient id="paint18_linear" x1="19.2266" y1="116.182" x2="-52.1751" y2="-65.6219" gradientUnits="userSpaceOnUse">
<stop/>
<stop offset="1" stop-color="white"/>
</linearGradient>
<linearGradient id="paint19_linear" x1="19.2266" y1="116.182" x2="-52.1751" y2="-65.6219" gradientUnits="userSpaceOnUse">
<stop stop-color="#97C3F9"/>
<stop offset="1" stop-color="#93C1F9"/>
</linearGradient>
<linearGradient id="paint20_linear" x1="45.4312" y1="105.89" x2="-25.9705" y2="-75.9134" gradientUnits="userSpaceOnUse">
<stop/>
<stop offset="1" stop-color="white"/>
</linearGradient>
<linearGradient id="paint21_linear" x1="45.4312" y1="105.89" x2="-25.9705" y2="-75.9134" gradientUnits="userSpaceOnUse">
<stop stop-color="#97C3F9"/>
<stop offset="1" stop-color="#93C1F9"/>
</linearGradient>
<linearGradient id="paint22_linear" x1="71.6357" y1="95.5989" x2="0.234115" y2="-86.2047" gradientUnits="userSpaceOnUse">
<stop/>
<stop offset="1" stop-color="white"/>
</linearGradient>
<linearGradient id="paint23_linear" x1="71.6357" y1="95.5989" x2="0.234115" y2="-86.2047" gradientUnits="userSpaceOnUse">
<stop stop-color="#97C3F9"/>
<stop offset="1" stop-color="#93C1F9"/>
</linearGradient>
</defs>
</svg>
