<svg width="32" height="27" viewBox="0 0 32 27" fill="none" xmlns="http://www.w3.org/2000/svg">
<path d="M29.8154 7.86456L27.8167 10.8708C28.7806 12.7933 29.2525 14.9249 29.1901 17.0746C29.1277 19.2243 28.5329 21.325 27.4592 23.1883H4.93666C3.54106 20.7672 2.96277 17.9609 3.28751 15.1853C3.61226 12.4097 4.82277 9.81265 6.73956 7.77913C8.65636 5.7456 11.1774 4.38388 13.929 3.89581C16.6806 3.40775 19.5162 3.81934 22.0154 5.06956L25.0217 3.07081C21.9609 1.10816 18.3304 0.22869 14.7109 0.573079C11.0913 0.917467 7.69176 2.46581 5.05609 4.97045C2.42042 7.47509 0.700875 10.7913 0.172515 14.3886C-0.355844 17.986 0.337506 21.6566 2.14166 24.8133C2.42524 25.3045 2.83243 25.7129 3.32276 25.998C3.81309 26.2831 4.36949 26.4349 4.93666 26.4383H27.4429C28.0156 26.4406 28.5787 26.2915 29.0752 26.0061C29.5718 25.7208 29.9841 25.3093 30.2704 24.8133C31.7676 22.2197 32.519 19.2627 32.4416 16.269C32.3642 13.2752 31.461 10.3611 29.8317 7.84831L29.8154 7.86456ZM13.9067 18.9796C14.2085 19.2817 14.5669 19.5214 14.9615 19.685C15.356 19.8486 15.7789 19.9327 16.206 19.9327C16.6331 19.9327 17.056 19.8486 17.4506 19.685C17.8451 19.5214 18.2036 19.2817 18.5054 18.9796L27.7029 5.18331L13.9067 14.3808C13.6045 14.6826 13.3648 15.0411 13.2012 15.4356C13.0377 15.8302 12.9535 16.2531 12.9535 16.6802C12.9535 17.1073 13.0377 17.5302 13.2012 17.9247C13.3648 18.3193 13.6045 18.6777 13.9067 18.9796Z" fill="#EE4248"/>
</svg>
