<svg width="30" height="31" viewBox="0 0 30 31" fill="none" xmlns="http://www.w3.org/2000/svg">
<path fill-rule="evenodd" clip-rule="evenodd" d="M17.2367 8.27151C16.7729 8.59308 16.2497 8.81905 15.6976 8.93623C15.1456 9.05342 14.5757 9.05949 14.0212 8.95407C13.4668 8.84865 12.9389 8.63385 12.4684 8.32223C11.9979 8.0106 11.5941 7.60838 11.2807 7.13904C10.9673 6.6697 10.7505 6.14263 10.643 5.58861C10.5354 5.03458 10.5393 4.46468 10.6544 3.91218C10.7695 3.35967 10.9935 2.83562 11.3133 2.3706C11.6331 1.90559 12.0423 1.50893 12.517 1.20376C13.4544 0.584661 14.5986 0.361813 15.6998 0.583931C16.8009 0.806048 17.7693 1.45506 18.3933 2.38911C19.0173 3.32315 19.2462 4.46625 19.0298 5.56853C18.8135 6.67081 18.1696 7.64262 17.2388 8.27151H17.2367ZM16.0573 2.97176C15.8259 2.80528 15.5633 2.68706 15.2853 2.62415C15.0072 2.56124 14.7193 2.55493 14.4388 2.60558C14.1583 2.65622 13.8908 2.76281 13.6523 2.91897C13.4138 3.07514 13.2091 3.2777 13.0505 3.5146C12.8919 3.75149 12.7826 4.01788 12.7291 4.29789C12.6756 4.57791 12.679 4.86583 12.739 5.14451C12.7991 5.42319 12.9146 5.68694 13.0788 5.92004C13.2429 6.15315 13.4522 6.35086 13.6943 6.50139C14.162 6.78552 14.7214 6.87824 15.2558 6.76023C15.7902 6.64222 16.2585 6.32258 16.563 5.86789C16.8676 5.4132 16.985 4.85852 16.8908 4.31941C16.7966 3.7803 16.498 3.29833 16.0573 2.97389V2.97176ZM21.6036 3.03551C22.2164 2.62326 22.9539 2.43762 23.6889 2.51054C24.4239 2.58346 25.1105 2.91038 25.6304 3.43501C26.0009 3.80848 26.2741 4.26715 26.426 4.77079C26.578 5.27443 26.604 5.80766 26.5018 6.32371C26.3997 6.83975 26.1724 7.32284 25.8401 7.73061C25.5077 8.13838 25.0804 8.45837 24.5956 8.66251C24.0133 8.90598 23.3715 8.97011 22.7526 8.84669C22.1336 8.72328 21.5656 8.41794 21.1212 7.96976C20.7872 7.63405 20.5315 7.22865 20.3725 6.78259C20.2135 6.33653 20.155 5.86083 20.2013 5.38954C20.2476 4.91825 20.3975 4.46302 20.6403 4.05643C20.8831 3.64984 21.2127 3.30194 21.6057 3.03764L21.6036 3.03551ZM22.6236 6.45676C22.8231 6.65543 23.0933 6.7667 23.3749 6.7661C23.5143 6.7658 23.6523 6.73805 23.7809 6.68443C23.9096 6.63081 24.0265 6.55236 24.1249 6.45357C24.2232 6.35479 24.3012 6.23759 24.3543 6.10868C24.4073 5.97977 24.4345 5.84167 24.4342 5.70226C24.4339 5.56285 24.4062 5.42486 24.3525 5.29618C24.2989 5.16749 24.2205 5.05063 24.1217 4.95226C23.9238 4.75328 23.6564 4.63899 23.3758 4.63351C23.2357 4.63323 23.0968 4.66073 22.9674 4.71442C22.8379 4.76811 22.7204 4.84694 22.6216 4.94633C22.5228 5.04573 22.4447 5.16372 22.3918 5.2935C22.3388 5.42327 22.3122 5.56224 22.3133 5.70239C22.314 5.98539 22.4253 6.2569 22.6236 6.45889V6.45676ZM4.65455 24.8975H8.5008V27.0331H4.65455C3.98123 27.0271 3.3378 26.7542 2.8653 26.2745C2.39099 25.793 2.12533 25.1441 2.1258 24.4683V20.622C1.8397 20.6124 1.5585 20.545 1.29919 20.4237C1.03988 20.3025 0.807827 20.1299 0.61705 19.9165C0.414334 19.7112 0.255241 19.467 0.149338 19.1985C0.0434344 18.9301 -0.00709083 18.6431 0.000800442 18.3546V13.7179C0.00717544 12.7149 0.40455 11.7565 1.1058 11.0446C1.80493 10.3413 2.75055 9.93964 3.7408 9.93326H7.6508C7.1234 10.5614 6.72612 11.288 6.48205 12.071H3.7408C3.30951 12.0834 2.89915 12.2597 2.5933 12.564C2.29287 12.8729 2.1251 13.287 2.1258 13.7179V18.4609H4.2508V24.4661C4.24587 24.524 4.25275 24.5823 4.27101 24.6375C4.28928 24.6926 4.31855 24.7435 4.35705 24.787C4.44247 24.853 4.54664 24.8902 4.65455 24.8933V24.8975ZM20.167 11.0468C19.8193 10.6957 19.4057 10.4167 18.9498 10.226C18.494 10.0353 18.0049 9.93653 17.5108 9.93539H12.2408C11.2502 9.94331 10.3029 10.3428 9.6058 11.0468C8.90455 11.7586 8.50718 12.717 8.5008 13.72V20.4733C8.4978 21.0531 8.71853 21.6118 9.11705 22.033C9.30806 22.2462 9.54016 22.4185 9.79943 22.5397C10.0587 22.661 10.3398 22.7286 10.6258 22.7385V27.6749C10.6238 28.0118 10.6885 28.3458 10.8161 28.6576C10.9438 28.9695 11.1319 29.2529 11.3696 29.4918C11.7521 29.8488 12.2344 30.0804 12.7508 30.1548H17.0008C17.5985 30.0763 18.1461 29.7797 18.5384 29.3219C18.9306 28.8642 19.1398 28.2776 19.1258 27.6749V22.7364C19.4119 22.7268 19.6931 22.6594 19.9524 22.5381C20.2117 22.4169 20.4438 22.2443 20.6346 22.0309C20.8371 21.8259 20.9961 21.582 21.102 21.314C21.2079 21.0459 21.2585 20.7592 21.2508 20.4711V13.7179C21.2523 12.7195 20.8633 11.7601 20.167 11.0446V11.0468ZM19.1258 20.5774H17.0008V27.6749C16.9987 27.7869 16.953 27.8937 16.8733 27.9724C16.837 28.0153 16.7913 28.0492 16.7396 28.0713C16.688 28.0935 16.6319 28.1032 16.5758 28.0999H13.1546C13.0435 28.0947 12.9384 28.0483 12.8598 27.9697C12.7812 27.8911 12.7347 27.7859 12.7296 27.6749V20.5774H10.6258V13.7179C10.6258 13.2865 10.7937 12.8721 11.0933 12.564C11.3992 12.2597 11.8095 12.0834 12.2408 12.071H17.5108C17.8327 12.0767 18.146 12.1762 18.4121 12.3574C18.6782 12.5386 18.8857 12.7936 19.0089 13.091C19.0898 13.2899 19.1296 13.5032 19.1258 13.7179V20.5774ZM25.0971 27.031H21.2508V24.8954H25.0758C25.1837 24.8924 25.2879 24.8552 25.3733 24.7891C25.4161 24.7473 25.4496 24.6969 25.4715 24.6413C25.4935 24.5856 25.5035 24.5259 25.5008 24.4661V18.4609H27.6258V13.7179C27.6265 13.287 27.4587 12.8729 27.1583 12.564C26.8524 12.2597 26.4421 12.0834 26.0108 12.071H23.2696C23.0256 11.288 22.6283 10.5613 22.1008 9.93326H26.0108C27.0012 9.94234 27.9481 10.3417 28.6458 11.0446C29.347 11.7565 29.7444 12.7149 29.7508 13.7179V18.3546C29.7508 18.9348 29.5319 19.4915 29.1367 19.9123C28.7414 20.3351 28.2017 20.588 27.6258 20.6199V24.4661C27.6258 25.144 27.3602 25.7921 26.8863 26.2724C26.4138 26.7521 25.7704 27.0249 25.0971 27.031ZM6.3758 2.49576C5.74346 2.49503 5.12531 2.68314 4.60057 3.036C4.07583 3.38885 3.66842 3.89037 3.43055 4.47626C3.19049 5.06195 3.12817 5.70536 3.25136 6.32623C3.37456 6.9471 3.67781 7.51797 4.1233 7.96764C4.56863 8.41678 5.13774 8.72298 5.75793 8.84712C6.37812 8.97126 7.02124 8.9077 7.60514 8.66456C8.18903 8.42142 8.68719 8.00975 9.03598 7.48212C9.38478 6.95449 9.56837 6.33486 9.5633 5.70239C9.5633 4.85239 9.22755 4.03639 8.6283 3.43501C8.33323 3.13779 7.98233 2.90181 7.59577 2.74063C7.20921 2.57944 6.79462 2.49622 6.3758 2.49576ZM6.3758 6.77126C6.23565 6.77155 6.09684 6.74405 5.96739 6.69035C5.83793 6.63666 5.72041 6.55784 5.6216 6.45844C5.5228 6.35905 5.44468 6.24105 5.39176 6.11128C5.33885 5.98151 5.31218 5.84253 5.3133 5.70239C5.31385 5.42017 5.42577 5.14959 5.62473 4.94944C5.82368 4.74928 6.0936 4.63575 6.3758 4.63351C6.65714 4.63847 6.92548 4.75287 7.12386 4.95244C7.32223 5.152 7.43503 5.42102 7.4383 5.70239C7.43775 5.9846 7.32583 6.25519 7.12688 6.45534C6.92792 6.65549 6.658 6.76902 6.3758 6.77126Z" fill="#EE4248"/>
</svg>
