<svg width="40" height="36" viewBox="0 0 40 36" fill="none" xmlns="http://www.w3.org/2000/svg">
<g filter="url(#filter0_d)">
<ellipse cx="19.5715" cy="18" rx="15.5715" ry="13.9999" fill="#EE4248"/>
</g>
<path d="M19.5716 4C10.9715 4 4 10.2679 4 18C4 25.7321 10.9715 32 19.5716 32C28.1717 32 35.1432 25.7321 35.1432 18C35.1432 10.2679 28.1717 4 19.5716 4ZM23.2601 13.6746H20.9195C20.6422 13.6746 20.334 14.0027 20.334 14.4387V15.9583H23.2617L22.8189 18.1254H20.334V24.631H17.5716V18.1254H15.0656V15.9583H17.5716V14.6837C17.5716 12.855 18.9828 11.369 20.9195 11.369H23.2601V13.6746Z" fill="white"/>
<defs>
<filter id="filter0_d" x="0" y="0" width="39.1431" height="35.9999" filterUnits="userSpaceOnUse" color-interpolation-filters="sRGB">
<feFlood flood-opacity="0" result="BackgroundImageFix"/>
<feColorMatrix in="SourceAlpha" type="matrix" values="0 0 0 0 0 0 0 0 0 0 0 0 0 0 0 0 0 0 127 0"/>
<feOffset/>
<feGaussianBlur stdDeviation="2"/>
<feColorMatrix type="matrix" values="0 0 0 0 0.0658854 0 0 0 0 0.0730469 0 0 0 0 0.1375 0 0 0 0.2 0"/>
<feBlend mode="normal" in2="BackgroundImageFix" result="effect1_dropShadow"/>
<feBlend mode="normal" in="SourceGraphic" in2="effect1_dropShadow" result="shape"/>
</filter>
</defs>
</svg>
