<svg width="36" height="36" viewBox="0 0 36 36" fill="none" xmlns="http://www.w3.org/2000/svg">
<g filter="url(#filter0_d)">
<circle cx="18" cy="18" r="13.9999" fill="#EE4248"/>
</g>
<path d="M22.375 18C22.375 19.1603 21.9141 20.2731 21.0936 21.0936C20.2731 21.9141 19.1603 22.375 18 22.375C16.8397 22.375 15.7269 21.9141 14.9064 21.0936C14.0859 20.2731 13.625 19.1603 13.625 18C13.625 17.7506 13.6512 17.5071 13.6965 17.2708H12.1667V23.0998C12.1667 23.5052 12.4948 23.8333 12.9002 23.8333H23.1012C23.2955 23.8329 23.4817 23.7555 23.619 23.618C23.7563 23.4804 23.8333 23.2941 23.8333 23.0998V17.2708H22.3035C22.3487 17.5071 22.375 17.7506 22.375 18ZM18 20.9167C18.3831 20.9166 18.7625 20.841 19.1164 20.6943C19.4703 20.5476 19.7919 20.3326 20.0627 20.0617C20.3335 19.7907 20.5483 19.469 20.6949 19.115C20.8414 18.761 20.9168 18.3817 20.9167 17.9985C20.9166 17.6154 20.841 17.2361 20.6943 16.8822C20.5476 16.5282 20.3326 16.2067 20.0617 15.9358C19.7907 15.665 19.469 15.4502 19.115 15.3037C18.761 15.1571 18.3817 15.0818 17.9985 15.0819C17.2248 15.0821 16.4828 15.3896 15.9358 15.9369C15.3889 16.4841 15.0817 17.2263 15.0819 18C15.0821 18.7737 15.3896 19.5157 15.9369 20.0627C16.4841 20.6097 17.2263 20.9169 18 20.9167ZM21.5 14.9375H23.2485C23.3647 14.9375 23.4761 14.8915 23.5584 14.8094C23.6407 14.7274 23.6871 14.6162 23.6875 14.5V12.7515C23.6875 12.635 23.6413 12.5234 23.5589 12.4411C23.4766 12.3587 23.365 12.3125 23.2485 12.3125H21.5C21.3836 12.3125 21.2719 12.3587 21.1896 12.4411C21.1073 12.5234 21.061 12.635 21.061 12.7515V14.5C21.0625 14.7406 21.2594 14.9375 21.5 14.9375ZM18 4C14.287 4 10.726 5.475 8.1005 8.1005C5.475 10.726 4 14.287 4 18C4 21.713 5.475 25.274 8.1005 27.8995C10.726 30.525 14.287 32 18 32C19.8385 32 21.659 31.6379 23.3576 30.9343C25.0561 30.2307 26.5995 29.1995 27.8995 27.8995C29.1995 26.5995 30.2307 25.0561 30.9343 23.3576C31.6379 21.659 32 19.8385 32 18C32 16.1615 31.6379 14.341 30.9343 12.6424C30.2307 10.9439 29.1995 9.40052 27.8995 8.1005C26.5995 6.80048 25.0561 5.76925 23.3576 5.06569C21.659 4.36212 19.8385 4 18 4ZM25.2917 23.6715C25.2917 24.5625 24.5625 25.2917 23.6715 25.2917H12.3285C11.4375 25.2917 10.7083 24.5625 10.7083 23.6715V12.3285C10.7083 11.4375 11.4375 10.7083 12.3285 10.7083H23.6715C24.5625 10.7083 25.2917 11.4375 25.2917 12.3285V23.6715Z" fill="white"/>
<defs>
<filter id="filter0_d" x="0" y="0" width="35.9999" height="35.9999" filterUnits="userSpaceOnUse" color-interpolation-filters="sRGB">
<feFlood flood-opacity="0" result="BackgroundImageFix"/>
<feColorMatrix in="SourceAlpha" type="matrix" values="0 0 0 0 0 0 0 0 0 0 0 0 0 0 0 0 0 0 127 0"/>
<feOffset/>
<feGaussianBlur stdDeviation="2"/>
<feColorMatrix type="matrix" values="0 0 0 0 0.0658854 0 0 0 0 0.0730469 0 0 0 0 0.1375 0 0 0 0.2 0"/>
<feBlend mode="normal" in2="BackgroundImageFix" result="effect1_dropShadow"/>
<feBlend mode="normal" in="SourceGraphic" in2="effect1_dropShadow" result="shape"/>
</filter>
</defs>
</svg>
