<svg width="36" height="36" viewBox="0 0 36 36" fill="none" xmlns="http://www.w3.org/2000/svg">
<g filter="url(#filter0_d)">
<circle cx="18" cy="18" r="13.9999" fill="#EE4248"/>
</g>
<path d="M18 4C10.2679 4 4 10.2679 4 18C4 25.7321 10.2679 32 18 32C25.7321 32 32 25.7321 32 18C32 10.2679 25.7321 4 18 4ZM23.6948 15.4683C23.7006 15.5879 23.7021 15.7075 23.7021 15.8242C23.7021 19.47 20.9298 23.6715 15.8577 23.6715C14.359 23.674 12.8914 23.2435 11.6315 22.4319C11.8458 22.4581 12.066 22.4683 12.2892 22.4683C13.5813 22.4683 14.7698 22.0294 15.7133 21.2885C15.1383 21.2773 14.5812 21.0868 14.1195 20.7439C13.6579 20.4009 13.3147 19.9225 13.1379 19.3752C13.5509 19.4537 13.9762 19.4373 14.3819 19.3271C13.7578 19.2009 13.1965 18.8627 12.7933 18.3699C12.3901 17.8771 12.1697 17.2601 12.1696 16.6233V16.5898C12.5415 16.7954 12.9673 16.9208 13.4194 16.9354C12.8343 16.5459 12.4201 15.9476 12.2615 15.2629C12.1029 14.5782 12.2119 13.8587 12.5662 13.2517C13.2589 14.1033 14.1227 14.8 15.1017 15.2967C16.0807 15.7934 17.153 16.0789 18.2494 16.1348C18.11 15.5432 18.17 14.922 18.42 14.368C18.67 13.814 19.0961 13.3581 19.632 13.0712C20.1678 12.7843 20.7835 12.6825 21.3832 12.7816C21.9829 12.8807 22.533 13.1751 22.9481 13.6192C23.5652 13.4971 24.1571 13.2707 24.6981 12.9498C24.4924 13.5887 24.0618 14.1313 23.4862 14.4767C24.0329 14.4108 24.5667 14.2639 25.07 14.0406C24.7003 14.5946 24.2346 15.0781 23.6948 15.4683Z" fill="white"/>
<defs>
<filter id="filter0_d" x="0" y="0" width="35.9999" height="35.9999" filterUnits="userSpaceOnUse" color-interpolation-filters="sRGB">
<feFlood flood-opacity="0" result="BackgroundImageFix"/>
<feColorMatrix in="SourceAlpha" type="matrix" values="0 0 0 0 0 0 0 0 0 0 0 0 0 0 0 0 0 0 127 0"/>
<feOffset/>
<feGaussianBlur stdDeviation="2"/>
<feColorMatrix type="matrix" values="0 0 0 0 0.0658854 0 0 0 0 0.0730469 0 0 0 0 0.1375 0 0 0 0.2 0"/>
<feBlend mode="normal" in2="BackgroundImageFix" result="effect1_dropShadow"/>
<feBlend mode="normal" in="SourceGraphic" in2="effect1_dropShadow" result="shape"/>
</filter>
</defs>
</svg>
