<svg width="543" height="549" viewBox="0 0 543 549" fill="none" xmlns="http://www.w3.org/2000/svg">
<path d="M325.289 484.777L184.803 484.116C180.785 484.1 176.81 483.292 173.104 481.74C169.398 480.187 166.035 477.919 163.206 475.067C160.377 472.214 158.137 468.831 156.616 465.113C155.094 461.394 154.32 457.412 154.338 453.394L155.836 101.194C155.883 93.084 159.145 85.324 164.907 79.6173C170.67 73.9107 178.461 70.7237 186.571 70.756L327.057 71.4039C335.172 71.4432 342.938 74.7025 348.651 80.4656C354.363 86.2287 357.554 94.0241 357.522 102.139L356.037 454.299C355.998 462.417 352.737 470.187 346.971 475.902C341.206 481.617 333.407 484.809 325.289 484.777Z" fill="#263238"/>
<path d="M326.855 83.525L299.616 83.4036C298.727 83.4176 297.85 83.607 297.035 83.9609C296.22 84.3148 295.483 84.8263 294.865 85.4659C294.248 86.1055 293.764 86.8607 293.439 87.6881C293.115 88.5156 292.957 89.3989 292.975 90.2875V95.2277C292.993 96.1163 292.835 96.9996 292.511 97.827C292.186 98.6545 291.702 99.4097 291.085 100.049C290.468 100.689 289.73 101.2 288.915 101.554C288.1 101.908 287.223 102.098 286.334 102.112L233.206 101.869C232.317 101.848 231.44 101.651 230.626 101.29C229.813 100.928 229.079 100.41 228.466 99.7637C227.854 99.1176 227.376 98.3567 227.059 97.525C226.742 96.6932 226.592 95.807 226.619 94.9173V89.977C226.646 89.0873 226.497 88.2011 226.18 87.3693C225.863 86.5376 225.385 85.7767 224.772 85.1306C224.16 84.4845 223.426 83.9659 222.613 83.6046C221.799 83.2433 220.922 83.0466 220.032 83.0256H210.449L186.652 82.9041C183.837 82.8917 181.048 83.4338 178.442 84.4995C175.837 85.5652 173.467 87.1337 171.468 89.1153C169.469 91.0969 167.879 93.4529 166.791 96.0488C165.702 98.6446 165.135 101.429 165.123 104.244L163.665 448.009C163.644 453.693 165.879 459.153 169.88 463.189C173.882 467.226 179.322 469.509 185.005 469.538L325.208 470.186C328.023 470.198 330.813 469.656 333.418 468.59C336.023 467.525 338.393 465.956 340.392 463.975C342.392 461.993 343.981 459.637 345.069 457.041C346.158 454.445 346.725 451.661 346.737 448.846L348.195 105.081C348.209 102.265 347.668 99.4727 346.604 96.8651C345.539 94.2574 343.971 91.885 341.989 89.8833C340.008 87.8816 337.651 86.2899 335.054 85.1989C332.458 84.108 329.671 83.5392 326.855 83.525Z" fill="white"/>
<path d="M249.795 426.777C249.795 427.359 249.623 427.927 249.299 428.411C248.976 428.895 248.516 429.272 247.979 429.495C247.441 429.718 246.849 429.776 246.279 429.663C245.708 429.549 245.184 429.269 244.772 428.857C244.36 428.446 244.08 427.921 243.967 427.351C243.853 426.78 243.911 426.188 244.134 425.651C244.357 425.113 244.734 424.653 245.218 424.33C245.702 424.007 246.271 423.834 246.853 423.834C247.632 423.838 248.378 424.149 248.929 424.7C249.481 425.251 249.792 425.997 249.795 426.777Z" fill="#455A64"/>
<path d="M260.971 426.777C260.971 427.359 260.799 427.927 260.475 428.411C260.152 428.895 259.692 429.272 259.155 429.495C258.617 429.718 258.025 429.776 257.455 429.663C256.884 429.549 256.36 429.269 255.948 428.857C255.537 428.446 255.256 427.921 255.143 427.351C255.029 426.78 255.087 426.188 255.31 425.651C255.533 425.113 255.91 424.653 256.394 424.33C256.878 424.007 257.447 423.834 258.029 423.834C258.808 423.838 259.554 424.149 260.105 424.7C260.657 425.251 260.968 425.997 260.971 426.777Z" fill="#455A64"/>
<path d="M272.148 426.777C272.148 427.359 271.975 427.927 271.652 428.411C271.329 428.895 270.869 429.272 270.331 429.495C269.794 429.718 269.202 429.776 268.631 429.663C268.06 429.549 267.536 429.269 267.125 428.857C266.713 428.446 266.433 427.921 266.319 427.351C266.206 426.78 266.264 426.188 266.487 425.651C266.709 425.113 267.087 424.653 267.57 424.33C268.054 424.007 268.623 423.834 269.205 423.834C269.985 423.838 270.731 424.149 271.282 424.7C271.833 425.251 272.144 425.997 272.148 426.777Z" fill="#455A64"/>
<path d="M191.241 179.428C191.241 179.428 191.241 179.185 191.241 178.685C191.344 176.727 192.036 174.845 193.225 173.286C194.21 171.944 195.514 170.868 197.018 170.155C198.937 169.302 201.042 168.953 203.133 169.142H228.671L336.654 169.358H337.45L336.897 169.939L323.062 184.489L323.156 184.26V208.354C323.253 209.959 323.135 211.571 322.805 213.145C322.391 214.723 321.609 216.18 320.524 217.397C319.46 218.612 318.13 219.563 316.637 220.178C315.151 220.762 313.561 221.033 311.966 220.974H267.909L208.91 220.853H202.701C200.714 221.005 198.72 220.647 196.91 219.813C195.264 219.018 193.857 217.801 192.833 216.286C191.809 214.771 191.204 213.012 191.079 211.188C191.079 204.439 191.079 198.757 191.079 194.046C191.079 189.335 191.079 185.718 191.147 183.248C191.147 182.019 191.147 181.088 191.147 180.426C191.147 179.765 191.147 179.468 191.147 179.468C191.147 179.468 191.147 179.792 191.147 180.426C191.147 181.061 191.147 182.019 191.147 183.248C191.147 185.745 191.147 189.389 191.147 194.046C191.147 198.703 191.147 204.507 191.241 211.161C191.37 212.911 191.961 214.596 192.952 216.045C193.942 217.493 195.299 218.654 196.883 219.408C198.631 220.207 200.556 220.542 202.471 220.38H208.91L267.977 220.313H302.855H312.007C313.509 220.374 315.008 220.121 316.407 219.57C317.803 218.995 319.05 218.109 320.052 216.979C321.058 215.842 321.78 214.482 322.157 213.01C322.476 211.494 322.589 209.941 322.495 208.394V184.138L322.589 184.044L336.438 169.493L336.694 170.074L228.711 169.615L210.57 169.52H203.16C201.115 169.319 199.053 169.639 197.167 170.451C195.686 171.135 194.397 172.174 193.414 173.475C192.687 174.425 192.129 175.493 191.768 176.634C191.506 177.547 191.33 178.482 191.241 179.428Z" fill="#455A64"/>
<path d="M306.392 188.066L205.468 187.594L205.482 184.489L306.392 184.962V188.066Z" fill="#455A64"/>
<path d="M306.392 198.271L205.468 197.798L205.482 194.694L306.392 195.166V198.271Z" fill="#455A64"/>
<path d="M266.452 204.907L266.437 208.011L306.363 208.206L306.378 205.102L266.452 204.907Z" fill="#455A64"/>
<path d="M328.448 247.781V278.826C328.448 281.519 327.379 284.103 325.475 286.008C323.572 287.914 320.99 288.986 318.297 288.99H207.074C204.379 288.99 201.794 287.919 199.887 286.013C197.981 284.107 196.911 281.522 196.911 278.826V252.6L183.075 238.049L318.243 237.631C319.581 237.623 320.906 237.881 322.144 238.388C323.382 238.895 324.507 239.641 325.456 240.584C326.404 241.528 327.156 242.649 327.67 243.884C328.183 245.119 328.448 246.443 328.448 247.781Z" fill="#EE4248"/>
<path d="M213.31 256.42L314.234 255.947L314.22 252.843L213.297 253.315L213.31 256.42Z" fill="white"/>
<path d="M213.31 266.624L314.234 266.152L314.22 263.061L213.297 263.52L213.31 266.624Z" fill="white"/>
<path d="M253.202 273.279L213.276 273.474L213.291 276.579L253.218 276.383L253.202 273.279Z" fill="white"/>
<path d="M267.909 128.959C268.888 128.532 269.718 127.825 270.295 126.926C270.871 126.028 271.169 124.978 271.149 123.911C271.185 123.218 271.079 122.525 270.838 121.874C270.598 121.223 270.227 120.628 269.749 120.125C269.271 119.622 268.696 119.221 268.058 118.947C267.421 118.674 266.734 118.532 266.04 118.532C265.346 118.532 264.659 118.674 264.022 118.947C263.384 119.221 262.809 119.622 262.331 120.125C261.853 120.628 261.482 121.223 261.242 121.874C261.001 122.525 260.895 123.218 260.931 123.911C260.904 124.987 261.2 126.046 261.779 126.952C262.359 127.859 263.196 128.572 264.184 128.999C256.315 130.187 256.666 138.745 256.666 138.745L275.279 138.826C275.279 138.826 275.711 130.147 267.909 128.959Z" fill="#EE4248"/>
<path opacity="0.5" d="M267.909 128.959C268.888 128.532 269.718 127.825 270.295 126.926C270.871 126.028 271.169 124.978 271.149 123.911C271.185 123.218 271.079 122.525 270.838 121.874C270.598 121.223 270.227 120.628 269.749 120.125C269.271 119.622 268.696 119.221 268.058 118.947C267.421 118.674 266.734 118.532 266.04 118.532C265.346 118.532 264.659 118.674 264.022 118.947C263.384 119.221 262.809 119.622 262.331 120.125C261.853 120.628 261.482 121.223 261.242 121.874C261.001 122.525 260.895 123.218 260.931 123.911C260.904 124.987 261.2 126.046 261.779 126.952C262.359 127.859 263.196 128.572 264.184 128.999C256.315 130.187 256.666 138.745 256.666 138.745L275.279 138.826C275.279 138.826 275.711 130.147 267.909 128.959Z" fill="white"/>
<path d="M257.691 128.959C258.666 128.525 259.493 127.817 260.071 126.92C260.649 126.023 260.952 124.977 260.944 123.911C260.996 123.208 260.901 122.502 260.667 121.837C260.433 121.172 260.065 120.562 259.585 120.046C259.105 119.53 258.523 119.118 257.877 118.836C257.231 118.555 256.534 118.41 255.829 118.41C255.124 118.41 254.426 118.555 253.78 118.836C253.134 119.118 252.553 119.53 252.073 120.046C251.593 120.562 251.224 121.172 250.99 121.837C250.756 122.502 250.662 123.208 250.713 123.911C250.686 124.987 250.982 126.046 251.561 126.952C252.141 127.859 252.978 128.572 253.966 128.999C246.097 130.187 246.448 138.745 246.448 138.745L265.061 138.826C265.061 138.826 265.493 130.147 257.691 128.959Z" fill="#EE4248"/>
<path d="M286.154 142.607L236.118 142.38L236.09 148.589L286.126 148.816L286.154 142.607Z" fill="#EE4248"/>
<path opacity="0.3" d="M286.154 142.607L236.118 142.38L236.09 148.589L286.126 148.816L286.154 142.607Z" fill="white"/>
<path d="M193.577 318.469C193.553 318.227 193.553 317.983 193.577 317.741C193.658 317.011 193.893 316.308 194.265 315.675C194.884 314.628 195.833 313.816 196.964 313.367C198.528 312.94 200.156 312.799 201.77 312.949H232.72L336.938 313.165H337.734L337.14 313.718L323.507 328.35L323.602 328.107V337.893C323.602 338.622 323.602 339.243 323.602 340.053C323.546 341.19 323.151 342.286 322.468 343.197C321.785 344.109 320.845 344.795 319.768 345.168C319.061 345.408 318.315 345.518 317.568 345.492H303.031H271.567L218.359 345.384H200.15C199.369 345.427 198.586 345.381 197.815 345.249C196.728 345.013 195.736 344.458 194.967 343.655C194.197 342.852 193.685 341.837 193.496 340.741C193.416 340.074 193.389 339.401 193.415 338.73C193.415 336.152 193.415 333.803 193.415 331.684C193.415 327.459 193.415 324.179 193.482 321.911C193.482 320.818 193.482 319.981 193.482 319.374C193.482 318.766 193.482 318.51 193.482 318.51C193.482 318.51 193.482 318.807 193.482 319.374C193.482 319.941 193.482 320.818 193.482 321.911C193.482 324.179 193.482 327.459 193.55 331.684C193.55 333.803 193.55 336.152 193.55 338.73C193.527 339.379 193.558 340.029 193.644 340.674C193.822 341.698 194.302 342.646 195.024 343.394C195.746 344.143 196.676 344.657 197.693 344.871C198.439 344.983 199.194 345.02 199.948 344.979H207.56H218.359L271.621 344.898H317.609C318.273 344.923 318.936 344.827 319.566 344.615C320.832 344.171 321.87 343.244 322.454 342.037C322.743 341.437 322.909 340.785 322.94 340.12C322.94 339.445 322.94 338.703 322.94 338.001V328.08L323.035 327.986L336.695 313.381L336.938 313.961L232.734 313.516L201.783 313.313C200.2 313.139 198.599 313.258 197.059 313.664C196.185 314.01 195.417 314.578 194.829 315.312C194.242 316.046 193.857 316.92 193.711 317.849C193.677 318.058 193.632 318.265 193.577 318.469Z" fill="#455A64"/>
<path d="M310.914 326.649L209.99 326.19L210.003 323.086L310.927 323.558L310.914 326.649Z" fill="#455A64"/>
<path d="M269.98 333.33L269.964 336.435L310.916 336.635L310.932 333.53L269.98 333.33Z" fill="#455A64"/>
<path d="M324.897 373.838V395.097C324.897 396.529 324.328 397.902 323.316 398.915C322.303 399.927 320.93 400.496 319.498 400.496H200.636C199.204 400.496 197.83 399.927 196.818 398.915C195.805 397.902 195.236 396.529 195.236 395.097V383.475L181.59 368.871L319.498 368.439C320.93 368.439 322.303 369.008 323.316 370.02C324.328 371.033 324.897 372.406 324.897 373.838Z" fill="#EE4248"/>
<path d="M207.574 382.018L308.498 381.559L308.484 378.454L207.56 378.927L207.574 382.018Z" fill="white"/>
<path d="M207.574 392.006L308.498 391.534L308.484 388.443L207.56 388.902L207.574 392.006Z" fill="white"/>
<path d="M487.574 118.984C496.319 118.984 503.407 111.895 503.407 103.151C503.407 94.4066 496.319 87.3179 487.574 87.3179C478.83 87.3179 471.741 94.4066 471.741 103.151C471.741 111.895 478.83 118.984 487.574 118.984Z" fill="#EE4248"/>
<path opacity="0.5" d="M487.574 118.984C496.319 118.984 503.407 111.895 503.407 103.151C503.407 94.4066 496.319 87.3179 487.574 87.3179C478.83 87.3179 471.741 94.4066 471.741 103.151C471.741 111.895 478.83 118.984 487.574 118.984Z" fill="white"/>
<path d="M482.324 98.6157C482.917 98.6157 483.457 99.2501 483.511 100.114C483.565 100.978 483.12 101.72 482.513 101.747C481.905 101.774 481.379 101.113 481.325 100.249C481.271 99.3851 481.716 98.6427 482.324 98.6157Z" fill="#263238"/>
<path d="M483.795 94.6338C483.795 94.8633 482.445 94.7958 481.095 95.3087C479.745 95.8216 478.652 96.6585 478.49 96.4965C478.328 96.3345 479.151 95.1467 480.825 94.5528C482.499 93.9589 483.862 94.4313 483.795 94.6338Z" fill="#263238"/>
<path d="M495.268 101.086C495.092 101.221 494.242 100.303 492.879 100.168C491.515 100.033 490.49 100.721 490.355 100.559C490.22 100.397 490.463 100.168 490.908 99.8575C491.524 99.4712 492.25 99.3003 492.973 99.3716C493.694 99.45 494.366 99.774 494.876 100.289C495.254 100.694 495.349 101.018 495.268 101.086Z" fill="#263238"/>
<path d="M496.631 98.4402C496.51 98.6292 495.281 97.9678 493.513 97.9138C491.745 97.8598 490.463 98.3997 490.355 98.1837C490.762 97.7644 491.264 97.4488 491.818 97.2633C492.372 97.0778 492.963 97.0277 493.54 97.1174C495.511 97.1849 496.766 98.2917 496.631 98.4402Z" fill="#263238"/>
<path d="M495.511 102.841C495.519 103.935 495.168 105.002 494.512 105.878C493.822 107.032 492.853 107.995 491.694 108.677C490.534 109.358 489.222 109.738 487.878 109.779C486.533 109.821 485.2 109.524 484.001 108.915C482.801 108.306 481.774 107.406 481.014 106.296C480.296 105.469 479.881 104.421 479.84 103.326C480.304 104.27 480.846 105.173 481.46 106.026C482.212 106.989 483.181 107.761 484.287 108.279C485.394 108.798 486.607 109.048 487.829 109.01C489.05 108.972 490.245 108.647 491.317 108.06C492.39 107.474 493.308 106.643 493.999 105.635C494.568 104.74 495.073 103.806 495.511 102.841Z" fill="#263238"/>
<path d="M44.5326 383.219C44.3971 387.621 42.9597 391.884 40.4019 395.469C37.8442 399.054 34.2809 401.8 30.1626 403.361C26.0442 404.921 21.5557 405.226 17.2645 404.235C12.9732 403.245 9.07178 401.005 6.05342 397.798C3.03506 394.591 1.03525 390.561 0.306795 386.218C-0.421661 381.875 0.15394 377.413 1.96083 373.396C3.76772 369.38 6.72478 365.99 10.4582 363.654C14.1917 361.318 18.5339 360.141 22.9359 360.272C25.8611 360.36 28.7403 361.023 31.4092 362.223C34.078 363.424 36.484 365.139 38.4897 367.27C40.4954 369.401 42.0614 371.906 43.0983 374.643C44.1352 377.38 44.6225 380.294 44.5326 383.219Z" fill="#EE4248"/>
<path opacity="0.5" d="M44.5326 383.219C44.3971 387.621 42.9597 391.884 40.4019 395.469C37.8442 399.054 34.2809 401.8 30.1626 403.361C26.0442 404.921 21.5557 405.226 17.2645 404.235C12.9732 403.245 9.07178 401.005 6.05342 397.798C3.03506 394.591 1.03525 390.561 0.306795 386.218C-0.421661 381.875 0.15394 377.413 1.96083 373.396C3.76772 369.38 6.72478 365.99 10.4582 363.654C14.1917 361.318 18.5339 360.141 22.9359 360.272C25.8611 360.36 28.7403 361.023 31.4092 362.223C34.078 363.424 36.484 365.139 38.4897 367.27C40.4954 369.401 42.0614 371.906 43.0983 374.643C44.1352 377.38 44.6225 380.294 44.5326 383.219Z" fill="white"/>
<path d="M17.8875 376.416C17.4937 375.902 16.915 375.563 16.2747 375.47C15.6344 375.376 14.9829 375.537 14.459 375.917C13.9521 376.258 13.5246 376.705 13.2055 377.227C12.8864 377.749 12.6833 378.333 12.6098 378.94C12.5531 378.321 12.3648 377.722 12.0575 377.182C11.7503 376.642 11.3311 376.173 10.8281 375.809C10.3223 375.403 9.68 375.208 9.0342 375.263C8.38841 375.318 7.78862 375.62 7.35912 376.106C6.88765 376.787 6.68566 377.619 6.7922 378.441C6.83765 379.265 7.10335 380.062 7.56159 380.749C8.93233 382.463 10.6126 383.906 12.5153 385.001C14.391 384.009 16.0553 382.661 17.4151 381.032C17.9112 380.374 18.2233 379.596 18.3194 378.778C18.4765 377.964 18.3223 377.121 17.8875 376.416Z" fill="#EE4248"/>
<path d="M37.4868 376.969C37.0931 376.455 36.5132 376.116 35.8719 376.025C35.2307 375.934 34.5794 376.099 34.0583 376.483C33.5476 376.821 33.1173 377.267 32.7977 377.79C32.4782 378.312 32.2773 378.898 32.2091 379.507C32.1524 378.888 31.9641 378.289 31.6568 377.749C31.3495 377.208 30.9303 376.74 30.4273 376.376C29.9229 375.967 29.2798 375.77 28.633 375.825C27.9863 375.88 27.386 376.184 26.9584 376.672C26.4845 377.353 26.2823 378.186 26.3915 379.008C26.4302 379.833 26.6965 380.632 27.1609 381.316C28.5316 383.03 30.2119 384.473 32.1146 385.568C33.9845 384.567 35.6472 383.22 37.0143 381.599C37.5109 380.937 37.823 380.154 37.9187 379.332C38.0731 378.518 37.9191 377.676 37.4868 376.969Z" fill="#EE4248"/>
<path d="M29.4957 388.024C29.2765 389.867 28.3677 391.558 26.9523 392.758C25.5368 393.957 23.7196 394.577 21.866 394.491C20.0124 394.406 18.26 393.622 16.9609 392.297C15.6619 390.972 14.9128 389.204 14.864 387.349L29.4957 388.024Z" fill="white"/>
<path d="M439.184 525.527L436.485 511.273L410.906 515.809L414.618 537.176L416.224 537C423.365 536.15 452.345 531.723 456.799 529.388C461.834 526.783 439.184 525.527 439.184 525.527Z" fill="#EE4248"/>
<path d="M457.271 527.97C457.271 528.213 447.823 530.17 435.999 532.344C424.175 534.517 414.618 536.083 414.578 535.84C414.537 535.597 424.026 533.653 435.837 531.48C447.647 529.307 457.19 527.741 457.271 527.97Z" fill="#263238"/>
<path d="M440.17 528.335C439.94 528.254 439.981 527.471 440.399 526.634C440.818 525.797 441.398 525.284 441.6 525.406C441.803 525.527 441.6 526.229 441.182 527.012C440.764 527.795 440.399 528.429 440.17 528.335Z" fill="#263238"/>
<path d="M441.978 528.996C441.735 528.996 441.695 528.092 441.978 527.106C442.261 526.121 442.882 525.473 443.098 525.581C443.314 525.689 443.098 526.486 442.815 527.39C442.531 528.294 442.221 529.037 441.978 528.996Z" fill="#263238"/>
<path d="M422.177 534.328C422.082 534.422 421.637 534.112 420.962 533.586C420.126 532.889 419.221 532.278 418.262 531.763C417.393 531.287 416.419 531.037 415.428 531.034C414.631 531.034 414.146 531.291 414.078 531.169C414.011 531.048 414.429 530.643 415.347 530.413C416.534 530.177 417.766 530.363 418.829 530.94C419.855 531.492 420.771 532.228 421.529 533.113C422.015 533.734 422.298 534.247 422.177 534.328Z" fill="#263238"/>
<path d="M439.724 525.635C439.886 525.811 439.535 526.391 438.86 526.796C438.185 527.201 437.51 527.228 437.429 526.999C437.348 526.769 437.821 526.391 438.415 526.027C439.009 525.662 439.589 525.473 439.724 525.635Z" fill="#263238"/>
<path d="M439.103 524.353C439.103 524.596 438.523 524.92 437.659 525.095C436.795 525.271 436.08 525.203 436.053 524.96C436.026 524.717 436.673 524.393 437.483 524.231C438.293 524.069 439.036 524.123 439.103 524.353Z" fill="#263238"/>
<path d="M469.959 374.823C462.036 358.828 419.572 296.954 419.572 296.954L396.909 299.329V299.194L371.546 301.975L357.562 303.514L408.193 524.65L443.207 524.015L434.784 483.103C440.575 468.593 474.346 383.678 469.959 374.823ZM433.839 384.366L421.327 417.962L407.154 349.123L433.839 384.366Z" fill="#263238"/>
<path d="M405.75 194.815C405.426 192.507 406.668 182.91 406.668 182.91C406.668 182.91 415.482 182.262 416.305 173.569C417.128 164.877 417.223 144.751 417.223 144.751L401.471 136.41L383.424 149.179L378.754 161.327L384.909 176.418L384.72 181.412V192.844L405.75 194.815Z" fill="#FFBE9D"/>
<path d="M416.049 159.329C416.043 159.551 415.972 159.767 415.844 159.948C415.715 160.129 415.536 160.269 415.329 160.348C415.121 160.427 414.895 160.443 414.678 160.393C414.462 160.344 414.265 160.231 414.113 160.069C413.961 159.908 413.86 159.704 413.824 159.485C413.787 159.266 413.817 159.041 413.908 158.839C414 158.636 414.15 158.466 414.339 158.349C414.528 158.232 414.747 158.174 414.969 158.182C415.115 158.185 415.26 158.218 415.394 158.278C415.527 158.337 415.648 158.423 415.749 158.53C415.849 158.637 415.927 158.762 415.979 158.899C416.03 159.037 416.054 159.183 416.049 159.329Z" fill="#263238"/>
<path d="M416.13 158.155C415.981 158.303 415.171 157.574 413.983 157.467C412.796 157.359 411.864 157.912 411.743 157.75C411.621 157.588 411.837 157.413 412.242 157.156C412.785 156.829 413.42 156.687 414.051 156.751C414.678 156.804 415.27 157.06 415.738 157.48C416.089 157.817 416.197 158.101 416.13 158.155Z" fill="#263238"/>
<path d="M401.93 157.966C402.109 158.097 402.245 158.278 402.321 158.486C402.397 158.694 402.409 158.92 402.357 159.135C402.305 159.35 402.19 159.545 402.026 159.695C401.863 159.845 401.659 159.943 401.44 159.977C401.221 160.011 400.997 159.98 400.796 159.886C400.595 159.793 400.427 159.642 400.311 159.453C400.196 159.263 400.14 159.044 400.149 158.823C400.159 158.601 400.233 158.388 400.364 158.209C400.451 158.09 400.56 157.99 400.686 157.913C400.812 157.837 400.951 157.786 401.097 157.763C401.242 157.741 401.391 157.747 401.534 157.782C401.676 157.816 401.811 157.879 401.93 157.966Z" fill="#263238"/>
<path d="M402.807 157.736C402.659 157.871 401.862 157.143 400.661 157.048C399.46 156.954 398.542 157.493 398.42 157.318C398.299 157.143 398.515 156.994 398.92 156.738C399.463 156.409 400.097 156.263 400.729 156.319C401.361 156.376 401.958 156.636 402.429 157.062C402.78 157.386 402.888 157.669 402.807 157.736Z" fill="#263238"/>
<path d="M406.816 168.022C407.463 167.878 408.125 167.814 408.787 167.833C409.098 167.833 409.395 167.833 409.475 167.576C409.516 167.241 409.465 166.9 409.327 166.591C409.098 165.795 408.855 164.958 408.585 164.08C407.883 161.941 407.342 159.753 406.965 157.534C407.266 158.123 407.501 158.743 407.667 159.383C408.045 160.544 408.544 162.15 409.017 163.945C409.26 164.823 409.502 165.673 409.718 166.47C409.889 166.871 409.918 167.319 409.799 167.738C409.751 167.843 409.678 167.935 409.586 168.006C409.494 168.076 409.387 168.123 409.273 168.143C409.098 168.169 408.921 168.169 408.747 168.143C408.101 168.179 407.453 168.139 406.816 168.022Z" fill="#263238"/>
<path d="M402.821 169.021C401.619 168.184 406.101 171.14 408.557 171.207C408.098 171.812 407.447 172.242 406.711 172.426C405.974 172.61 405.197 172.537 404.508 172.22C402.011 171.045 402.821 169.021 402.821 169.021Z" fill="white"/>
<path d="M406.668 182.91C402.532 182.605 398.571 181.125 395.248 178.645C395.248 178.645 397.651 185.124 406.411 185.043L406.668 182.91Z" fill="#EB996E"/>
<path d="M385.935 163.757C385.935 163.757 385.813 163.851 385.597 163.972C385.293 164.115 384.947 164.139 384.626 164.04C384.127 163.767 383.711 163.364 383.422 162.875C383.132 162.386 382.979 161.828 382.979 161.259C382.918 160.624 383.001 159.983 383.222 159.383C383.278 159.148 383.39 158.93 383.551 158.749C383.711 158.567 383.913 158.428 384.14 158.344C384.284 158.293 384.442 158.295 384.585 158.349C384.729 158.403 384.848 158.507 384.922 158.641C385.03 158.843 384.99 159.005 385.03 159.005C385.071 159.005 385.192 158.87 385.111 158.573C385.059 158.392 384.944 158.234 384.787 158.128C384.682 158.055 384.564 158.004 384.438 157.979C384.313 157.953 384.184 157.954 384.059 157.979C383.758 158.058 383.482 158.212 383.258 158.427C383.033 158.642 382.868 158.911 382.776 159.208C382.5 159.873 382.389 160.596 382.452 161.313C382.46 161.977 382.663 162.624 383.034 163.173C383.406 163.722 383.931 164.151 384.545 164.404C384.746 164.451 384.955 164.451 385.156 164.404C385.358 164.358 385.545 164.265 385.705 164.134C385.935 163.891 385.962 163.77 385.935 163.757Z" fill="#EB996E"/>
<path d="M419.477 146.196C419.001 146.355 418.507 146.451 418.006 146.479C419.647 145.618 420.995 144.288 421.88 142.659C422.526 141.534 422.867 140.259 422.867 138.961C422.867 137.663 422.526 136.388 421.88 135.262C421.183 134.174 420.11 133.38 418.865 133.031C417.621 132.683 416.292 132.804 415.131 133.373C415.578 132.444 415.672 131.385 415.397 130.391C415.121 129.398 414.494 128.539 413.633 127.974C412.737 127.443 411.733 127.12 410.696 127.028C409.659 126.937 408.614 127.08 407.639 127.447C405.696 128.196 403.875 129.234 402.24 130.525C402.118 129.826 401.83 129.168 401.4 128.604C400.97 128.04 400.411 127.588 399.77 127.285C398.481 126.687 397.038 126.503 395.64 126.759C393.609 127.107 391.734 128.07 390.269 129.519C388.803 130.967 387.818 132.831 387.447 134.858C386.809 134.204 386.015 133.726 385.139 133.468C384.263 133.211 383.336 133.183 382.447 133.388C381.557 133.593 380.735 134.023 380.06 134.637C379.385 135.252 378.879 136.029 378.592 136.896C378.598 136.959 378.598 137.022 378.592 137.085C377.783 137.436 377.103 138.03 376.648 138.785C376.264 139.43 376.028 140.152 375.956 140.898C375.883 141.645 375.977 142.398 376.23 143.105C376.747 144.492 377.692 145.679 378.929 146.493C379.403 146.826 379.822 147.231 380.171 147.694C380.438 148.098 380.601 148.562 380.644 149.044C380.522 151.959 379.037 154.713 378.309 157.574C377.31 161.543 379.51 166.956 380.779 170.843C382.047 174.73 382.493 176.242 384.963 176.553L385.341 166.105C382.641 168.319 379.037 160.706 381.4 157.669C383.762 154.632 386.272 155.671 386.704 157.588C386.872 158.325 387.083 159.05 387.339 159.761H390.038L389.741 157.48C389.741 157.48 389.188 147.343 394.034 146.682C395.299 146.413 396.618 146.656 397.705 147.357C399.266 147.985 400.958 148.222 402.632 148.045C404.359 148.045 406.681 146.074 406.681 144.36C407.67 145.513 408.923 146.411 410.332 146.978C411.742 147.544 413.268 147.762 414.78 147.613C415.562 147.531 416.329 147.345 417.061 147.06C417.974 147.313 418.942 147.289 419.842 146.992C420.768 146.691 421.579 146.111 422.163 145.332C422.595 144.724 422.676 144.266 422.595 144.225C421.706 145.094 420.644 145.766 419.477 146.196ZM379.253 145.872C378.154 145.107 377.315 144.024 376.851 142.767C376.632 142.158 376.546 141.509 376.6 140.864C376.653 140.219 376.845 139.593 377.161 139.028C377.445 138.487 377.857 138.023 378.363 137.679C377.904 140.743 379.901 143.847 380.428 147.046C380.103 146.611 379.727 146.217 379.307 145.872H379.253Z" fill="#EE4248"/>
<path d="M465.883 158.87V176.269C465.883 178.163 466.635 179.979 467.974 181.318C469.313 182.657 471.129 183.409 473.023 183.409H503.164V193.357L508.563 183.841C510.163 183.725 511.659 183.008 512.751 181.833C513.842 180.659 514.449 179.115 514.448 177.511V158.87C514.447 157.926 514.257 156.991 513.892 156.12C513.526 155.249 512.992 154.459 512.319 153.796C511.646 153.133 510.848 152.611 509.972 152.258C509.095 151.906 508.158 151.731 507.213 151.743H473.023C471.132 151.743 469.318 152.494 467.979 153.83C466.64 155.166 465.886 156.979 465.883 158.87Z" fill="#EE4248"/>
<path d="M482.283 168.494C482.283 169.076 482.11 169.645 481.787 170.129C481.464 170.613 481.004 170.99 480.466 171.213C479.929 171.436 479.337 171.494 478.766 171.38C478.195 171.267 477.671 170.986 477.26 170.575C476.848 170.163 476.568 169.639 476.454 169.068C476.341 168.498 476.399 167.906 476.622 167.368C476.844 166.831 477.222 166.371 477.705 166.048C478.189 165.724 478.758 165.552 479.34 165.552C480.121 165.552 480.869 165.862 481.421 166.414C481.973 166.965 482.283 167.714 482.283 168.494Z" fill="white"/>
<path d="M493.459 168.494C493.459 169.076 493.286 169.645 492.963 170.129C492.64 170.613 492.18 170.99 491.643 171.213C491.105 171.436 490.513 171.494 489.942 171.38C489.372 171.267 488.847 170.986 488.436 170.575C488.024 170.163 487.744 169.639 487.631 169.068C487.517 168.498 487.575 167.906 487.798 167.368C488.021 166.831 488.398 166.371 488.882 166.048C489.366 165.724 489.935 165.552 490.517 165.552C491.297 165.552 492.045 165.862 492.597 166.414C493.149 166.965 493.459 167.714 493.459 168.494Z" fill="white"/>
<path d="M504.635 168.494C504.635 169.076 504.463 169.645 504.139 170.129C503.816 170.613 503.357 170.99 502.819 171.213C502.281 171.436 501.69 171.494 501.119 171.38C500.548 171.267 500.024 170.986 499.612 170.575C499.201 170.163 498.92 169.639 498.807 169.068C498.693 168.498 498.752 167.906 498.974 167.368C499.197 166.831 499.574 166.371 500.058 166.048C500.542 165.724 501.111 165.552 501.693 165.552C502.473 165.552 503.222 165.862 503.774 166.414C504.325 166.965 504.635 167.714 504.635 168.494Z" fill="white"/>
<path d="M489.666 210.581C489.059 209.231 450.725 243.07 443.085 244.231L420.733 215.103C420.733 215.103 416.089 207.746 406.114 195.139C399.689 187.04 381.94 188.687 377.269 198.608C369.346 215.44 369.076 237.752 362.948 273.602L357.765 304.013C357.765 304.013 365.418 303.109 365.391 303.176L419.815 297.521L421.165 261.076C431.963 271.983 435.256 274.264 440.858 273.4C454.936 271.213 504.19 226.913 504.19 226.913C504.19 226.913 490.26 211.958 489.666 210.581Z" fill="#455A64"/>
<path d="M497.549 233.109C496.566 232.511 495.659 231.794 494.85 230.976C490.638 227.237 486.968 222.93 483.943 218.18C483.261 217.229 482.703 216.195 482.283 215.103C483.013 215.978 483.676 216.908 484.267 217.883C485.509 219.624 487.277 222 489.396 224.484C491.516 226.967 493.567 229.086 495.092 230.598C495.979 231.366 496.801 232.205 497.549 233.109Z" fill="#263238"/>
<path d="M440.912 255.772C441.143 251.858 441.832 247.985 442.963 244.231C442.749 248.147 442.061 252.022 440.912 255.772Z" fill="#263238"/>
<path d="M445.798 254.57C445.007 252.984 444.431 251.3 444.084 249.563C443.505 247.89 443.155 246.146 443.044 244.379C443.828 245.968 444.404 247.651 444.759 249.387C445.33 251.062 445.68 252.805 445.798 254.57Z" fill="#263238"/>
<path opacity="0.2" d="M392.265 222.837L420.597 276.396L421.232 260.509L392.265 222.837Z" fill="black"/>
<path d="M390.429 220.232C390.924 220.733 391.376 221.275 391.779 221.851L395.154 226.373C398.002 230.207 401.984 235.457 406.451 241.221L417.925 255.92L421.367 260.401C421.81 260.933 422.208 261.502 422.554 262.102C422.064 261.631 421.612 261.121 421.205 260.577C420.273 259.443 419.058 257.985 417.587 256.231C414.564 252.532 410.42 247.403 405.952 241.653C401.484 235.903 397.556 230.585 394.803 226.684C393.453 224.727 392.333 223.134 391.604 222.013C391.159 221.456 390.766 220.86 390.429 220.232Z" fill="#263238"/>
<path d="M391.321 236.969C391.09 236.447 390.922 235.898 390.821 235.336C390.551 234.27 390.2 232.744 389.782 230.868L390.2 231.071L384.626 234.081L384.248 234.283L384.126 233.865C383.924 233.136 383.708 232.366 383.478 231.583L382.506 228.087L383.006 228.29L377.512 231.381L377.175 231.57V231.192C376.855 229.527 376.666 227.839 376.608 226.144C377.096 227.769 377.457 229.43 377.688 231.111L377.296 230.922L382.695 227.696L383.073 227.467L383.195 227.899C383.505 229.019 383.843 230.193 384.18 231.394C384.41 232.177 384.626 232.947 384.828 233.676L384.329 233.473L389.957 230.544L390.295 230.355L390.362 230.733C390.713 232.609 390.997 234.162 391.159 235.241C391.285 235.808 391.34 236.389 391.321 236.969Z" fill="#263238"/>
<path d="M397.975 206.693C397.437 206.487 396.928 206.21 396.463 205.87C395.532 205.29 394.222 204.439 392.63 203.386L393.062 203.238C392.495 205.033 391.86 207.085 391.172 209.285L391.037 209.703L390.659 209.487L388.607 208.286L385.476 206.45L385.975 206.248L384.18 212.295L384.072 212.659L383.775 212.43C382.39 211.451 381.081 210.368 379.861 209.19C381.336 210.026 382.748 210.969 384.085 212.011L383.681 212.146C384.153 210.365 384.706 208.313 385.314 206.072L385.435 205.64L385.813 205.87L388.958 207.679L391.01 208.88L390.51 209.069L392.481 203.035L392.616 202.671L392.927 202.887C394.479 203.994 395.748 204.912 396.625 205.586C397.119 205.898 397.572 206.27 397.975 206.693Z" fill="#263238"/>
<path d="M417.857 217.1C417.383 216.774 416.952 216.388 416.575 215.953C415.792 215.184 414.685 214.063 413.363 212.686H413.822C412.877 214.32 411.797 216.169 410.65 218.18L410.434 218.545L410.11 218.248L408.368 216.641L405.669 214.171L406.209 214.077C405.075 216.115 404.036 217.964 403.131 219.57L402.942 219.908L402.699 219.624C401.564 218.354 400.527 217.001 399.595 215.575C400.853 216.711 402.026 217.938 403.104 219.246H402.672L405.601 213.672L405.817 213.28L406.141 213.577L408.841 216.047L410.569 217.667H410.042L413.309 212.268L413.511 211.944L413.768 212.227C415.117 213.577 416.089 214.819 416.791 215.656C417.212 216.085 417.571 216.572 417.857 217.1Z" fill="#E0E0E0"/>
<path d="M470.283 251.182C470.283 251.182 469.824 250.75 469.149 249.9C468.474 249.05 467.516 247.794 466.382 246.256H466.841L463.008 251.304L462.738 251.641L462.468 251.317L460.929 249.495L458.621 246.715H459.161L455.422 251.776L455.192 252.087L454.99 251.776C454.025 250.384 453.163 248.922 452.412 247.403C453.518 248.673 454.524 250.027 455.422 251.452H454.99C456.056 249.954 457.271 248.213 458.607 246.296L458.864 245.945L459.147 246.283L461.482 249.063L463.008 250.885H462.468L466.396 245.918L466.639 245.608L466.855 245.918C467.948 247.498 468.825 248.793 469.433 249.711C469.769 250.169 470.054 250.663 470.283 251.182Z" fill="#263238"/>
<path d="M437.821 248.456C437.336 248.178 436.883 247.848 436.471 247.47C435.607 246.796 434.379 245.81 432.908 244.609L433.353 244.501L430.789 250.278L430.627 250.669L430.276 250.413L428.345 249.063L425.416 246.904L425.943 246.755C425.052 248.915 424.242 250.804 423.527 252.573L423.378 252.937L423.108 252.667C421.831 251.557 420.644 250.347 419.558 249.05C420.939 250.029 422.243 251.112 423.459 252.289L423.041 252.384C423.702 250.656 424.472 248.672 425.308 246.512L425.47 246.094L425.821 246.35L428.764 248.483L430.681 249.833L430.154 249.981L432.773 244.204L432.935 243.853L433.218 244.096C434.649 245.365 435.823 246.404 436.633 247.147C437.443 247.889 437.861 248.402 437.821 248.456Z" fill="#E0E0E0"/>
<path d="M484.267 240.83C484.083 240.288 483.966 239.726 483.916 239.156C483.754 238.062 483.538 236.456 483.295 234.62L483.7 234.85L477.869 237.361L477.478 237.523L477.397 237.104C477.262 236.348 477.113 235.565 476.965 234.769C476.735 233.527 476.519 232.339 476.317 231.192L476.789 231.435L471.053 234.081L470.702 234.229V233.851C470.536 232.165 470.504 230.467 470.607 228.776C470.942 230.44 471.146 232.128 471.215 233.824L470.85 233.595L476.533 230.895L476.924 230.693L477.005 231.138C477.221 232.285 477.451 233.473 477.68 234.701C477.829 235.511 477.964 236.294 478.098 237.037L477.626 236.78L483.498 234.391L483.862 234.243V234.62C484.038 236.524 484.173 238.089 484.24 239.183C484.311 239.729 484.32 240.281 484.267 240.83Z" fill="#E0E0E0"/>
<path d="M419.558 226.441C419.116 226.791 418.636 227.09 418.127 227.332C417.183 227.872 415.806 228.681 414.078 229.532L414.159 229.073L418.573 233.622L418.87 233.932L418.505 234.162L416.481 235.39L413.376 237.28V236.74L417.83 241.194L418.1 241.477L417.75 241.626C416.231 242.377 414.656 243.009 413.039 243.516C414.477 242.614 415.979 241.82 417.534 241.14L417.466 241.572L412.904 237.226L412.58 236.929L412.958 236.699L416.062 234.796L418.087 233.568V234.094C416.508 232.42 415.036 230.841 413.754 229.464L413.484 229.181L413.835 229.019C415.549 228.182 416.967 227.494 417.952 227.048C418.458 226.775 418.998 226.571 419.558 226.441Z" fill="#263238"/>
<path d="M444.327 255.772C443.885 256.139 443.4 256.452 442.883 256.703C441.938 257.243 440.561 258.053 438.833 258.89L438.901 258.444L443.328 262.993L443.625 263.29L443.261 263.52L441.236 264.761L438.118 266.638L438.185 266.111L442.64 270.565L442.91 270.835L442.559 270.984C441.037 271.732 439.462 272.368 437.848 272.887C439.312 271.987 440.842 271.197 442.424 270.525L442.343 270.957L437.794 266.611L437.47 266.3L437.848 266.071L440.939 264.181L442.977 262.939L442.91 263.479L438.577 258.849L438.307 258.566L438.644 258.404C440.359 257.553 441.776 256.879 442.775 256.42C443.262 256.137 443.784 255.92 444.327 255.772Z" fill="#E0E0E0"/>
<path d="M395.181 255.38C394.955 254.851 394.787 254.299 394.682 253.733C394.412 252.667 394.061 251.142 393.642 249.279L394.061 249.468L388.432 252.505L388.054 252.721L387.946 252.303C387.73 251.56 387.514 250.791 387.298 250.008C386.961 248.807 386.623 247.632 386.313 246.512L386.812 246.715L381.332 249.806L380.995 249.995V249.617C380.685 247.954 380.495 246.272 380.428 244.582C380.919 246.202 381.28 247.858 381.508 249.536L381.116 249.347L386.515 246.121L386.893 245.905L387.015 246.323C387.325 247.443 387.663 248.618 388.014 249.819L388.648 252.114L388.149 251.898L393.777 248.969L394.115 248.793L394.196 249.158C394.547 251.034 394.816 252.586 394.992 253.666C395.123 254.228 395.186 254.803 395.181 255.38Z" fill="#E0E0E0"/>
<path d="M417.668 268.122C417.439 267.594 417.272 267.042 417.169 266.476C416.899 265.409 416.548 263.884 416.13 262.021L416.548 262.21L410.987 265.247L410.609 265.463L410.488 265.045C410.272 264.302 410.056 263.533 409.84 262.764C409.502 261.549 409.178 260.374 408.854 259.254L409.354 259.457L403.874 262.548L403.536 262.737V262.372C403.226 260.705 403.037 259.018 402.969 257.324C403.459 258.944 403.82 260.601 404.049 262.278L403.658 262.102L409.057 258.876L409.435 258.647L409.556 259.079C409.88 260.199 410.204 261.36 410.555 262.561L411.189 264.856L410.704 264.64L416.319 261.711L416.67 261.535L416.737 261.9C417.088 263.776 417.358 265.328 417.533 266.408C417.655 266.971 417.7 267.547 417.668 268.122Z" fill="#263238"/>
<path d="M384.666 296.171C384.435 295.648 384.267 295.1 384.167 294.538C383.897 293.471 383.546 291.946 383.127 290.083L383.546 290.272L377.985 293.309L377.607 293.512L377.485 293.093C377.269 292.364 377.053 291.595 376.837 290.812L375.865 287.316L376.351 287.519L370.885 290.664L370.547 290.853V290.475C370.236 288.808 370.047 287.121 369.98 285.427C370.469 287.052 370.83 288.713 371.06 290.394L370.669 290.205L376.068 286.979L376.446 286.749L376.567 287.181C376.891 288.302 377.215 289.476 377.566 290.677L378.2 292.958L377.715 292.756L383.33 289.827L383.681 289.638L383.748 290.016C384.099 291.892 384.369 293.444 384.544 294.524C384.664 295.064 384.705 295.619 384.666 296.171Z" fill="#E0E0E0"/>
<path d="M385.314 266.732C384.802 266.47 384.326 266.143 383.897 265.76C383.019 265.112 381.778 264.14 380.293 262.939L380.738 262.831L378.295 268.689L378.133 269.081L377.782 268.824C377.148 268.392 376.5 267.92 375.838 267.474L372.896 265.355L373.409 265.207L371.06 271.051L370.912 271.402L370.642 271.146C369.358 270.04 368.153 268.845 367.038 267.569C368.438 268.525 369.76 269.59 370.993 270.754L370.574 270.862C371.209 269.135 371.924 267.137 372.774 264.964L372.923 264.545L373.287 264.802L376.284 266.88L378.214 268.23L377.701 268.365L380.252 262.561L380.414 262.21L380.698 262.453C382.142 263.708 383.33 264.734 384.14 265.477C384.579 265.848 384.973 266.269 385.314 266.732Z" fill="#263238"/>
<path d="M397.084 267.528C396.679 267.925 396.225 268.27 395.734 268.554C394.83 269.162 393.507 270.012 391.887 271.024V270.565L396.625 274.79L396.936 275.087L396.585 275.33L394.655 276.68L391.685 278.772V278.246L396.531 282.403L396.814 282.66L396.49 282.835C395.023 283.688 393.494 284.428 391.914 285.049C393.287 284.046 394.731 283.143 396.234 282.349V282.781L391.375 278.732L391.037 278.448L391.402 278.192L394.358 276.086L396.288 274.736V275.276L391.645 270.97L391.361 270.7L391.685 270.511C393.332 269.553 394.695 268.77 395.667 268.244C396.108 267.947 396.584 267.707 397.084 267.528Z" fill="#263238"/>
<path d="M410.029 276.734C409.776 277.249 409.458 277.73 409.084 278.165C408.436 279.056 407.477 280.297 406.303 281.809L406.195 281.364L412.08 283.726L412.472 283.874L412.229 284.239L410.879 286.196L408.8 289.179L408.638 288.653L414.51 290.92L414.874 291.069L414.618 291.339C413.537 292.645 412.354 293.863 411.081 294.983C412.033 293.582 413.084 292.251 414.226 291.001L414.334 291.42L408.409 289.3L407.99 289.152L408.247 288.788C408.895 287.829 409.597 286.83 410.298 285.791C410.771 285.13 411.216 284.441 411.648 283.847L411.797 284.36L405.979 281.89L405.628 281.742L405.871 281.445C407.099 279.973 408.112 278.745 408.841 277.962C409.57 277.179 410.029 276.693 410.029 276.734Z" fill="#E0E0E0"/>
<path d="M402.686 298.736C402.686 298.736 402.686 298.884 402.834 299.181C402.983 299.478 403.064 299.95 403.226 300.531C403.55 301.705 404.036 303.446 404.575 305.7C405.115 307.955 405.804 310.708 406.276 313.988C406.598 315.776 406.357 317.62 405.588 319.266C404.734 321.09 403.564 322.749 402.132 324.166V323.936C405.669 340.728 410.623 364.254 416.116 390.278C421.448 415.924 426.213 439.073 429.614 455.878C431.301 464.274 432.638 471.077 433.515 475.787C433.96 478.136 434.284 479.972 434.487 481.187C434.635 481.815 434.707 482.458 434.703 483.103C434.703 483.103 434.595 482.455 434.352 481.214C434.109 479.972 433.717 478.123 433.245 475.814C432.26 471.077 430.856 464.301 429.128 455.946C425.619 439.141 420.8 415.978 415.468 390.4C410.069 364.349 405.183 340.808 401.7 324.017V323.882L401.795 323.788C404.656 320.913 406.587 317.282 405.844 314.015C405.412 310.762 404.751 307.982 404.252 305.727C403.752 303.473 403.32 301.773 403.023 300.544L402.699 299.194C402.677 299.043 402.672 298.889 402.686 298.736Z" fill="#455A64"/>
<path d="M374.259 301.975C374.259 301.975 374.475 302.272 374.678 302.893C374.966 303.766 375.139 304.674 375.191 305.592C375.414 308.676 374.484 311.733 372.581 314.169C370.678 316.606 367.938 318.249 364.892 318.78C364.002 318.946 363.095 319 362.192 318.942C361.855 318.948 361.521 318.888 361.207 318.766C361.207 318.631 362.638 318.766 364.838 318.294C367.707 317.663 370.266 316.05 372.072 313.733C373.878 311.417 374.819 308.542 374.732 305.606C374.646 304.387 374.488 303.175 374.259 301.975Z" fill="#455A64"/>
<path d="M396.868 303.419C396.868 303.419 396.868 303.217 397.192 303.041C397.394 302.924 397.618 302.849 397.849 302.819C398.081 302.788 398.316 302.804 398.542 302.866C398.891 302.952 399.206 303.14 399.447 303.408C399.688 303.675 399.842 304.008 399.892 304.364C399.957 304.811 399.872 305.266 399.649 305.659C399.426 306.051 399.078 306.358 398.661 306.53C398.243 306.702 397.781 306.73 397.346 306.609C396.911 306.488 396.529 306.225 396.261 305.862C396.04 305.581 395.902 305.244 395.861 304.889C395.821 304.534 395.879 304.175 396.031 303.851C396.585 302.758 397.475 302.731 397.448 302.812C397.421 302.893 396.801 303.136 396.504 304.027C396.416 304.267 396.394 304.525 396.439 304.777C396.484 305.028 396.595 305.263 396.76 305.457C396.961 305.684 397.224 305.848 397.517 305.927C397.809 306.006 398.119 305.998 398.407 305.903C398.677 305.773 398.902 305.564 399.051 305.304C399.201 305.044 399.268 304.744 399.244 304.445C399.225 304.194 399.132 303.954 398.975 303.757C398.819 303.559 398.607 303.413 398.366 303.338C397.871 303.205 397.346 303.233 396.868 303.419Z" fill="#455A64"/>
<path d="M425.403 306.416C424.633 306.959 423.725 307.272 422.784 307.32C420.514 307.661 418.198 307.164 416.268 305.922C414.338 304.68 412.926 302.778 412.296 300.571C411.971 299.71 411.883 298.778 412.04 297.872C412.161 297.872 412.188 298.924 412.755 300.477C413.47 302.504 414.837 304.237 416.642 305.404C418.447 306.572 420.588 307.108 422.73 306.929C424.377 306.713 425.362 306.308 425.403 306.416Z" fill="#455A64"/>
<path d="M440.223 512.785C439.784 512.906 439.329 512.961 438.874 512.947L435.202 513.15L423.054 513.73L410.906 514.364L407.221 514.513C406.773 514.577 406.319 514.577 405.871 514.513C406.307 514.365 406.762 514.283 407.221 514.27C408.071 514.162 409.327 514.027 410.879 513.892C413.97 513.609 418.262 513.298 423.027 513.055C427.792 512.812 432.071 512.704 435.175 512.691C436.728 512.691 437.983 512.691 438.86 512.691C439.317 512.659 439.776 512.691 440.223 512.785Z" fill="#455A64"/>
<path d="M378.606 317.376C378.795 317.376 389.404 361.15 402.349 415.236C415.293 469.322 425.592 513.231 425.403 513.271C425.214 513.312 414.605 469.511 401.66 415.398C388.716 361.285 378.417 317.417 378.606 317.376Z" fill="#455A64"/>
<path d="M413.147 319.117C413.239 319.206 413.321 319.306 413.39 319.414L414.051 320.292L416.562 323.734L425.659 336.435L439.09 355.332L446.986 366.522C449.686 370.409 452.385 374.769 453.101 379.898C453.816 385.028 452.318 389.981 450.765 394.422C449.213 398.863 447.512 403.182 445.947 407.245C442.788 415.344 439.792 422.66 437.187 428.72C434.581 434.781 432.381 439.654 430.843 443.001L429.02 446.848L428.534 447.833C428.413 448.049 428.359 448.171 428.345 448.157C428.368 448.035 428.409 447.917 428.467 447.806C428.575 447.536 428.723 447.199 428.899 446.78L430.586 442.893C432.057 439.505 434.19 434.605 436.728 428.531C439.265 422.457 442.221 415.168 445.339 407.016C446.892 402.966 448.498 398.66 450.104 394.193C451.71 389.725 453.114 384.933 452.412 379.993C451.71 375.053 449.051 370.787 446.419 366.913L438.563 355.71L425.254 336.665L416.332 323.828L413.943 320.319C413.687 319.941 413.484 319.644 413.336 319.401C413.187 319.158 413.133 319.117 413.147 319.117Z" fill="#455A64"/>
<path d="M481.743 211.957L511.884 189.956L513.368 192.318L483.417 214.59L481.743 211.957Z" fill="#263238"/>
<path d="M489.194 211.283C489.194 211.283 493.243 200.754 494.148 198.514C495.052 196.273 496.591 192.372 497.171 192.291C497.752 192.21 499.871 192.534 497.104 199.229C494.337 205.924 500.357 201.834 500.357 201.834L506.161 197.677C506.161 197.677 510.75 211.391 508.145 215.521C506.094 218.612 503.792 221.529 501.261 224.241L489.194 211.283Z" fill="#FFBE9D"/>
<path d="M106.663 385.797C107.055 383.516 106.191 375.174 106.191 375.174C106.191 375.174 97.4442 374.243 96.9178 365.577C96.3914 356.911 96.9178 336.908 96.9178 336.908L112.845 329.119L130.393 342.388L127.693 385.756L106.663 385.797Z" fill="#B78876"/>
<path d="M99.334 351.404C99.334 351.698 99.4506 351.979 99.6581 352.187C99.8657 352.395 100.147 352.511 100.441 352.511C100.734 352.511 101.016 352.395 101.223 352.187C101.431 351.979 101.548 351.698 101.548 351.404C101.548 351.259 101.519 351.115 101.463 350.981C101.408 350.846 101.326 350.724 101.223 350.622C101.121 350.519 100.999 350.437 100.864 350.382C100.73 350.326 100.586 350.298 100.441 350.298C100.295 350.298 100.152 350.326 100.017 350.382C99.883 350.437 99.7609 350.519 99.6581 350.622C99.5554 350.724 99.4738 350.846 99.4182 350.981C99.3626 351.115 99.334 351.259 99.334 351.404Z" fill="#263238"/>
<path d="M97.7143 350.608C97.8492 350.743 98.6726 350.055 99.8604 349.987C101.048 349.92 101.953 350.5 102.088 350.338C102.223 350.176 101.993 350.001 101.602 349.731C101.074 349.385 100.449 349.219 99.8199 349.258C99.1903 349.301 98.5904 349.542 98.1057 349.947C97.7548 350.257 97.6333 350.54 97.7143 350.608Z" fill="#263238"/>
<path d="M113.358 352.309C113.97 352.309 114.465 351.813 114.465 351.202C114.465 350.591 113.97 350.095 113.358 350.095C112.747 350.095 112.251 350.591 112.251 351.202C112.251 351.813 112.747 352.309 113.358 352.309Z" fill="#263238"/>
<path d="M110.618 350.392C110.767 350.541 111.577 349.839 112.778 349.785C113.979 349.731 114.87 350.298 114.992 350.136C115.113 349.974 114.911 349.798 114.519 349.528C113.991 349.184 113.367 349.018 112.737 349.056C112.107 349.093 111.505 349.335 111.023 349.744C110.659 350.055 110.551 350.338 110.618 350.392Z" fill="#263238"/>
<path d="M106.515 360.367C105.876 360.201 105.218 360.119 104.557 360.124C104.26 360.124 103.964 360.056 103.896 359.841C103.859 359.506 103.92 359.169 104.072 358.869L104.881 356.399C105.655 354.298 106.264 352.141 106.704 349.947C105.796 351.992 105.034 354.098 104.422 356.25C104.139 357.114 103.883 357.951 103.64 358.734C103.454 359.125 103.411 359.569 103.518 359.989C103.564 360.096 103.634 360.191 103.723 360.266C103.812 360.341 103.918 360.394 104.031 360.421C104.201 360.446 104.374 360.446 104.544 360.421C105.201 360.482 105.862 360.464 106.515 360.367Z" fill="#263238"/>
<path d="M110.47 361.501C108.722 362.607 106.738 363.287 104.679 363.485C105.118 364.092 105.748 364.532 106.468 364.736C107.189 364.939 107.957 364.893 108.648 364.605C111.199 363.539 110.47 361.501 110.47 361.501Z" fill="white"/>
<path d="M106.191 375.174C110.313 375.002 114.299 373.653 117.678 371.287C117.678 371.287 115.073 377.658 106.38 377.307L106.191 375.174Z" fill="#A36957"/>
<path d="M141.879 348.813C141.879 348.813 145.416 368.803 128.53 372.407L129.029 348.327L141.879 348.813Z" fill="#263238"/>
<path d="M141.326 344.385C140.272 340.108 138.301 336.11 135.549 332.669C137.979 333.682 139.598 334.694 139.936 334.37C140.273 334.046 139.652 333.439 138.586 332.534C137.201 331.401 135.617 330.536 133.916 329.983L133.119 329.767C134.234 329.323 135.251 328.668 136.116 327.837C137.151 326.867 137.867 325.605 138.169 324.219C138.47 322.833 138.343 321.388 137.803 320.076C137.194 318.96 136.267 318.05 135.14 317.462C134.013 316.873 132.737 316.632 131.473 316.769C130.217 316.946 129.02 317.416 127.979 318.14C126.938 318.865 126.082 319.824 125.48 320.94C125.189 321.474 124.949 322.034 124.764 322.613C124.805 321.654 124.904 320.699 125.061 319.752C125.601 316.418 126.843 313.921 126.64 313.813C125.36 315.508 124.563 317.518 124.332 319.63C124.332 319.954 124.251 320.265 124.211 320.575C123.946 319.712 123.621 318.869 123.239 318.051C122.416 316.31 121.633 315.351 121.403 315.5C120.931 315.729 122.47 319.387 123.104 324.328C121.586 323.822 120.005 323.527 118.407 323.45C115.464 323.45 110.578 322.1 103.667 327.648C101.327 329.142 99.3044 331.082 97.7144 333.358C95.4305 336.7 94.1433 340.623 94.0025 344.669C93.9607 345.884 94.0376 347.1 94.2319 348.3C94.2732 348.743 94.3872 349.176 94.5694 349.582C94.7044 349.582 94.3129 347.706 94.5694 344.696C94.7212 342.464 95.2175 340.27 96.0407 338.19C95.0124 341.789 95.2409 345.631 96.6886 349.083L112.144 346.667C111.145 343.279 111.874 337.906 112.346 335.274C115.046 347.895 125.912 353.955 125.912 353.955L142.176 351.404C141.947 349.933 141.677 345.708 141.326 344.385Z" fill="#263238"/>
<path d="M178.742 537.702C179.241 537.945 219.114 545.801 217.643 540.402C216.172 535.003 179.093 526.526 179.093 526.526L178.742 537.702Z" fill="#EE4248"/>
<path d="M196.87 534.179C197.059 534.179 197.342 535.097 197.329 536.299C197.315 537.5 197.032 538.445 196.843 538.418C196.654 538.391 196.613 537.446 196.627 536.299C196.64 535.151 196.681 534.193 196.87 534.179Z" fill="#263238"/>
<path d="M194.751 533.451C194.926 533.451 195.277 534.517 195.142 535.921C195.007 537.324 194.508 538.35 194.332 538.283C194.157 538.215 194.332 537.162 194.44 535.853C194.548 534.544 194.548 533.478 194.751 533.451Z" fill="#263238"/>
<path d="M192.173 533.234C192.362 533.234 192.632 534.287 192.659 535.637C192.686 536.987 192.456 538.067 192.267 538.053C192.078 538.04 191.984 536.973 191.957 535.651C191.93 534.328 191.984 533.248 192.173 533.234Z" fill="#263238"/>
<path d="M187.313 529.334C187.522 529.323 187.732 529.346 187.934 529.401C188.339 529.401 188.933 529.59 189.689 529.766C191.214 530.09 193.414 530.616 196.1 531.358C198.786 532.101 201.972 533.032 205.454 534.22C207.196 534.814 209.045 535.421 210.854 536.218C212.814 537.008 214.616 538.147 216.172 539.579C216.414 539.773 216.612 540.017 216.752 540.294C216.838 540.49 216.851 540.711 216.789 540.916C216.727 541.121 216.595 541.298 216.415 541.414C215.895 541.684 215.312 541.81 214.727 541.779C213.688 541.86 212.662 541.9 211.663 541.927C209.652 541.927 207.709 541.927 205.859 541.779C202.174 541.549 198.881 541.09 196.127 540.658C193.374 540.226 191.16 539.795 189.635 539.484L187.88 539.12C187.67 539.091 187.465 539.032 187.273 538.944C188.079 538.971 188.883 539.061 189.675 539.214L196.195 540.159C198.894 540.537 202.242 540.942 205.9 541.144C207.736 541.239 209.652 541.293 211.65 541.239C212.635 541.239 213.661 541.171 214.673 541.09C215.138 541.117 215.601 541.029 216.023 540.834C216.145 540.739 216.158 540.685 216.118 540.564C216.005 540.381 215.864 540.217 215.699 540.078C214.2 538.706 212.467 537.614 210.584 536.852C208.775 536.069 206.939 535.502 205.184 534.827C201.715 533.626 198.557 532.627 195.898 531.831C193.239 531.034 191.052 530.481 189.554 530.022C188.793 529.842 188.044 529.612 187.313 529.334Z" fill="#263238"/>
<path d="M208.492 535.259C208.681 535.327 208.289 536.838 208.492 538.701C208.694 540.564 209.207 542.008 209.018 542.103C208.299 541.124 207.873 539.961 207.79 538.749C207.706 537.538 207.968 536.328 208.546 535.259H208.492Z" fill="#263238"/>
<path d="M46.9352 529.806C46.3818 529.806 6.14457 535.354 9.26259 539.876C12.3806 544.397 50.2287 540.429 50.2287 540.429L46.9352 529.806Z" fill="#EE4248"/>
<path d="M30.8728 539.052C30.7108 539.133 30.1304 538.323 29.7525 537.189C29.3745 536.056 29.388 535.084 29.523 535.084C29.658 535.084 30.0494 535.934 30.4139 537.028C30.7783 538.121 31.0483 538.958 30.8728 539.052Z" fill="#263238"/>
<path d="M33.1268 539.039C32.9648 539.133 32.2764 538.202 31.939 536.838C31.6015 535.475 31.75 534.328 31.939 534.328C32.128 534.328 32.3034 535.394 32.6274 536.663C32.9513 537.932 33.3023 538.944 33.1268 539.039Z" fill="#263238"/>
<path d="M35.6239 538.404C35.4485 538.485 34.8545 537.554 34.3821 536.285C33.9097 535.016 33.7747 533.923 33.9637 533.869C34.1527 533.815 34.5846 534.814 35.0435 536.042C35.5025 537.27 35.7994 538.323 35.6239 538.404Z" fill="#263238"/>
<path d="M41.5361 540.483C41.3417 540.559 41.1369 540.604 40.9287 540.618L39.147 540.847C37.5948 541.036 35.3541 541.252 32.5735 541.428C29.793 541.603 26.4725 541.752 22.7876 541.779C20.9383 541.779 19.0081 541.779 16.9835 541.657C14.874 541.565 12.8002 541.08 10.8689 540.226C10.5725 540.122 10.3012 539.956 10.0725 539.741C9.93878 539.577 9.86572 539.372 9.86572 539.16C9.86572 538.949 9.93878 538.744 10.0725 538.58C10.4699 538.148 10.9792 537.835 11.5438 537.675C12.5022 537.257 13.447 536.892 14.3919 536.528C16.2816 535.84 18.1443 535.273 19.926 534.773C23.4894 533.788 26.7559 533.154 29.496 532.668C32.2361 532.182 34.4767 531.858 36.0155 531.655L37.7972 531.426C38.0029 531.393 38.2125 531.393 38.4181 531.426C37.6458 531.663 36.856 531.839 36.056 531.952L29.5905 533.181C26.8909 533.734 23.6244 534.422 20.142 535.421C18.3737 535.934 16.538 536.501 14.7428 537.203C13.8115 537.567 12.8666 537.932 11.9217 538.337C11.4815 538.464 11.0786 538.695 10.7474 539.012C10.6664 539.147 10.6664 539.187 10.7474 539.295C10.9163 539.435 11.1081 539.545 11.3143 539.619C13.1731 540.422 15.1629 540.88 17.1859 540.969C19.1566 541.131 21.1003 541.117 22.936 541.131C26.6075 541.131 29.9144 541.05 32.695 540.942C35.4756 540.834 37.7162 540.672 39.2685 540.577C40.0214 540.496 40.779 540.464 41.5361 540.483Z" fill="#263238"/>
<path d="M19.5478 541.833C19.3318 541.833 19.2239 540.28 18.468 538.566C17.7121 536.852 16.7133 535.664 16.8617 535.529C17.0102 535.394 18.333 536.407 19.1159 538.229C19.7173 539.33 19.8719 540.621 19.5478 541.833Z" fill="#263238"/>
<path d="M171.696 480.957H151.22L75.6317 482.914L54.0351 480.12C50.6741 479.378 48.4604 479.067 47.745 479.297C44.8441 480.506 42.3019 482.439 40.3617 484.912C32.128 494.738 37.3112 509.883 49.7022 513.258L61.3374 516.416L35.8804 524.596L44.4785 549C44.4785 549 82.4886 540.78 119.351 532.101L178.337 548.055L186.841 520.668L176.839 517.415C183.115 515.498 187.084 513.986 187.637 513.069C191.349 507.318 197.923 480.579 171.602 480.984" fill="#455A64"/>
<path opacity="0.2" d="M176.515 517.51L132.674 535.664L119.419 532.074L176.515 517.51Z" fill="black"/>
<path opacity="0.2" d="M61.5264 483.009L117.651 499.085L160.398 484.507L61.5264 483.009Z" fill="black"/>
<path d="M53.5355 547.232C52.8188 546.122 52.2172 544.941 51.7403 543.709C50.7415 541.482 49.4457 538.31 48.1769 534.854C46.9081 531.399 45.8687 528.105 45.2073 525.784C44.7802 524.534 44.4772 523.246 44.303 521.937C44.8528 523.131 45.3043 524.368 45.6528 525.635C46.4356 527.943 47.529 531.129 48.7978 534.611C50.0666 538.094 51.2949 541.239 52.1722 543.506C52.7209 544.712 53.1767 545.957 53.5355 547.232Z" fill="#263238"/>
<path d="M188.839 490.055C188.729 490.121 188.611 490.171 188.488 490.203L187.435 490.595L183.385 492.025L168.416 497.114C155.715 501.353 138.141 507.089 118.663 513.204C99.1856 519.318 81.4763 524.65 68.6398 528.429L53.4142 532.83L49.2703 533.977L48.177 534.26C48.0545 534.299 47.9274 534.322 47.7991 534.328L48.1635 534.193L49.2298 533.842L53.2792 532.56L68.4374 527.943C81.2469 524.056 98.9156 518.643 118.38 512.529C137.844 506.414 155.445 500.759 168.173 496.642L183.264 491.769L187.381 490.419L188.447 490.095C188.575 490.063 188.707 490.049 188.839 490.055Z" fill="#263238"/>
<path d="M147.967 489.069C147.695 489.225 147.405 489.347 147.103 489.434L144.592 490.352C142.406 491.135 139.193 492.241 135.279 493.578C127.396 496.277 116.476 499.841 104.396 503.715C92.3151 507.589 81.3277 511.003 73.3505 513.406C69.3011 514.607 66.1291 515.552 63.902 516.187L61.3239 516.902C61.0229 516.991 60.7162 517.058 60.406 517.105C60.6844 516.958 60.9788 516.845 61.2834 516.767L63.821 515.93L73.2695 512.934L104.234 503.053L135.171 493.105L144.552 490.095L147.117 489.299C147.391 489.192 147.676 489.115 147.967 489.069Z" fill="#263238"/>
<path d="M117.367 498.99C117.367 499.179 104.774 495.751 89.3455 491.337C73.9174 486.923 61.4723 483.238 61.5263 483.009C61.5803 482.779 74.1198 486.248 89.5344 490.662C104.949 495.076 117.421 498.801 117.367 498.99Z" fill="#263238"/>
<path d="M178.661 518.805C177.278 523.361 175.665 527.843 173.829 532.236C170.981 539.579 168.524 545.464 168.349 545.396C169.728 540.844 171.341 536.366 173.181 531.979C176.029 524.636 178.486 518.738 178.661 518.805Z" fill="#263238"/>
<path d="M173.397 530.117C169.674 529.474 165.991 528.613 162.369 527.538C158.706 526.673 155.1 525.582 151.571 524.272C155.295 524.911 158.977 525.772 162.599 526.85C166.262 527.716 169.868 528.806 173.397 530.117Z" fill="#263238"/>
<path d="M89.4402 507.737C88.7331 507.652 88.0336 507.512 87.348 507.319L81.7059 505.969C76.9547 504.754 70.3812 503.107 63.2138 500.948C57.07 499.142 51.0506 496.937 45.1941 494.347C42.9669 493.321 41.1447 492.43 39.9839 491.769C39.338 491.465 38.7232 491.099 38.1482 490.676C38.8217 490.908 39.4761 491.192 40.1054 491.526C41.3472 492.106 43.1424 492.876 45.3966 493.888C51.2855 496.335 57.3006 498.466 63.4163 500.273C70.5702 502.432 77.1166 504.147 81.8409 505.483L87.4155 507.089C88.1104 507.237 88.7887 507.454 89.4402 507.737Z" fill="#263238"/>
<path d="M130.933 384.596H129.273L129.03 378.846L106.232 380.195C106.232 380.195 106.461 382.895 106.448 384.771C92.4098 386.121 69.9088 393.329 69.3689 424.927L87.3751 425.346C85.8498 439.843 86.0253 448.495 84.554 453.934C82.0434 462.924 74.0932 481.902 75.6859 482.86C77.2787 483.819 151.166 485.182 154.689 483.265C158.212 481.349 151.801 456.58 150.194 449.858C149.182 445.566 148.966 435.739 148.939 428.14L169.618 427.209C169.618 427.209 171.116 384.474 130.933 384.596Z" fill="#EE4248"/>
<path d="M129.151 384.366C128.062 384.688 126.938 384.878 125.804 384.933C123.711 385.176 120.823 385.406 117.624 385.473C114.425 385.541 111.536 385.473 109.444 385.284C108.307 385.265 107.175 385.121 106.07 384.852C107.194 384.719 108.329 384.696 109.458 384.785C111.55 384.785 114.425 384.785 117.556 384.785C120.688 384.785 123.617 384.569 125.655 384.461C126.815 384.317 127.985 384.285 129.151 384.366Z" fill="#263238"/>
<path d="M110.375 380.006C110.578 380.006 110.726 381.113 110.726 382.477C110.726 383.84 110.578 384.96 110.375 384.96C110.173 384.96 110.024 383.853 110.024 382.477C110.024 381.1 110.119 380.006 110.375 380.006Z" fill="#263238"/>
<path d="M116.409 379.574C116.598 379.574 116.787 380.789 116.827 382.274C116.951 383.183 116.858 384.108 116.557 384.974C116.355 384.974 116.166 383.759 116.125 382.274C115.998 381.365 116.095 380.438 116.409 379.574Z" fill="#263238"/>
<path d="M122.699 379.358C122.888 379.358 123.158 380.546 123.185 382.058C123.212 383.57 123.009 384.758 122.807 384.758C122.512 383.89 122.402 382.971 122.483 382.058C122.524 380.6 122.524 379.372 122.699 379.358Z" fill="#263238"/>
<path d="M127.261 379.143C127.464 379.143 127.599 380.33 127.788 381.775C127.977 383.219 128.125 384.407 127.936 384.474C127.747 384.542 127.275 383.381 127.099 381.869C126.924 380.357 127.072 379.129 127.261 379.143Z" fill="#263238"/>
<path d="M90.2229 425.008C89.8597 422.778 89.724 420.517 89.818 418.259C89.6749 416.006 89.7744 413.743 90.1149 411.51C90.4716 413.741 90.6072 416.002 90.5199 418.259C90.6456 420.513 90.5461 422.774 90.2229 425.008Z" fill="#263238"/>
<path d="M148.169 427.263C147.623 424.868 147.297 422.428 147.197 419.974C146.872 417.536 146.786 415.072 146.941 412.617C147.808 417.45 148.219 422.353 148.169 427.263Z" fill="#263238"/>
<path d="M90.2229 425.008C89.1939 425.145 88.1537 425.176 87.1184 425.103H79.681H72.2302C71.1993 425.177 70.1636 425.145 69.1392 425.008C70.1446 424.75 71.1785 424.618 72.2167 424.617C74.1199 424.468 76.7655 424.361 79.681 424.374C82.5966 424.388 85.2422 424.482 87.1454 424.63C88.1826 424.634 89.2156 424.761 90.2229 425.008Z" fill="#263238"/>
<path d="M169.577 427.262C165.922 427.618 162.247 427.735 158.576 427.613C154.901 427.735 151.222 427.618 147.562 427.262C151.222 426.915 154.901 426.798 158.576 426.912C162.247 426.798 165.921 426.915 169.577 427.262Z" fill="#263238"/>
<path d="M168.673 427.438C168.673 427.438 174.072 477.826 158.63 482.779C143.189 487.733 112.737 464.274 112.737 464.274L121.511 446.511C121.511 446.511 141.758 460.575 146.131 457.403C150.504 454.231 148.223 427.438 148.223 427.438H168.673Z" fill="#B78876"/>
<path d="M69.625 425.008C69.625 425.008 64.1314 474.883 79.5595 479.85C94.9876 484.818 125.452 461.331 125.452 461.331L116.665 443.568C116.665 443.568 96.2969 456.593 92.072 453.3C89.6289 451.383 89.5614 425.265 89.5614 425.265C82.3805 424.954 75.7261 424.644 69.625 425.008Z" fill="#B78876"/>
<path d="M159.062 435.402L148.817 485.614C148.817 485.614 85.8632 485.128 85.2153 484.939C84.5674 484.75 78.4663 435.402 78.4663 435.402H159.062Z" fill="#263238"/>
<path d="M113.844 460.845C113.792 461.602 113.97 462.356 114.352 463.01C114.735 463.665 115.306 464.189 115.99 464.514C116.675 464.84 117.442 464.953 118.191 464.837C118.94 464.721 119.637 464.383 120.192 463.866C120.746 463.349 121.132 462.678 121.3 461.939C121.468 461.199 121.41 460.427 121.133 459.721C120.856 459.015 120.373 458.409 119.747 457.982C119.121 457.554 118.381 457.324 117.623 457.322C116.656 457.293 115.717 457.647 115.009 458.306C114.301 458.966 113.883 459.879 113.844 460.845Z" fill="white"/>
<path d="M127.072 350.675C127.642 350.323 128.291 350.117 128.96 350.077C129.629 350.037 130.298 350.164 130.906 350.446C131.682 351.072 132.193 351.969 132.337 352.957C132.518 353.756 132.508 354.586 132.309 355.381C132.109 356.176 131.726 356.913 131.189 357.532C130.629 358.13 129.881 358.517 129.07 358.627C128.259 358.738 127.434 358.566 126.735 358.14" fill="#B78876"/>
<path d="M128.692 356.763C128.692 356.655 129.124 356.588 129.623 356.21C129.953 355.996 130.22 355.698 130.395 355.347C130.571 354.996 130.649 354.604 130.622 354.212C130.584 353.825 130.445 353.455 130.221 353.138C129.996 352.821 129.692 352.568 129.34 352.403C128.773 352.133 128.341 352.147 128.328 352.039C128.314 351.931 128.76 351.728 129.515 351.917C130.009 352.064 130.448 352.354 130.774 352.752C131.101 353.15 131.302 353.636 131.349 354.149C131.397 354.662 131.291 355.177 131.043 355.628C130.796 356.08 130.419 356.447 129.961 356.682C129.178 356.979 128.692 356.912 128.692 356.763Z" fill="#A36957"/>
</svg>
