<svg width="575" height="338" viewBox="0 0 575 338" fill="none" xmlns="http://www.w3.org/2000/svg">
<path d="M66.8531 266.617C83.7556 255.565 88.0446 234.384 87.852 215.261C87.852 212.067 88.2576 208.711 86.7873 205.872C85.3171 203.033 81.7784 201.045 78.8481 202.313C76.4248 203.377 75.3095 206.105 73.9102 208.397C72.0335 211.404 69.3444 213.819 66.1535 215.362C64.0749 216.376 61.5096 216.944 59.502 215.788C56.7542 214.206 56.521 210.394 56.6123 207.22L57.1598 189.486C57.4338 186.317 57.1837 183.124 56.4196 180.036C55.4969 176.995 53.3778 174.156 50.3359 173.233C47.2941 172.31 43.4715 173.963 42.7516 177.055C42.5991 178.368 42.5381 179.689 42.5691 181.01C42.4474 182.318 41.7884 183.768 40.5412 184.052C39.2941 184.336 37.9861 183.464 37.0431 182.51C33.8086 179.225 31.6489 175.048 29.6514 170.891C27.6539 166.733 25.6666 162.495 22.7262 158.926C19.7857 155.357 15.7096 152.487 11.1063 152.122C6.50301 151.757 1.53467 154.444 0.317929 158.875C-0.898807 163.306 1.57522 167.93 4.37372 171.621C8.51925 177.1 13.4334 181.953 18.9644 186.029C20.0458 186.65 20.8989 187.603 21.3979 188.746C22.0468 190.876 19.9682 192.924 17.8288 193.573C15.4156 194.303 12.8199 193.998 10.3053 194.222C7.79072 194.445 5.05306 195.479 4.04926 197.801C2.65001 201.015 5.31669 204.473 7.96309 206.764C13.2843 211.365 19.3544 215.021 25.91 217.573C28.2522 218.475 30.7161 219.286 32.5817 220.969C34.4474 222.653 35.5323 225.542 34.3257 227.743C33.1191 229.943 30.1483 230.602 27.6742 230.085C25.2002 229.568 23.0303 228.199 20.6881 227.256C16.3079 225.502 10.5487 225.674 7.67919 229.375C6.78418 230.645 6.19962 232.108 5.97245 233.645C5.74529 235.183 5.88186 236.752 6.37119 238.227C7.38394 241.167 8.97692 243.874 11.0556 246.186C17.8854 254.675 26.8363 261.209 37.0025 265.127C47.142 268.878 56.6427 270.055 66.914 266.617" fill="#EE4248"/>
<path d="M5.01221 154.637L5.31639 154.941L6.24922 155.813C7.08066 156.564 8.27712 157.679 9.81832 159.149C14.1333 163.301 18.1294 167.771 21.7728 172.523C24.0947 175.565 26.4978 178.911 29.0123 182.602C31.5269 186.293 34.1835 190.247 36.8096 194.516C39.5927 198.957 42.1313 203.547 44.4142 208.265C45.5904 210.719 46.6347 213.284 47.6994 215.9L50.9136 223.849C55.0633 233.909 58.6382 244.197 61.6209 254.663C64.0225 263.213 65.6046 271.973 66.3459 280.823C66.8239 286.794 66.7764 292.796 66.2039 298.76C65.991 300.869 65.7882 302.501 65.6057 303.606C65.5347 304.133 65.4739 304.549 65.4232 304.864C65.4143 305.005 65.4143 305.148 65.4232 305.289C65.4768 305.156 65.5109 305.016 65.5246 304.874L65.7679 303.626C65.9809 302.521 66.2242 300.889 66.4777 298.78C67.1387 292.807 67.2474 286.785 66.8022 280.792C66.1127 271.906 64.5608 263.107 62.1684 254.521C59.2091 244.027 55.6407 233.715 51.4814 223.636L48.2672 215.677C47.2025 213.071 46.148 210.485 44.9516 208.021C42.6624 203.284 40.1065 198.68 37.2963 194.232C34.6397 189.963 31.9731 186.009 29.4382 182.318C26.9033 178.627 24.48 175.22 22.1276 172.27C18.4354 167.522 14.3664 163.08 9.96027 158.987C8.40893 157.537 7.17192 156.442 6.3202 155.722L5.30625 154.901C5.21705 154.804 5.11857 154.715 5.01221 154.637Z" fill="#263238"/>
<path d="M44.7694 207.991C44.9348 207.556 45.0505 207.104 45.1141 206.642C45.3068 205.77 45.54 204.503 45.8036 202.931C46.3309 199.778 46.919 195.408 47.5476 190.582C48.1762 185.755 48.815 181.405 49.393 178.272C49.6769 176.701 49.9202 175.443 50.1028 174.561C50.2235 174.114 50.2949 173.655 50.3157 173.192C50.1205 173.614 49.9742 174.056 49.8797 174.51C49.6363 175.372 49.322 176.63 48.9874 178.191C48.2979 181.314 47.5882 185.674 46.9595 190.5C46.3309 195.327 45.8036 199.575 45.3879 202.86C45.1851 204.351 45.0229 205.598 44.8911 206.602C44.7959 207.059 44.7551 207.525 44.7694 207.991Z" fill="#263238"/>
<path d="M3.61353 199.383C4.15284 199.51 4.70265 199.588 5.25612 199.616C6.27007 199.737 7.85182 199.9 9.73777 200.153C13.5096 200.65 18.7112 201.512 24.3893 202.708C30.0674 203.905 35.1777 205.233 38.8381 206.288C40.6733 206.795 42.1435 207.251 43.1676 207.565C43.6857 207.761 44.2225 207.904 44.7696 207.991C44.279 207.731 43.7667 207.514 43.2386 207.342C42.2246 206.967 40.7848 206.45 38.9597 205.882C35.3196 204.726 30.2195 203.347 24.511 202.13C18.8025 200.914 13.5908 200.102 9.78846 199.737C7.89238 199.535 6.34104 199.433 5.2764 199.383C4.72334 199.33 4.16658 199.33 3.61353 199.383Z" fill="#263238"/>
<path d="M61.6616 253.75C61.7842 253.601 61.8833 253.433 61.9557 253.254L62.6959 251.794C63.3448 250.526 64.2168 248.671 65.2713 246.349C67.3803 241.725 70.0875 235.246 72.9773 228.098C75.867 220.949 78.5134 214.409 80.5312 209.745C81.5451 207.474 82.3157 205.608 82.9241 204.229L83.5629 202.718C83.6454 202.546 83.71 202.366 83.7555 202.181C83.6326 202.329 83.5303 202.493 83.4513 202.668C83.2587 203.063 83.0052 203.55 82.7112 204.128C82.0724 205.395 81.2004 207.261 80.1459 209.573C78.0369 214.196 75.3296 220.726 72.4297 227.875C69.5298 235.023 66.8936 241.563 64.886 246.227L62.4931 251.723L61.8543 253.223C61.7659 253.389 61.7011 253.567 61.6616 253.75Z" fill="#263238"/>
<path d="M7.16211 234.972C7.32901 235.075 7.51003 235.154 7.6995 235.205L9.28126 235.773L15.1216 237.801C20.0494 239.515 26.8225 241.948 34.3055 244.655C41.7884 247.363 48.6021 249.725 53.5705 251.337C56.0546 252.148 58.0724 252.777 59.4716 253.183L61.0838 253.649C61.2713 253.711 61.4652 253.752 61.6618 253.771C61.4941 253.666 61.3134 253.584 61.1244 253.527L59.5426 252.97L53.7023 250.942C48.7745 249.238 42.0013 246.805 34.5083 244.098C27.0152 241.39 20.2217 239.028 15.2433 237.406C12.7591 236.605 10.7413 235.976 9.3421 235.56L7.72992 235.104C7.54766 235.034 7.35657 234.99 7.16211 234.972Z" fill="#263238"/>
<path d="M527.154 305.026C527.154 305.178 413.45 305.289 273.211 305.289C132.972 305.289 19.248 305.178 19.248 305.026C19.248 304.874 132.932 304.762 273.211 304.762C413.491 304.762 527.154 304.884 527.154 305.026Z" fill="#263238"/>
<path d="M433.496 0H88.3179C86.903 -6.27277e-07 85.5019 0.278862 84.1948 0.820645C82.8877 1.36243 81.7002 2.1565 80.7001 3.15749C79.7001 4.15848 78.9071 5.34673 78.3666 6.65435C77.826 7.96197 77.5485 9.3633 77.5498 10.7782V254.582C77.5485 255.997 77.826 257.398 78.3666 258.706C78.9071 260.013 79.7001 261.202 80.7001 262.203C81.7002 263.204 82.8877 263.998 84.1948 264.539C85.5019 265.081 86.903 265.36 88.3179 265.36H220.8C220.8 265.36 229.226 291.418 203.097 304.904H326.971C326.971 304.904 297.485 294.765 305.069 265.36H433.496C436.354 265.36 439.096 264.224 441.117 262.203C443.139 260.182 444.274 257.44 444.274 254.582V10.7782C444.274 7.91967 443.139 5.17819 441.117 3.15687C439.096 1.13556 436.354 0 433.496 0Z" fill="#263238"/>
<path d="M265.88 239.626C270.575 246.338 263.224 253.69 256.511 248.995C256.287 248.837 256.092 248.641 255.934 248.417C251.249 241.705 258.59 234.364 265.302 239.048C265.527 239.206 265.722 239.402 265.88 239.626Z" fill="#455A64"/>
<path d="M432.806 12.3194H89.0075C87.1763 12.3194 85.6919 13.8039 85.6919 15.635V216.863C85.6919 218.694 87.1763 220.179 89.0075 220.179H432.806C434.638 220.179 436.122 218.694 436.122 216.863V15.635C436.122 13.8039 434.638 12.3194 432.806 12.3194Z" fill="#E0E0E0"/>
<path d="M436.122 27.5489H85.6919V220.179H436.122V27.5489Z" fill="#FAFAFA"/>
<path d="M114.437 20.3398C114.437 20.8933 114.273 21.4343 113.966 21.8945C113.658 22.3547 113.221 22.7134 112.71 22.9252C112.198 23.137 111.636 23.1925 111.093 23.0845C110.55 22.9765 110.051 22.71 109.66 22.3186C109.269 21.9272 109.002 21.4286 108.894 20.8857C108.786 20.3429 108.842 19.7802 109.053 19.2688C109.265 18.7575 109.624 18.3204 110.084 18.0129C110.544 17.7054 111.085 17.5413 111.639 17.5413C112.381 17.5413 113.093 17.8361 113.618 18.3609C114.142 18.8857 114.437 19.5976 114.437 20.3398Z" fill="#EE4248"/>
<path d="M97.474 20.3398C97.474 20.8933 97.3098 21.4343 97.0023 21.8945C96.6948 22.3547 96.2578 22.7134 95.7464 22.9252C95.235 23.137 94.6723 23.1925 94.1295 23.0845C93.5866 22.9765 93.088 22.71 92.6966 22.3186C92.3052 21.9272 92.0387 21.4286 91.9307 20.8857C91.8227 20.3429 91.8782 19.7802 92.09 19.2688C92.3018 18.7575 92.6605 18.3204 93.1207 18.0129C93.5809 17.7054 94.122 17.5413 94.6755 17.5413C95.4177 17.5413 96.1295 17.8361 96.6543 18.3609C97.1791 18.8857 97.474 19.5976 97.474 20.3398Z" fill="#EE4248"/>
<path d="M105.616 20.3398C105.616 20.8933 105.452 21.4343 105.144 21.8945C104.837 22.3547 104.4 22.7134 103.888 22.9252C103.377 23.137 102.814 23.1925 102.272 23.0845C101.729 22.9765 101.23 22.71 100.839 22.3186C100.447 21.9272 100.181 21.4286 100.073 20.8857C99.9648 20.3429 100.02 19.7802 100.232 19.2688C100.444 18.7575 100.803 18.3204 101.263 18.0129C101.723 17.7054 102.264 17.5413 102.818 17.5413C103.56 17.5413 104.272 17.8361 104.796 18.3609C105.321 18.8857 105.616 19.5976 105.616 20.3398Z" fill="#EE4248"/>
<path d="M258.357 117.243C258.357 117.395 245.521 117.527 229.693 117.527C213.865 117.527 201.019 117.395 201.019 117.243C201.019 117.091 213.855 116.959 229.693 116.959C245.531 116.959 258.357 117.08 258.357 117.243Z" fill="#455A64"/>
<path d="M258.357 124.918C258.357 125.07 245.521 125.202 229.693 125.202C213.865 125.202 201.019 125.07 201.019 124.918C201.019 124.766 213.855 124.624 229.693 124.624C245.531 124.624 258.357 124.756 258.357 124.918Z" fill="#455A64"/>
<path d="M235.381 132.584C235.381 132.746 227.696 132.878 218.205 132.878C208.714 132.878 201.019 132.746 201.019 132.584C201.019 132.421 208.714 132.3 218.205 132.3C227.696 132.3 235.381 132.432 235.381 132.584Z" fill="#455A64"/>
<path d="M228.284 38.824H201.019V42.2816H228.284V38.824Z" fill="#455A64"/>
<path d="M260.933 49.9673H201.019V107.935H260.933V49.9673Z" fill="#E0E0E0"/>
<path d="M205.662 102.966L222.24 73.136L235.797 92.2083L244.03 82.079L256.289 102.966H205.662Z" fill="#EE4248"/>
<path d="M237.257 71.6455C239.636 71.6455 241.566 69.7162 241.566 67.3362C241.566 64.9563 239.636 63.0269 237.257 63.0269C234.877 63.0269 232.947 64.9563 232.947 67.3362C232.947 69.7162 234.877 71.6455 237.257 71.6455Z" fill="#EE4248"/>
<path d="M256.289 103.129C256.278 103.051 256.278 102.973 256.289 102.895C256.289 102.713 256.289 102.5 256.289 102.216C256.289 101.598 256.289 100.726 256.289 99.6102C256.289 97.3085 256.289 93.9828 256.228 89.7648C256.228 81.2983 256.157 69.2425 256.106 54.7633L256.35 55.0067H205.733C205.662 55.0675 206.261 54.4693 206.007 54.7329V67.7317C206.007 71.9903 206.007 76.1677 206.007 80.2235C206.007 88.3351 206.007 96.0208 206.007 103.078L205.754 102.824L242.357 102.956L252.679 103.017H255.417H256.127H255.447H252.75L242.489 103.078L205.723 103.21H205.48V102.956C205.48 95.8586 205.48 88.2236 205.48 80.1018C205.48 76.0461 205.48 71.8686 205.48 67.61V54.7836C205.226 55.0269 205.825 54.4186 205.774 54.4895H256.39H256.634V54.7329C256.583 69.2729 256.542 81.3794 256.512 89.8864C256.512 94.0842 256.461 97.3896 256.441 99.6812C256.441 100.776 256.441 101.628 256.441 102.236C256.441 102.51 256.441 102.723 256.441 102.885C256.397 102.971 256.346 103.052 256.289 103.129Z" fill="#455A64"/>
<path d="M331.402 117.243C331.402 117.395 318.565 117.527 302.727 117.527C286.889 117.527 274.063 117.395 274.063 117.243C274.063 117.091 286.889 116.959 302.727 116.959C318.565 116.959 331.402 117.08 331.402 117.243Z" fill="#455A64"/>
<path d="M331.402 124.918C331.402 125.07 318.565 125.202 302.727 125.202C286.889 125.202 274.063 125.07 274.063 124.918C274.063 124.766 286.889 124.624 302.727 124.624C318.565 124.624 331.402 124.756 331.402 124.918Z" fill="#455A64"/>
<path d="M308.426 132.584C308.426 132.746 300.73 132.878 291.239 132.878C281.749 132.878 274.083 132.746 274.083 132.584C274.083 132.421 281.769 132.3 291.26 132.3C300.75 132.3 308.426 132.432 308.426 132.584Z" fill="#455A64"/>
<path d="M301.328 38.824H274.063V42.2816H301.328V38.824Z" fill="#455A64"/>
<path d="M333.977 49.9673H274.063V107.935H333.977V49.9673Z" fill="#E0E0E0"/>
<path d="M278.708 102.966L295.275 73.136L308.832 92.2083L317.075 82.079L329.324 102.966H278.708Z" fill="#EE4248"/>
<path d="M314.641 67.3362C314.643 68.1913 314.391 69.0279 313.918 69.7397C313.444 70.4516 312.769 71.0068 311.979 71.335C311.19 71.6632 310.32 71.7496 309.482 71.5832C308.643 71.4169 307.872 71.0053 307.268 70.4006C306.663 69.7959 306.251 69.0253 306.085 68.1865C305.919 67.3477 306.005 66.4784 306.333 65.6887C306.661 64.899 307.217 64.2245 307.928 63.7506C308.64 63.2768 309.477 63.0249 310.332 63.0269C311.475 63.0269 312.571 63.4809 313.379 64.2891C314.187 65.0972 314.641 66.1933 314.641 67.3362Z" fill="#EE4248"/>
<path d="M329.324 103.129C329.324 103.129 329.324 103.047 329.324 102.895C329.324 102.743 329.324 102.5 329.324 102.216C329.324 101.598 329.324 100.726 329.324 99.6102C329.324 97.3085 329.324 93.9828 329.263 89.7648C329.263 81.2983 329.182 69.2425 329.131 54.7633L329.374 55.0067H278.758C278.687 55.0675 279.296 54.4693 279.042 54.7329V67.7317C279.042 71.9903 279.042 76.1677 279.042 80.2235C279.042 88.3351 279.042 96.0208 279.042 103.078L278.799 102.824L315.402 102.956L325.724 103.017H328.462H329.172H328.482H325.795L315.524 103.078L278.768 103.21H278.515V102.956C278.515 95.8586 278.515 88.2236 278.515 80.1018V54.7836C278.251 55.0269 278.86 54.4186 278.799 54.4895H329.415H329.668V54.7329C329.608 69.2729 329.567 81.3794 329.537 89.8864C329.537 94.0842 329.486 97.3896 329.476 99.6812C329.476 100.776 329.476 101.628 329.476 102.236C329.476 102.51 329.476 102.723 329.476 102.885C329.439 102.974 329.388 103.057 329.324 103.129Z" fill="#455A64"/>
<path d="M230.2 143.281H202.935V146.738H230.2V143.281Z" fill="#455A64"/>
<path d="M262.849 154.414H202.935V212.381H262.849V154.414Z" fill="#E0E0E0"/>
<path d="M207.579 207.423L224.157 177.593L237.713 196.655L245.946 186.536L258.205 207.423H207.579Z" fill="#EE4248"/>
<path d="M243.493 171.793C243.493 172.647 243.24 173.482 242.765 174.193C242.29 174.903 241.616 175.457 240.826 175.784C240.037 176.111 239.169 176.196 238.331 176.029C237.493 175.863 236.723 175.451 236.119 174.847C235.515 174.243 235.104 173.474 234.937 172.636C234.77 171.798 234.856 170.929 235.183 170.14C235.51 169.351 236.063 168.676 236.774 168.202C237.484 167.727 238.319 167.474 239.173 167.474C239.741 167.472 240.303 167.583 240.828 167.8C241.353 168.016 241.829 168.334 242.231 168.736C242.632 169.137 242.95 169.614 243.167 170.139C243.383 170.663 243.494 171.225 243.493 171.793Z" fill="#EE4248"/>
<path d="M258.205 207.585C258.205 207.585 258.205 207.494 258.205 207.342C258.205 207.19 258.205 206.947 258.205 206.663C258.205 206.054 258.205 205.182 258.205 204.057C258.205 201.765 258.205 198.44 258.134 194.211C258.134 185.745 258.063 173.689 258.013 159.22L258.256 159.463H207.64L207.924 159.18V162.495C207.924 163.59 207.924 164.685 207.924 165.77V184.721C207.924 192.832 207.924 200.508 207.924 207.575L207.67 207.322L244.274 207.454L254.596 207.514H257.343H258.053C258.134 207.506 258.216 207.506 258.296 207.514H257.394H254.707L244.436 207.585L207.67 207.707H207.427V207.464C207.427 200.366 207.427 192.721 207.427 184.609C207.427 180.554 207.427 176.39 207.427 172.118V159.22L207.721 158.926H258.337H258.58V159.18C258.53 173.72 258.489 185.826 258.459 194.333C258.459 198.531 258.459 201.836 258.398 204.118C258.398 205.223 258.398 206.075 258.398 206.683C258.398 206.947 258.398 207.16 258.398 207.332C258.355 207.43 258.289 207.517 258.205 207.585Z" fill="#455A64"/>
<path d="M303.295 143.281H276.03V146.738H303.295V143.281Z" fill="#455A64"/>
<path d="M335.944 154.414H276.03V212.381H335.944V154.414Z" fill="#E0E0E0"/>
<path d="M280.674 207.423L297.252 177.593L310.808 196.655L319.042 186.536L331.3 207.423H280.674Z" fill="#EE4248"/>
<path d="M316.578 171.793C316.576 172.645 316.321 173.477 315.846 174.184C315.372 174.892 314.698 175.442 313.91 175.767C313.123 176.092 312.257 176.176 311.421 176.008C310.586 175.841 309.819 175.43 309.218 174.826C308.616 174.223 308.207 173.456 308.041 172.62C307.876 171.784 307.962 170.918 308.288 170.131C308.614 169.345 309.167 168.672 309.875 168.199C310.584 167.726 311.416 167.474 312.268 167.474C312.835 167.474 313.396 167.585 313.92 167.803C314.443 168.02 314.919 168.338 315.319 168.739C315.719 169.141 316.036 169.617 316.252 170.141C316.468 170.665 316.579 171.226 316.578 171.793Z" fill="#EE4248"/>
<path d="M331.301 207.585C331.294 207.504 331.294 207.423 331.301 207.342C331.301 207.17 331.301 206.947 331.301 206.663C331.301 206.054 331.301 205.182 331.301 204.057C331.301 201.765 331.301 198.44 331.24 194.211C331.24 185.745 331.169 173.689 331.118 159.22L331.362 159.463H280.735L281.019 159.18V172.199C281.019 176.457 281.019 180.621 281.019 184.69C281.019 192.802 281.019 200.478 281.019 207.545L280.766 207.291L317.369 207.423L327.691 207.484H330.429H331.139H331.392H330.49H327.793L317.531 207.555L280.766 207.677H280.512V207.433C280.512 200.336 280.512 192.691 280.512 184.579C280.512 180.523 280.512 176.359 280.512 172.087V159.22L280.796 158.926H331.422H331.666V159.18C331.615 173.72 331.575 185.826 331.544 194.333C331.544 198.531 331.493 201.836 331.473 204.118C331.473 205.223 331.473 206.075 331.473 206.683C331.473 206.947 331.473 207.16 331.473 207.332C331.424 207.421 331.366 207.506 331.301 207.585Z" fill="#455A64"/>
<path d="M378.713 143.281H351.448V146.738H378.713V143.281Z" fill="#455A64"/>
<path d="M411.362 154.414H351.448V212.381H411.362V154.414Z" fill="#E0E0E0"/>
<path d="M356.091 207.423L372.669 177.593L386.226 196.655L394.459 186.536L406.718 207.423H356.091Z" fill="#EE4248"/>
<path d="M392.006 171.793C392.006 172.647 391.752 173.482 391.278 174.193C390.803 174.903 390.128 175.457 389.339 175.784C388.55 176.111 387.681 176.196 386.843 176.029C386.006 175.863 385.236 175.451 384.632 174.847C384.028 174.243 383.616 173.474 383.45 172.636C383.283 171.798 383.369 170.929 383.696 170.14C384.022 169.351 384.576 168.676 385.286 168.202C385.997 167.727 386.832 167.474 387.686 167.474C388.254 167.472 388.816 167.583 389.341 167.8C389.865 168.016 390.342 168.334 390.743 168.736C391.145 169.137 391.463 169.614 391.679 170.139C391.896 170.663 392.007 171.225 392.006 171.793Z" fill="#EE4248"/>
<path d="M406.718 207.585C406.718 207.585 406.718 207.494 406.718 207.342C406.718 207.19 406.718 206.947 406.718 206.663C406.718 206.054 406.718 205.182 406.718 204.057C406.718 201.765 406.718 198.44 406.647 194.211C406.647 185.745 406.576 173.689 406.525 159.22L406.769 159.463H356.152L356.436 159.18V184.69C356.436 192.802 356.436 200.478 356.436 207.545L356.183 207.291L392.786 207.423L403.108 207.484H405.856H406.556C406.64 207.476 406.725 207.476 406.809 207.484H405.907H403.22L392.949 207.555L356.183 207.677H355.939V207.433C355.939 200.336 355.939 192.691 355.939 184.579C355.939 180.523 355.939 176.359 355.939 172.087V159.22L356.233 158.926H406.85H407.093V159.18C407.042 173.72 407.002 185.826 406.971 194.333C406.971 198.531 406.921 201.836 406.911 204.118C406.911 205.223 406.911 206.075 406.911 206.683C406.911 206.947 406.911 207.16 406.911 207.332C406.867 207.43 406.801 207.517 406.718 207.585Z" fill="#455A64"/>
<path d="M405.755 107.924C407.933 107.644 410.131 107.549 412.325 107.641L412.041 107.924V107.276C412.041 107.052 412.041 106.84 412.041 106.627C412.041 106.201 412.041 105.795 412.041 105.39C412.041 104.67 412.041 103.97 412.102 103.301C412.071 102.652 412.14 102.003 412.305 101.374C412.457 102.005 412.522 102.653 412.498 103.301C412.498 103.97 412.498 104.67 412.558 105.39C412.558 105.795 412.558 106.201 412.558 106.627V107.924L412.264 108.219C410.09 108.312 407.912 108.214 405.755 107.924Z" fill="#455A64"/>
<path d="M375.874 107.924C380.848 107.546 385.844 107.546 390.819 107.924C385.845 108.317 380.848 108.317 375.874 107.924Z" fill="#455A64"/>
<path d="M354.357 101.354C354.644 103.532 354.739 105.73 354.641 107.924L354.357 107.641H356.923L359.011 107.701C359.66 107.684 360.307 107.753 360.938 107.904C360.31 108.068 359.66 108.137 359.011 108.107L356.923 108.168H355.686H354.357L354.074 107.874C353.985 105.696 354.08 103.516 354.357 101.354Z" fill="#455A64"/>
<path d="M354.358 71.4731C354.644 73.953 354.739 76.4514 354.642 78.9459C354.739 81.437 354.644 83.932 354.358 86.4085C354.077 83.9315 353.982 81.437 354.074 78.9459C353.982 76.4514 354.077 73.9535 354.358 71.4731Z" fill="#455A64"/>
<path d="M360.938 49.9471C358.757 50.2332 356.555 50.3281 354.358 50.231L354.642 49.9471V51.2551C354.642 51.6708 354.642 52.0865 354.642 52.4921C354.642 53.212 354.642 53.9015 354.581 54.5808C354.61 55.2295 354.542 55.879 354.378 56.5073C354.214 55.879 354.145 55.2295 354.175 54.5808C354.175 53.9015 354.175 53.212 354.114 52.4921C354.114 52.0865 354.114 51.6708 354.114 51.2551C354.114 51.0421 354.114 50.8191 354.114 50.596V49.9471L354.398 49.6632C356.582 49.5744 358.77 49.6694 360.938 49.9471Z" fill="#455A64"/>
<path d="M390.819 49.947C385.844 50.3256 380.848 50.3256 375.874 49.947C380.848 49.5685 385.844 49.5685 390.819 49.947Z" fill="#455A64"/>
<path d="M412.335 56.5377C412.042 54.3572 411.944 52.155 412.041 49.9571C412.619 50.525 412.203 50.1194 412.325 50.241H410.966H409.729L407.64 50.1802C406.992 50.2098 406.342 50.1415 405.714 49.9774C406.342 49.8134 406.992 49.745 407.64 49.7746L409.729 49.7138H412.284L412.578 49.9977C412.681 52.1807 412.599 54.3683 412.335 56.5377Z" fill="#455A64"/>
<path d="M412.335 86.4492C412.042 83.9732 411.943 81.4779 412.041 78.9865C411.943 76.4917 412.042 73.9931 412.335 71.5137C412.615 73.9941 412.71 76.492 412.619 78.9865C412.71 81.4777 412.616 83.9722 412.335 86.4492Z" fill="#455A64"/>
<path d="M411.493 117.162C411.493 117.314 398.647 117.445 382.819 117.445C366.991 117.445 354.145 117.314 354.145 117.162C354.145 117.009 366.981 116.878 382.819 116.878C398.657 116.878 411.493 116.999 411.493 117.162Z" fill="#455A64"/>
<path d="M411.494 124.837C411.494 124.989 398.647 125.121 382.819 125.121C366.992 125.121 354.186 124.979 354.186 124.837C354.186 124.695 367.022 124.543 382.86 124.543C398.698 124.543 411.494 124.675 411.494 124.837Z" fill="#455A64"/>
<path d="M381.41 38.7429H354.145V42.2005H381.41V38.7429Z" fill="#455A64"/>
<path d="M173.145 83.8534C173.145 89.6691 171.421 95.3541 168.19 100.19C164.959 105.025 160.366 108.794 154.994 111.02C149.621 113.245 143.708 113.827 138.004 112.693C132.3 111.558 127.061 108.758 122.949 104.645C118.837 100.533 116.036 95.2938 114.901 89.5899C113.767 83.886 114.349 77.9738 116.575 72.6008C118.8 67.2278 122.569 62.6355 127.405 59.4045C132.24 56.1735 137.925 54.4489 143.741 54.4489C151.539 54.4489 159.019 57.5469 164.533 63.0613C170.047 68.5757 173.145 76.0549 173.145 83.8534Z" fill="#E0E0E0"/>
<path d="M178.955 147.894C178.955 148.046 163.867 148.178 145.261 148.178C126.655 148.178 111.558 148.046 111.558 147.894C111.558 147.742 126.645 147.6 145.261 147.6C163.877 147.6 178.955 147.732 178.955 147.894Z" fill="#455A64"/>
<path d="M178.955 155.397C178.955 155.56 163.867 155.681 145.261 155.681C126.655 155.681 111.558 155.56 111.558 155.397C111.558 155.235 126.645 155.114 145.261 155.114C163.877 155.114 178.955 155.185 178.955 155.397Z" fill="#455A64"/>
<path d="M178.955 162.799C178.955 162.962 163.867 163.083 145.261 163.083C126.655 163.083 111.558 162.962 111.558 162.799C111.558 162.637 126.645 162.495 145.312 162.495C163.979 162.495 178.955 162.647 178.955 162.799Z" fill="#455A64"/>
<path d="M150.281 170.414C150.281 170.576 141.53 170.698 130.742 170.698C119.953 170.698 111.193 170.576 111.193 170.414C111.193 170.252 119.943 170.13 130.742 170.13C141.54 170.13 150.281 170.262 150.281 170.414Z" fill="#455A64"/>
<path d="M111.557 136.072H157.996V132.675H111.557V136.072Z" fill="#455A64"/>
<path d="M125.348 106.292C130.523 110.773 137.139 113.239 143.984 113.239C150.829 113.239 157.445 110.773 162.62 106.292C161.059 100.979 157.267 94.6722 148.05 93.273C150.116 92.3622 151.87 90.8652 153.094 88.9673C154.318 87.0695 154.958 84.8542 154.935 82.5961C154.935 76.2082 150.129 71.0168 144.146 70.9864C138.164 70.956 133.297 76.117 133.267 82.4947C133.224 84.7737 133.858 87.0141 135.086 88.9339C136.315 90.8537 138.084 92.367 140.172 93.2831C130.803 94.6722 126.94 101.009 125.348 106.292Z" fill="#EE4248"/>
<path d="M137.596 182.054H111.558V185.228H137.596V182.054Z" fill="#EE4248"/>
<path d="M501.349 71.9091L505.79 86.804C506.027 87.4728 506.16 88.1737 506.186 88.8826C506.186 90.9815 504.158 92.6342 502.13 93.0195C500.036 93.2462 497.918 92.9966 495.935 92.2895C495.387 94.4289 492.893 95.3313 490.713 95.7369C481.002 97.5435 470.969 96.293 461.998 92.1577C465.827 86.6758 468.938 80.7262 471.255 74.4542L493.907 75.4681C495.241 75.6127 496.59 75.4991 497.882 75.1335C498.524 74.9389 499.097 74.5658 499.535 74.0578C499.973 73.5497 500.258 72.9276 500.356 72.264" fill="#EE4248"/>
<path d="M475.393 100.999C475.677 99.3364 474.997 92.3402 474.997 92.3402C474.997 92.3402 468.62 91.6608 468.234 85.3338C467.849 79.0068 468.234 64.4059 468.234 64.4059L479.854 58.7278L492.65 68.411L490.713 100.056L476.873 112.406L475.393 100.999Z" fill="#FFBE9D"/>
<path d="M469.502 75.0423C469.5 75.2031 469.545 75.3609 469.633 75.4957C469.721 75.6304 469.847 75.7359 469.995 75.7989C470.143 75.8618 470.307 75.8794 470.465 75.8492C470.623 75.8191 470.768 75.7426 470.883 75.6296C470.997 75.5166 471.075 75.3721 471.107 75.2144C471.14 75.0568 471.124 74.8932 471.063 74.7444C471.002 74.5956 470.898 74.4683 470.764 74.3787C470.631 74.2891 470.474 74.2413 470.313 74.2413C470.207 74.2399 470.101 74.2597 470.003 74.2993C469.905 74.339 469.815 74.3978 469.74 74.4723C469.664 74.5468 469.604 74.6355 469.563 74.7334C469.523 74.8312 469.502 74.9362 469.502 75.0423Z" fill="#263238"/>
<path d="M468.762 74.1601C468.873 74.2717 469.472 73.7647 470.344 73.714C471.216 73.6633 471.865 74.0891 471.956 73.9675C472.047 73.8458 471.895 73.7241 471.611 73.5315C471.224 73.2767 470.765 73.1557 470.303 73.1867C469.844 73.2098 469.405 73.3846 469.056 73.6836C468.762 73.9168 468.66 74.1196 468.762 74.1601Z" fill="#263238"/>
<path d="M478.901 75.0423C478.899 75.2036 478.945 75.3618 479.033 75.4967C479.122 75.6317 479.248 75.7372 479.397 75.7998C479.546 75.8625 479.71 75.8794 479.868 75.8484C480.026 75.8174 480.172 75.74 480.286 75.6259C480.4 75.5119 480.477 75.3664 480.508 75.2081C480.539 75.0499 480.522 74.8859 480.459 74.7373C480.397 74.5887 480.291 74.4621 480.156 74.3737C480.021 74.2854 479.863 74.2393 479.702 74.2413C479.489 74.2413 479.286 74.3257 479.136 74.4759C478.985 74.6261 478.901 74.8298 478.901 75.0423Z" fill="#263238"/>
<path d="M478.384 74.1601C478.486 74.2717 479.084 73.7647 479.956 73.714C480.828 73.6633 481.487 74.0891 481.578 73.9675C481.67 73.8458 481.517 73.7241 481.223 73.5315C480.839 73.2804 480.384 73.1596 479.926 73.187C479.468 73.2144 479.03 73.3885 478.678 73.6836C478.415 73.9168 478.334 74.1196 478.384 74.1601Z" fill="#263238"/>
<path d="M478.12 82.3934C476.789 83.073 475.369 83.5644 473.902 83.8535C474.226 84.2898 474.685 84.6069 475.208 84.7555C475.73 84.904 476.287 84.8756 476.792 84.6748C477.033 84.6186 477.259 84.5138 477.458 84.3669C477.657 84.22 477.824 84.0341 477.948 83.8205C478.073 83.6069 478.152 83.3701 478.182 83.1247C478.211 82.8793 478.19 82.6304 478.12 82.3934Z" fill="#FAFAFA"/>
<path d="M474.998 92.3401C478.005 92.2159 480.915 91.2344 483.383 89.5112C483.383 89.5112 481.487 94.1551 475.139 93.8915L474.998 92.3401Z" fill="#EB996E"/>
<path d="M511.064 86.6114C510.268 86.6415 509.478 86.4632 508.772 86.0943C507.73 85.5276 506.864 84.6859 506.268 83.6608C505.528 82.3836 504.904 81.0433 504.402 79.6557C503.216 76.7153 502.374 73.9776 501.715 71.9903C501.624 71.6759 501.532 71.392 501.451 71.1183C501.413 70.8249 501.359 70.5338 501.289 70.2463C497.832 57.065 486.232 54.5909 483.94 54.5909C481.477 54.5909 477.167 53.2322 470.891 59.7621C469.941 60.7353 469.138 61.8421 468.508 63.0472C467.124 64.7887 466.169 66.8309 465.72 69.0093C465.445 70.0308 465.396 71.1001 465.578 72.1424C465.7 72.1424 465.72 70.956 466.207 69.1005C466.498 68.0218 466.906 66.9781 467.423 65.9877C466.877 68.4254 467.1 70.9724 468.062 73.278L470.313 72.6493L478.425 69.9117C477.684 67.4174 478.769 64.3147 479.378 62.814H479.439C481.284 72.2843 491.717 73.278 491.717 73.278L491.2 91.2553C501.918 88.9637 502.06 77.2628 501.989 74.3528C502.475 75.9954 503.104 77.8813 503.895 79.8585C504.425 81.2679 505.083 82.6256 505.862 83.9143C506.52 85.0078 507.487 85.8826 508.64 86.4289C509.417 86.797 510.285 86.9242 511.135 86.7939C511.449 86.7647 511.75 86.6528 512.007 86.4694C511.689 86.4962 511.374 86.5436 511.064 86.6114Z" fill="#EE4248"/>
<path d="M475.24 81.5315C474.778 81.4254 474.305 81.3744 473.831 81.3794C473.608 81.3794 473.385 81.3794 473.344 81.1766C473.313 80.9332 473.355 80.6859 473.466 80.4669C473.658 79.899 473.851 79.3008 474.064 78.662C474.48 77.3743 474.835 76.2083 475.078 75.3566C475.246 74.9066 475.352 74.4358 475.392 73.9573C475.154 74.3788 474.971 74.8284 474.845 75.2957C474.541 76.1272 474.145 77.3236 473.729 78.5809L473.152 80.3959C473.026 80.6831 472.997 81.0035 473.07 81.3084C473.106 81.3851 473.158 81.453 473.223 81.5073C473.288 81.5616 473.364 81.601 473.446 81.6228C473.57 81.6367 473.696 81.6367 473.821 81.6228C474.296 81.6495 474.772 81.6188 475.24 81.5315Z" fill="#263238"/>
<path d="M489.953 76.3807C487.986 75.9954 486.323 75.7216 485.755 75.681C485.831 75.3481 485.871 75.0083 485.877 74.6671C485.868 73.5717 485.513 72.5071 484.863 71.6252C484.265 70.8039 483.43 70.1848 482.47 69.8508C481.609 69.5446 480.681 69.4745 479.783 69.648C479.001 69.8059 478.27 70.1542 477.654 70.662C476.748 71.3619 476.114 72.3547 475.859 73.4706C475.788 73.7696 475.75 74.0758 475.748 74.3832C475.731 74.4873 475.731 74.5934 475.748 74.6975C475.748 74.6975 475.748 74.2615 475.971 73.5112C476.264 72.4485 476.902 71.5138 477.786 70.8546C478.382 70.4043 479.077 70.102 479.814 69.9725C480.758 69.8014 481.732 69.9169 482.61 70.3041C483.488 70.6913 484.23 71.3325 484.74 72.145C485.251 72.9576 485.506 73.9044 485.474 74.8635C485.442 75.8226 485.123 76.75 484.559 77.5264C484.002 78.2991 483.224 78.8857 482.328 79.2096C481.525 79.5067 480.657 79.5837 479.814 79.4326C479.077 79.2998 478.382 78.994 477.786 78.5404C476.901 77.8865 476.262 76.9545 475.971 75.894C475.887 75.5953 475.829 75.29 475.798 74.9814C475.95 74.9814 476.052 74.9003 476.052 74.8597C476.052 74.8192 475.93 74.7583 475.758 74.7279C475.555 74.7098 475.352 74.7098 475.149 74.7279C474.904 74.7265 474.659 74.7537 474.419 74.809V74.7482C474.415 73.652 474.06 72.5859 473.405 71.7064C472.809 70.8875 471.978 70.2688 471.023 69.932C470.158 69.6258 469.227 69.5558 468.326 69.7292C467.379 69.9205 466.507 70.3781 465.812 71.0481C465.117 71.718 464.628 72.5726 464.402 73.5112C464.33 73.8102 464.293 74.1163 464.29 74.4237C464.274 74.5279 464.274 74.6339 464.29 74.7381C464.29 74.7381 464.29 74.3021 464.513 73.5517C464.806 72.4891 465.445 71.5544 466.328 70.8952C466.925 70.4449 467.62 70.1425 468.356 70.0131C469.048 69.8868 469.76 69.9143 470.441 70.0934C471.122 70.2725 471.755 70.599 472.295 71.0497C472.836 71.5004 473.271 72.0643 473.57 72.7017C473.868 73.339 474.023 74.0342 474.024 74.7381C474.023 75.721 473.721 76.6802 473.16 77.4868C472.598 78.2933 471.803 78.9087 470.881 79.2501C470.074 79.5471 469.202 79.6241 468.356 79.4732C467.619 79.3403 466.924 79.0345 466.328 78.5809C465.444 77.9271 464.804 76.9951 464.513 75.9345C464.31 75.1842 464.331 74.7381 464.29 74.7381C464.275 74.8457 464.275 74.9549 464.29 75.0625C464.292 75.3666 464.33 75.6694 464.402 75.9649C464.655 77.0842 465.289 78.0807 466.196 78.7837C466.816 79.2844 467.546 79.6318 468.326 79.7977C469.227 79.971 470.158 79.901 471.023 79.5949C471.976 79.2546 472.806 78.6366 473.405 77.8205C474.01 77.0106 474.362 76.0409 474.419 75.0321C474.665 75.0929 474.917 75.1202 475.17 75.1132C475.366 75.1258 475.562 75.1258 475.758 75.1132C475.76 75.4173 475.798 75.7201 475.869 76.0156C476.088 76.9589 476.575 77.8187 477.271 78.4916C477.967 79.1644 478.843 79.6215 479.793 79.8078C480.691 79.9813 481.619 79.9113 482.48 79.605C483.438 79.2665 484.271 78.6484 484.873 77.8306C485.29 77.2635 485.581 76.6134 485.725 75.9244C486.262 76.0967 487.905 76.482 489.892 76.8673C491.346 77.2097 492.824 77.4435 494.313 77.567C492.896 77.05 491.437 76.6532 489.953 76.3807Z" fill="#263238"/>
<path d="M493.32 81.2679C493.219 80.2143 493.336 79.1513 493.664 78.1449C493.832 77.6437 494.131 77.1967 494.531 76.8507C494.93 76.5046 495.415 76.2723 495.936 76.1779C496.537 76.1478 497.13 76.3366 497.603 76.7094C498.077 77.0822 498.399 77.6137 498.511 78.2058C498.585 78.812 498.474 79.4263 498.194 79.9688C497.913 80.5113 497.476 80.9569 496.939 81.2476C496.398 81.5278 495.801 81.6823 495.192 81.6999C494.583 81.7175 493.977 81.5975 493.421 81.349" fill="#FFBE9D"/>
<path d="M495.125 80.3655C495.125 80.2945 495.469 80.4466 495.916 80.3655C496.194 80.2678 496.435 80.0851 496.604 79.8431C496.773 79.6011 496.862 79.3121 496.859 79.0169C496.886 78.8689 496.88 78.7165 496.842 78.571C496.803 78.4254 496.733 78.2902 496.635 78.1753C496.441 78.0194 496.194 77.9465 495.946 77.9726C495.469 77.9726 495.135 78.1348 495.114 78.0537C495.094 77.9726 495.327 77.7596 495.895 77.6075C496.069 77.5641 496.25 77.5597 496.425 77.5948C496.6 77.6299 496.766 77.7035 496.909 77.8103C497.076 77.9683 497.203 78.164 497.279 78.3809C497.355 78.5979 497.377 78.8299 497.345 79.0575C497.33 79.4916 497.165 79.907 496.879 80.2337C496.64 80.5092 496.308 80.6862 495.946 80.7305C495.398 80.7204 495.125 80.3655 495.125 80.3655Z" fill="#EB996E"/>
<path d="M519.682 321.31L512.047 316.128L521.669 301.771L532.914 309.234L532.377 310.156C529.943 314.273 519.712 330.881 517.167 333.001C514.267 335.353 519.682 321.31 519.682 321.31Z" fill="#EE4248"/>
<path d="M516.214 332.838C516.072 332.747 519.591 327.322 524.072 320.732C528.554 314.141 532.285 308.858 532.427 308.95C532.569 309.041 529.041 314.466 524.559 321.117C520.077 327.769 516.346 332.95 516.214 332.838Z" fill="#263238"/>
<path d="M521.071 322.618C521.071 322.78 520.595 322.871 520.057 322.912C519.52 322.952 519.043 322.912 518.993 322.749C518.942 322.587 519.408 322.354 520.006 322.324C520.605 322.293 521.091 322.455 521.071 322.618Z" fill="#263238"/>
<path d="M520.96 323.875C520.96 324.037 520.402 324.057 519.784 324.017C519.165 323.976 518.648 323.895 518.638 323.723C518.628 323.551 519.155 323.388 519.814 323.429C520.473 323.469 520.99 323.713 520.96 323.875Z" fill="#263238"/>
<path d="M529.446 313.249C529.375 313.249 529.183 312.975 528.949 312.458C528.634 311.765 528.452 311.018 528.412 310.258C528.373 309.469 528.601 308.69 529.061 308.047C529.436 307.56 529.801 307.429 529.842 307.49C529.882 307.55 529.649 307.804 529.406 308.27C529.11 308.882 528.971 309.558 529 310.237C529.049 310.943 529.164 311.642 529.345 312.326C529.477 312.863 529.527 313.218 529.446 313.249Z" fill="#263238"/>
<path d="M519.611 321.685C519.54 321.543 519.814 321.259 520.189 320.985C520.564 320.711 520.909 320.529 521.031 320.64C521.153 320.752 520.96 321.147 520.534 321.462C520.108 321.776 519.672 321.837 519.611 321.685Z" fill="#263238"/>
<path d="M519.023 320.965C518.892 320.864 519.023 320.407 519.368 319.951C519.713 319.495 520.068 319.191 520.2 319.272C520.331 319.353 520.2 319.809 519.855 320.286C519.51 320.762 519.145 321.066 519.023 320.965Z" fill="#263238"/>
<path d="M429.694 333.112V323.885L446.931 323.774L447.073 337.279L445.999 337.35C441.233 337.644 421.745 338.516 418.541 337.573C415.023 336.519 429.694 333.112 429.694 333.112Z" fill="#EE4248"/>
<path d="M418.186 336.722C418.186 336.559 424.655 336.428 432.624 336.428C440.594 336.428 447.063 336.559 447.063 336.722C447.063 336.884 440.604 337.026 432.624 337.026C424.644 337.026 418.186 336.894 418.186 336.722Z" fill="#263238"/>
<path d="M429.39 334.998C429.248 335.079 428.913 334.744 428.569 334.298C428.224 333.852 427.991 333.447 428.102 333.284C428.214 333.122 428.67 333.416 429.035 333.903C429.4 334.39 429.532 334.917 429.39 334.998Z" fill="#263238"/>
<path d="M428.285 335.606C428.133 335.667 427.828 335.251 427.514 334.714C427.2 334.177 426.977 333.7 427.108 333.599C427.24 333.497 427.676 333.842 428.021 334.42C428.366 334.998 428.437 335.545 428.285 335.606Z" fill="#263238"/>
<path d="M441.852 336.661C441.791 336.661 441.933 336.286 442.227 335.809C442.625 335.162 443.137 334.591 443.738 334.126C444.373 333.654 445.146 333.405 445.938 333.416C446.546 333.416 446.871 333.69 446.84 333.751C446.81 333.812 446.465 333.751 445.948 333.832C445.277 333.937 444.641 334.201 444.093 334.603C443.536 335.038 443.023 335.527 442.561 336.063C442.186 336.468 441.923 336.712 441.852 336.661Z" fill="#263238"/>
<path d="M429.339 333.264C429.42 333.122 429.816 333.193 430.241 333.345C430.667 333.497 431.032 333.69 431.002 333.852C430.972 334.014 430.546 334.075 430.049 333.903C429.552 333.731 429.217 333.406 429.339 333.264Z" fill="#263238"/>
<path d="M429.613 332.372C429.613 332.21 430.09 332.078 430.627 332.088C431.165 332.098 431.641 332.24 431.641 332.402C431.641 332.565 431.195 332.686 430.627 332.686C430.06 332.686 429.593 332.534 429.613 332.372Z" fill="#263238"/>
<path d="M473.294 120.062L454.567 113.826C454.567 113.826 446.303 137.633 443.768 137.866C429.735 139.144 414.718 134.49 409.446 132.655C408.919 132.057 408.31 131.337 407.631 130.454C407.047 129.695 406.598 128.841 406.303 127.93C405.897 126.813 405.645 125.646 405.552 124.462C405.574 124.234 405.524 124.004 405.41 123.806C405.296 123.607 405.122 123.449 404.914 123.353C404.706 123.257 404.473 123.228 404.247 123.271C404.022 123.313 403.815 123.425 403.656 123.59C403.058 124.381 402.896 127.382 404.285 130.627C405.674 133.871 400.767 131.286 398.962 130.373C397.157 129.461 391.448 126.926 390.728 127.261C389.715 127.757 390.009 128.974 391.834 129.836C393.659 130.698 398.931 133.669 398.414 134.602C397.897 135.534 388.772 130.779 388.772 130.779C388.772 130.779 386.987 129.451 386.348 130.505C385.192 132.401 395.251 136.731 396.224 137.116C396.893 137.38 396.366 138.414 395.656 138.13C394.946 137.846 386.673 133.192 385.466 135.088C384.554 136.558 393.72 138.718 394.906 140.624C396.092 142.531 388.112 138.282 387.301 139.732C386.997 140.269 386.835 140.746 391.763 142.49C395.38 143.613 399.056 144.537 402.774 145.258V145.309C402.774 145.309 452.001 167.322 462.597 146.11C473.832 123.6 473.294 120.062 473.294 120.062Z" fill="#FFBE9D"/>
<path d="M461.836 172.381C461.836 172.381 449.902 251.692 451.616 255.525C453.329 259.357 514.703 324.473 514.703 324.473L529.061 299.875C529.061 299.875 480.645 245.831 481.01 244.382C481.375 242.932 498.166 165.801 498.166 165.801L461.836 172.381Z" fill="#455A64"/>
<path d="M464.442 270.339L474.531 248.184L484.62 226.029L467.626 255.484L464.442 270.339Z" fill="#263238"/>
<path d="M470.455 250.577C470.501 250.865 470.521 251.157 470.515 251.449C470.515 252.077 470.515 252.919 470.576 253.963V253.882C474.419 258.222 482.936 268.078 492.772 279.596L509.857 299.733L514.987 305.888C515.555 306.577 516.001 307.145 516.356 307.571C516.529 307.758 516.679 307.966 516.802 308.189C516.607 308.027 516.427 307.847 516.265 307.652L514.815 306.03C513.517 304.559 511.773 302.511 509.542 300.007L492.305 279.981C482.48 268.473 474.054 258.516 470.374 254.044C470.374 253.031 470.374 252.159 470.424 251.53C470.391 251.212 470.401 250.892 470.455 250.577Z" fill="#263238"/>
<path d="M524.457 294.785C524.599 294.876 521.243 300.199 516.974 306.668C512.706 313.137 509.137 318.319 509.005 318.227C508.873 318.136 512.219 312.813 516.488 306.344C520.756 299.875 524.325 294.694 524.457 294.785Z" fill="#263238"/>
<path d="M457.517 202.171C457.629 201.339 467.16 179.864 467.16 179.864L462.536 173.344L461.715 173.162L457.517 202.171Z" fill="#263238"/>
<path d="M471.185 171.621L461.715 173.202L467.16 179.905C458.369 199.798 440.209 241.918 438.029 255.494C435.129 273.482 424.209 329.665 425.304 330.526C426.399 331.388 451.575 330.526 451.575 330.526L467.626 255.494L503.114 194.029C507.528 186.375 508.818 177.312 506.714 168.731L506.004 165.811" fill="#455A64"/>
<path d="M442.814 322.192C442.82 322.052 442.837 321.913 442.865 321.776C442.865 321.472 442.967 321.066 443.048 320.549L443.828 315.855C444.548 311.748 445.572 305.857 446.87 298.618C448.168 291.378 449.719 282.668 451.433 273.056C452.325 268.25 453.258 263.2 454.221 257.968C454.465 256.671 454.728 255.352 454.982 254.024C455.114 253.355 455.235 252.696 455.387 251.996C455.469 251.662 455.529 251.317 455.631 250.982L456.006 249.968C457.02 247.393 458.176 244.899 459.311 242.273C468.488 221.659 477.025 203.104 483.2 189.679L490.571 173.791C491.433 171.945 492.123 170.505 492.599 169.491C492.822 169.025 493.005 168.65 493.147 168.376C493.201 168.244 493.269 168.118 493.35 168.001L493.197 168.406L492.711 169.542L490.774 173.892C489.04 177.704 486.566 183.18 483.545 189.872C477.461 203.347 468.984 221.923 459.818 242.536C458.683 245.112 457.537 247.667 456.523 250.191L456.158 251.124C456.057 251.449 456.006 251.783 455.925 252.138C455.773 252.787 455.651 253.467 455.509 254.166C455.256 255.494 455.002 256.813 454.749 258.11C453.735 263.332 452.832 268.382 451.93 273.178C450.166 282.79 448.574 291.429 447.235 298.719C445.897 306.009 444.812 311.839 444.062 315.956C443.676 317.984 443.372 319.525 443.169 320.63C443.058 321.137 442.977 321.543 442.916 321.847C442.895 321.965 442.861 322.081 442.814 322.192Z" fill="#263238"/>
<path d="M453.076 323.307C453.076 323.469 446.993 323.49 439.581 323.307C432.169 323.125 426.085 322.932 426.085 322.77C426.085 322.608 432.169 322.587 439.591 322.719C447.013 322.851 453.086 323.145 453.076 323.307Z" fill="#263238"/>
<path d="M461.714 173.192L462.079 174.054L507.575 170.374L505.973 165.801L461.714 173.192Z" fill="#263238"/>
<path d="M480.503 99.0728L477.461 111.362L477.35 102.52L477.583 100.563L477.857 99.0728L473.801 97.704L471.712 100.959H471.104C471.104 100.959 454.729 99.3263 449 120.964L443.758 133.79L459.626 141.699V142.713L460.64 173.324L506.47 165.902C506.653 159.027 499.636 146.576 501.188 140.351L506.47 119.058L499.545 99.2147L494.749 99.3668L492.083 96.2135L480.554 99.0728" fill="#263238"/>
<path d="M459.91 141.517C459.541 141.414 459.196 141.238 458.896 140.999C458.05 140.418 457.33 139.674 456.777 138.809C455.938 137.514 455.556 135.976 455.692 134.439C455.769 132.56 456.389 130.742 457.477 129.207C458.32 128.004 459.431 127.011 460.721 126.307L460.579 126.49C460.965 123.681 461.309 121.268 461.593 119.554C461.69 118.64 461.86 117.735 462.1 116.847C462.101 117.77 462.033 118.692 461.897 119.605C461.725 121.319 461.451 123.752 461.106 126.561V126.683L460.985 126.754C459.608 127.538 458.45 128.655 457.617 130.003C456.784 131.352 456.304 132.887 456.219 134.47C456.066 135.914 456.386 137.37 457.132 138.617C457.64 139.461 458.292 140.209 459.058 140.827C459.636 141.273 459.92 141.476 459.91 141.517Z" fill="#455A64"/>
<path d="M461.664 120.923C461.532 120.984 461.086 120.335 460.65 119.463C460.214 118.591 459.981 117.831 460.112 117.77C460.244 117.709 460.69 118.358 461.126 119.23C461.562 120.102 461.765 120.802 461.664 120.923Z" fill="#455A64"/>
<path d="M414.779 112.224L558.942 139.915C569.224 141.892 575.693 151.281 574.526 161.978C574.51 162.129 574.483 162.278 574.445 162.424C573.966 164.953 572.988 167.361 571.569 169.509C570.15 171.656 568.318 173.5 566.18 174.933C564.042 176.366 561.641 177.36 559.115 177.857C556.59 178.353 553.991 178.343 551.469 177.826L410.186 149.314L379.027 124.411L414.779 112.224Z" fill="#EE4248"/>
<path d="M414.779 112.224C414.779 112.224 422.647 115.174 421.025 122.718C419.403 130.262 411.788 129.947 411.788 129.947C411.788 129.947 419.19 131.59 417.142 142.166C415.813 148.979 410.186 149.334 410.186 149.334L379.027 124.411L414.779 112.224Z" fill="#E0E0E0"/>
<path d="M385.8 129.826C388.842 128.315 389.907 124.29 388.842 121.075L379.058 124.411L385.8 129.826Z" fill="#455A64"/>
<path d="M556.975 159.372L556.6 159.322L555.485 159.139L551.236 158.379C547.546 157.709 542.222 156.706 535.632 155.438C522.45 152.903 504.311 149.263 484.275 145.126L432.99 134.46L417.446 131.205L413.228 130.302L412.133 130.049C412.004 130.03 411.878 129.996 411.758 129.947C411.888 129.952 412.017 129.969 412.143 129.998L413.248 130.191L417.487 131.002L433.091 134.105L484.417 144.619C504.443 148.756 522.592 152.457 535.743 155.083L551.307 158.186L555.536 159.048L556.641 159.281C556.756 159.297 556.868 159.328 556.975 159.372Z" fill="#455A64"/>
<path d="M551.469 177.826C553.991 178.343 556.59 178.353 559.115 177.857C561.641 177.36 564.042 176.366 566.18 174.933C568.318 173.5 570.15 171.656 571.569 169.509C572.988 167.361 573.965 164.953 574.445 162.424C574.483 162.278 574.51 162.128 574.526 161.978C575.692 151.281 569.223 141.892 558.942 139.915L551.469 177.826Z" fill="#455A64"/>
<path d="M494.172 117.993C494.172 117.993 485.401 145.664 482.957 146.272C469.289 149.76 453.725 147.539 448.24 146.556C447.621 146.049 446.891 145.42 446.09 144.67C445.399 144.01 444.823 143.239 444.387 142.389C443.806 141.352 443.372 140.239 443.099 139.083C443.089 138.85 443.005 138.626 442.859 138.443C442.713 138.26 442.513 138.128 442.288 138.067C442.063 138.005 441.824 138.016 441.605 138.098C441.386 138.181 441.199 138.33 441.071 138.525C440.595 139.397 440.919 142.389 442.795 145.37C442.795 145.37 431.804 152.346 429.401 152.285C426.998 152.224 420.113 152.052 420.833 153.005C421.553 153.958 429.401 155.266 429.401 155.266L443.596 160.082C443.596 160.082 495.672 174.095 502.8 151.463C507.16 137.593 510.182 129.43 510.861 126.115L494.172 117.993Z" fill="#FFBE9D"/>
<path d="M499.616 99.2553C499.616 99.2553 511.073 101.283 511.52 120.041C511.732 131.448 509.273 142.747 504.341 153.035L484.184 142.449C488.711 133.39 492.116 123.812 494.323 113.927L499.555 99.2452L499.616 99.2553Z" fill="#263238"/>
<path d="M493.736 114.971C493.736 115.361 493.692 115.748 493.604 116.127C493.492 116.857 493.3 117.912 493.016 119.169C492.272 122.543 491.334 125.871 490.207 129.136C489.074 132.402 487.75 135.598 486.243 138.708C485.665 139.904 485.168 140.858 484.803 141.496C484.637 141.855 484.433 142.195 484.194 142.51C484.287 142.134 484.43 141.773 484.62 141.436C484.965 140.655 485.401 139.702 485.908 138.586C486.983 136.173 488.382 132.797 489.71 128.994C491.038 125.192 492.002 121.674 492.651 119.108C492.948 117.912 493.202 116.898 493.411 116.067C493.475 115.69 493.584 115.322 493.736 114.971Z" fill="#455A64"/>
</svg>
