<svg width="1440" height="623" viewBox="0 0 1440 623" fill="none" xmlns="http://www.w3.org/2000/svg">
<path fill-rule="evenodd" clip-rule="evenodd" d="M0 357.586L119.124 421.929C241.752 486.271 480 623 721.752 623C960 623 1201.75 486.271 1320.88 421.929L1440 357.586V60H1320.88C1201.75 60 960 60 721.752 60C480 60 241.752 60 119.124 60H0V357.586Z" fill="#F2F2F2"/>
<path fill-rule="evenodd" clip-rule="evenodd" d="M0 316.086L119.124 384.429C241.752 452.771 480 598 721.752 598C960 598 1201.75 452.771 1320.88 384.429L1440 316.086V0H1320.88C1201.75 0 960 0 721.752 0C480 0 241.752 0 119.124 0H0V316.086Z" fill="#EE4248"/>
</svg>
