<svg width="64" height="85" viewBox="0 0 64 85" fill="none" xmlns="http://www.w3.org/2000/svg">
<path d="M31.64 22.1642C48.9396 8.73389 40.061 0 40.061 0C41.3823 13.8841 25.7665 17.1624 21.5807 26.7031C18.7244 33.2135 23.5366 38.914 31.6342 46.0985C30.9183 44.5073 29.8142 42.9611 28.6965 41.3958C24.8841 36.0568 20.9126 30.495 31.64 22.1642Z" fill="#E76F00"/>
<path d="M34.4018 49.0438C34.4018 49.0438 39.6064 44.8446 35.4847 40.1781C21.5129 24.3469 50.7659 17.1624 50.7659 17.1624C32.9057 25.7666 35.572 30.8737 40.0611 37.078C44.8675 43.731 34.4018 49.0438 34.4018 49.0438Z" fill="#E76F00"/>
<path d="M49.7266 61.5655C65.7584 53.3734 58.3459 45.5008 53.1721 46.5614C51.904 46.821 51.3386 47.0459 51.3386 47.0459C51.3386 47.0459 51.8093 46.3207 52.7085 46.0067C62.9439 42.4682 70.8157 56.4433 49.4044 61.9784C49.4044 61.9786 49.6524 61.7605 49.7266 61.5655Z" fill="#5382A1"/>
<path d="M16.3673 51.1968C6.33658 49.8796 21.867 46.2522 21.867 46.2522C21.867 46.2522 15.8359 45.8522 8.4184 49.3781C-0.352469 53.5502 30.1139 55.4477 45.8847 51.3689C47.5243 50.268 49.7907 49.3136 49.7907 49.3136C49.7907 49.3136 43.337 50.4471 36.9098 50.9803C29.0455 51.6283 20.6026 51.7544 16.3673 51.1968Z" fill="#5382A1"/>
<path d="M20.1835 59.019C14.5901 58.4501 18.2526 55.7842 18.2526 55.7842C3.77862 60.5081 26.3055 65.8652 46.5305 60.0495C44.3807 59.3042 43.0135 57.9412 43.0135 57.9412C33.1291 59.8128 27.4168 59.7528 20.1835 59.019Z" fill="#5382A1"/>
<path d="M22.6207 67.4832C17.0314 66.8513 20.2968 64.9839 20.2968 64.9839C7.15801 68.5941 28.2885 76.0524 45.0163 69.0024C42.2765 67.9547 40.3147 66.745 40.3147 66.745C32.8527 68.1338 29.392 68.2428 22.6207 67.4832Z" fill="#5382A1"/>
<path d="M57.6085 71.7886C57.6085 71.7886 60.025 73.7466 54.9472 75.2613C45.2917 78.1376 14.7599 79.0062 6.27834 75.3759C3.22943 74.0716 8.94701 72.2615 10.7455 71.8817C12.6212 71.4817 13.6931 71.5562 13.6931 71.5562C10.3024 69.2074 -8.22301 76.1684 4.28312 78.1619C38.3891 83.6009 66.4552 75.7127 57.6085 71.7886Z" fill="#5382A1"/>
<path d="M63.0214 76.0665C62.4617 83.2268 38.8309 84.7329 23.4424 83.7643C13.4034 83.1312 11.3914 81.5491 11.362 81.526C20.9701 83.0837 37.1692 83.3672 50.3036 80.9366C61.9456 78.7809 63.0214 76.0665 63.0214 76.0665Z" fill="#5382A1"/>
</svg>
