<svg width="81" height="81" viewBox="0 0 81 81" fill="none" xmlns="http://www.w3.org/2000/svg">
<circle cx="40.2851" cy="40.2637" r="40.2637" fill="#8892BF"/>
<path d="M36.8076 26.2589H40.5508L39.493 31.9666H42.8564C44.7009 32.0067 46.075 32.425 46.9793 33.2217C47.9016 34.0184 48.1728 35.5329 47.7931 37.764L45.9757 47.7152H42.1783L43.9143 38.2123C44.0949 37.216 44.0407 36.5089 43.7515 36.0905C43.4624 35.6722 42.8385 35.463 41.8799 35.463L38.8691 35.4331L36.6449 47.7152H32.9017L36.8076 26.2589Z" fill="white"/>
<path fill-rule="evenodd" clip-rule="evenodd" d="M19.6557 31.9667H26.9251C29.0587 31.9865 30.6048 32.6642 31.5634 33.9988C32.5219 35.3334 32.8382 37.1563 32.5127 39.4675C32.3863 40.5235 32.1059 41.5593 31.6719 42.5753C31.2558 43.5914 30.6775 44.5076 29.9359 45.3246C29.0316 46.3604 28.0643 47.0178 27.0336 47.2969C26.0028 47.576 24.9358 47.7153 23.8329 47.7153H20.5779L19.5472 53.3931H15.7769L19.6557 31.9667ZM21.2018 44.3385L22.8238 35.4033H23.3717C23.5708 35.4033 23.7786 35.3932 23.9956 35.3734C25.4424 35.3537 26.6446 35.5031 27.6032 35.8217C28.5797 36.1403 28.9052 37.3457 28.5797 39.4376C28.182 41.9281 27.4041 43.3822 26.2469 43.8006C25.0898 44.1992 23.643 44.3881 21.907 44.3683H21.5273C21.4188 44.3683 21.3103 44.3582 21.2018 44.3385Z" fill="white"/>
<path fill-rule="evenodd" clip-rule="evenodd" d="M59.082 31.9667H51.8126L47.9338 53.3931H51.7041L52.7349 47.7153H55.9898C57.0927 47.7153 58.1598 47.576 59.1905 47.2969C60.2213 47.0178 61.1885 46.3604 62.0928 45.3246C62.8344 44.5076 63.4127 43.5914 63.8288 42.5753C64.2628 41.5593 64.5433 40.5235 64.6697 39.4675C64.9952 37.1563 64.6789 35.3334 63.7203 33.9988C62.7617 32.6642 61.2156 31.9865 59.082 31.9667ZM54.9808 35.4033L53.3587 44.3385C53.4672 44.3582 53.5757 44.3683 53.6842 44.3683H54.064C55.7999 44.3881 57.2468 44.1992 58.4039 43.8006C59.5611 43.3822 60.339 41.9281 60.7366 39.4376C61.0621 37.3457 60.7366 36.1403 59.7601 35.8217C58.8016 35.5031 57.5994 35.3537 56.1526 35.3734C55.9356 35.3932 55.7278 35.4033 55.5287 35.4033H54.9808Z" fill="white"/>
</svg>
